<svg width="165" height="129" viewBox="0 0 165 129" fill="none" xmlns="http://www.w3.org/2000/svg">
<g clip-path="url(#clip0_2_876)">
<g clip-path="url(#clip1_2_876)">
<path fill-rule="evenodd" clip-rule="evenodd" d="M65.0456 18.6528H60.7029H56.3615C12.9408 18.6528 5.70285 29.0984 5.70285 41.986V73.6528V105.32C5.70285 118.207 12.9408 128.653 56.3615 128.653H60.7029H65.0456C108.466 128.653 115.703 118.207 115.703 105.32V73.6528V41.986C115.703 29.0984 108.466 18.6528 65.0456 18.6528Z" fill="#FFF496"/>
<path fill-rule="evenodd" clip-rule="evenodd" d="M34.7029 51.6528V38.6528L43.7015 33.6509L43.1703 23.8124L56.6987 18.6267L70.3425 28.5545L72.7029 28.6528L85.4803 19.1011L99.2684 23.6528V33.1528L109.08 38.6015V51.1087L117.703 56.6528V75.6528L108.703 79.6528V93.6528L99.7029 98.6528V107.655L85.4803 112.653L72.7029 103.653L69.7029 102.653L56.7029 112.653L43.7015 107.655V98.6528L34.0065 93.6528V80.5131L24.7029 75.2998V57.1877L34.7029 51.6528Z" fill="#7DE0FF"/>
<path opacity="0.6" fill-rule="evenodd" clip-rule="evenodd" d="M93.7029 48.6528L109.203 38.6528L98.7029 23.6528L93.7029 48.6528Z" fill="white"/>
<path fill-rule="evenodd" clip-rule="evenodd" d="M69.7029 102.653V63.6528L56.7029 112.653L69.7029 102.653Z" fill="#13C1FE"/>
<path opacity="0.6" fill-rule="evenodd" clip-rule="evenodd" d="M43.7029 107.653L69.7029 66.6528L52.2029 81.1528L43.2029 98.6528L43.7029 107.653Z" fill="white"/>
<path fill-rule="evenodd" clip-rule="evenodd" d="M34.2029 94.6528L33.7029 79.6528L48.7029 58.6528L34.7029 51.1528V38.6528L49.7029 58.6528L34.2029 94.6528Z" fill="#13C1FE"/>
<path opacity="0.6" fill-rule="evenodd" clip-rule="evenodd" d="M22.7029 58.6528H49.7029L34.7029 50.6528L22.7029 58.6528Z" fill="white"/>
<path opacity="0.6" fill-rule="evenodd" clip-rule="evenodd" d="M69.7029 65.6528L49.7029 58.6528L44.2029 34.1528L69.7029 65.6528Z" fill="white"/>
<path fill-rule="evenodd" clip-rule="evenodd" d="M85.7029 112.653L95.7029 65.6528L99.2029 107.653L85.7029 112.653Z" fill="#13C1FE"/>
<path fill-rule="evenodd" clip-rule="evenodd" d="M69.7029 65.6528H95.7029L93.7029 48.6528L69.7029 65.6528Z" fill="#13C1FE"/>
<path opacity="0.6" fill-rule="evenodd" clip-rule="evenodd" d="M117.703 56.6528L95.7029 65.6528L108.703 50.6528L117.703 56.6528Z" fill="white"/>
<path opacity="0.6" fill-rule="evenodd" clip-rule="evenodd" d="M85.7029 113.153L69.7029 65.6528V102.653L85.7029 113.153Z" fill="white"/>
<path fill-rule="evenodd" clip-rule="evenodd" d="M69.7029 64.6528L99.2029 23.6528L85.7029 18.6528L69.7029 64.6528Z" fill="#13C1FE"/>
<path opacity="0.6" fill-rule="evenodd" clip-rule="evenodd" d="M69.7029 64.6528L70.7029 28.6528L85.7029 19.1528" fill="white"/>
<path opacity="0.6" fill-rule="evenodd" clip-rule="evenodd" d="M43.2029 23.6528L70.7029 28.6528L56.7029 18.6528L43.2029 23.6528Z" fill="white"/>
<path d="M43.7029 30.6528H32.7029" stroke="#2D6E86" stroke-width="2"/>
<path d="M109.703 26.6528H98.7029" stroke="#2D6E86" stroke-width="2"/>
<path d="M93.7029 109.788V117.653" stroke="#2D6E86" stroke-width="2"/>
<path d="M49.7029 109.653V117.653" stroke="#2D6E86" stroke-width="2"/>
<path d="M25.7029 58.6528H16.7029" stroke="#2D6E86" stroke-width="2"/>
<path d="M15.7029 57.6528V69.6528" stroke="#2D6E86" stroke-width="2"/>
<path d="M117.703 82.6528H108.703" stroke="#2D6E86" stroke-width="2"/>
<path d="M116.703 93.6528V82.6528" stroke="#2D6E86" stroke-width="2"/>
<path d="M124.703 58.6528H117.703" stroke="#2D6E86" stroke-width="2"/>
<path d="M124.703 59.6528V48.6528" stroke="#2D6E86" stroke-width="2"/>
<path d="M34.7029 88.6528H24.7029" stroke="#2D6E86" stroke-width="2"/>
<path d="M24.7029 98.6528V87.6528" stroke="#2D6E86" stroke-width="2"/>
<path d="M71.7029 78.6587L85.7029 86.6528" stroke="#2D6E86" stroke-width="2"/>
<path d="M108.867 79.5132L103.08 76.322" stroke="#2D6E86" stroke-width="2"/>
<path d="M109.505 51.0205L104.399 53.6418" stroke="#2D6E86" stroke-width="2"/>
<path d="M71.7029 49.6528L84.7029 41.6528" stroke="#2D6E86" stroke-width="2"/>
<path d="M71.7029 78.6587L56.7029 87.6528" stroke="#2D6E86" stroke-width="2"/>
<path d="M33.3256 79.5132L39.112 76.322" stroke="#2D6E86" stroke-width="2"/>
<path d="M34.0065 51.0205L39.1123 53.6418" stroke="#2D6E86" stroke-width="2"/>
<path d="M71.7028 49.6528L56.9253 41.9028" stroke="#2D6E86" stroke-width="2"/>
<path fill-rule="evenodd" clip-rule="evenodd" d="M34.7029 51.6528V38.6528L43.7015 33.6509L43.1703 23.8124L56.6987 18.6267L70.3425 28.5545L72.7029 28.6528L85.4803 19.1011L99.2684 23.6528V33.1528L109.08 38.6015V51.1087L117.703 56.6528V75.6528L108.703 79.6528V93.6528L99.7029 98.6528V107.655L85.4803 112.653L72.7029 103.653L69.7029 102.653L56.7029 112.653L43.7015 107.655V98.6528L34.0065 93.6528V80.5131L24.7029 75.2998V57.1877L34.7029 51.6528Z" stroke="white" stroke-width="2"/>
<path d="M71.7029 80.6528V17.6528" stroke="#2D6E86" stroke-width="4"/>
<path fill-rule="evenodd" clip-rule="evenodd" d="M77.2029 14.1528C77.2029 17.1904 74.7404 19.6528 71.7029 19.6528C68.6652 19.6528 66.2029 17.1904 66.2029 14.1528C66.2029 11.1152 68.6652 8.65283 71.7029 8.65283C74.7404 8.65283 77.2029 11.1152 77.2029 14.1528ZM120.703 26.6528C120.703 29.6904 118.241 32.1528 115.203 32.1528C112.165 32.1528 109.703 29.6904 109.703 26.6528C109.703 23.6152 112.165 21.1528 115.203 21.1528C118.241 21.1528 120.703 23.6152 120.703 26.6528ZM33.7029 30.6528C33.7029 33.6904 31.2404 36.1528 28.2029 36.1528C25.1653 36.1528 22.7029 33.6904 22.7029 30.6528C22.7029 27.6152 25.1653 25.1528 28.2029 25.1528C31.2404 25.1528 33.7029 27.6152 33.7029 30.6528ZM93.7029 127.653C96.7404 127.653 99.2029 125.191 99.2029 122.153C99.2029 119.115 96.7404 116.653 93.7029 116.653C90.6653 116.653 88.2029 119.115 88.2029 122.153C88.2029 125.191 90.6653 127.653 93.7029 127.653ZM55.2029 122.153C55.2029 125.191 52.7405 127.653 49.7029 127.653C46.6652 127.653 44.2029 125.191 44.2029 122.153C44.2029 119.115 46.6652 116.653 49.7029 116.653C52.7405 116.653 55.2029 119.115 55.2029 122.153ZM15.7029 79.6528C18.7404 79.6528 21.2029 77.1904 21.2029 74.1528C21.2029 71.1152 18.7404 68.6528 15.7029 68.6528C12.6653 68.6528 10.2029 71.1152 10.2029 74.1528C10.2029 77.1904 12.6653 79.6528 15.7029 79.6528ZM122.203 99.1528C122.203 102.191 119.741 104.653 116.703 104.653C113.665 104.653 111.203 102.191 111.203 99.1528C111.203 96.1152 113.665 93.6528 116.703 93.6528C119.741 93.6528 122.203 96.1152 122.203 99.1528ZM124.203 49.6528C127.241 49.6528 129.703 47.1904 129.703 44.1528C129.703 41.1152 127.241 38.6528 124.203 38.6528C121.165 38.6528 118.703 41.1152 118.703 44.1528C118.703 47.1904 121.165 49.6528 124.203 49.6528ZM24.7029 109.653C27.7404 109.653 30.2029 107.191 30.2029 104.153C30.2029 101.115 27.7404 98.6528 24.7029 98.6528C21.6653 98.6528 19.2029 101.115 19.2029 104.153C19.2029 107.191 21.6653 109.653 24.7029 109.653ZM83.6917 41.7043C83.6917 44.7418 86.1542 47.2043 89.1917 47.2043C92.2292 47.2043 94.6917 44.7418 94.6917 41.7043C94.6917 38.6667 92.2292 36.2043 89.1917 36.2043C86.1542 36.2043 83.6917 38.6667 83.6917 41.7043ZM99.2684 61.1087C96.2309 61.1087 93.7684 58.6463 93.7684 55.6087C93.7684 52.5711 96.2309 50.1087 99.2684 50.1087C102.306 50.1087 104.769 52.5711 104.769 55.6087C104.769 58.6463 102.306 61.1087 99.2684 61.1087ZM93.7684 74.2999C93.7684 77.3374 96.2309 79.7999 99.2684 79.7999C102.306 79.7999 104.769 77.3374 104.769 74.2999C104.769 71.2623 102.306 68.7999 99.2684 68.7999C96.2309 68.7999 93.7684 71.2623 93.7684 74.2999ZM90.2029 93.1528C87.1653 93.1528 84.7029 90.6904 84.7029 87.6528C84.7029 84.6152 87.1653 82.1528 90.2029 82.1528C93.2404 82.1528 95.7029 84.6152 95.7029 87.6528C95.7029 90.6904 93.2404 93.1528 90.2029 93.1528ZM57.714 41.7043C57.714 44.7418 55.2516 47.2043 52.214 47.2043C49.1765 47.2043 46.714 44.7418 46.714 41.7043C46.714 38.6667 49.1765 36.2043 52.214 36.2043C55.2516 36.2043 57.714 38.6667 57.714 41.7043ZM43.1372 61.1087C46.1747 61.1087 48.6372 58.6463 48.6372 55.6087C48.6372 52.5711 46.1747 50.1087 43.1372 50.1087C40.0996 50.1087 37.6372 52.5711 37.6372 55.6087C37.6372 58.6463 40.0996 61.1087 43.1372 61.1087ZM48.6372 74.2999C48.6372 77.3374 46.1747 79.7999 43.1372 79.7999C40.0996 79.7999 37.6372 77.3374 37.6372 74.2999C37.6372 71.2623 40.0996 68.7999 43.1372 68.7999C46.1747 68.7999 48.6372 71.2623 48.6372 74.2999ZM52.2029 93.1528C55.2405 93.1528 57.7029 90.6904 57.7029 87.6528C57.7029 84.6152 55.2405 82.1528 52.2029 82.1528C49.1652 82.1528 46.7029 84.6152 46.7029 87.6528C46.7029 90.6904 49.1652 93.1528 52.2029 93.1528Z" fill="#33E2B8"/>
<mask id="mask0_2_876" style="mask-type:luminance" maskUnits="userSpaceOnUse" x="10" y="8" width="120" height="120">
<path fill-rule="evenodd" clip-rule="evenodd" d="M77.2029 14.1528C77.2029 17.1904 74.7404 19.6528 71.7029 19.6528C68.6652 19.6528 66.2029 17.1904 66.2029 14.1528C66.2029 11.1152 68.6652 8.65283 71.7029 8.65283C74.7404 8.65283 77.2029 11.1152 77.2029 14.1528ZM120.703 26.6528C120.703 29.6904 118.241 32.1528 115.203 32.1528C112.165 32.1528 109.703 29.6904 109.703 26.6528C109.703 23.6152 112.165 21.1528 115.203 21.1528C118.241 21.1528 120.703 23.6152 120.703 26.6528ZM33.7029 30.6528C33.7029 33.6904 31.2404 36.1528 28.2029 36.1528C25.1653 36.1528 22.7029 33.6904 22.7029 30.6528C22.7029 27.6152 25.1653 25.1528 28.2029 25.1528C31.2404 25.1528 33.7029 27.6152 33.7029 30.6528ZM93.7029 127.653C96.7404 127.653 99.2029 125.191 99.2029 122.153C99.2029 119.115 96.7404 116.653 93.7029 116.653C90.6653 116.653 88.2029 119.115 88.2029 122.153C88.2029 125.191 90.6653 127.653 93.7029 127.653ZM55.2029 122.153C55.2029 125.191 52.7405 127.653 49.7029 127.653C46.6652 127.653 44.2029 125.191 44.2029 122.153C44.2029 119.115 46.6652 116.653 49.7029 116.653C52.7405 116.653 55.2029 119.115 55.2029 122.153ZM15.7029 79.6528C18.7404 79.6528 21.2029 77.1904 21.2029 74.1528C21.2029 71.1152 18.7404 68.6528 15.7029 68.6528C12.6653 68.6528 10.2029 71.1152 10.2029 74.1528C10.2029 77.1904 12.6653 79.6528 15.7029 79.6528ZM122.203 99.1528C122.203 102.191 119.741 104.653 116.703 104.653C113.665 104.653 111.203 102.191 111.203 99.1528C111.203 96.1152 113.665 93.6528 116.703 93.6528C119.741 93.6528 122.203 96.1152 122.203 99.1528ZM124.203 49.6528C127.241 49.6528 129.703 47.1904 129.703 44.1528C129.703 41.1152 127.241 38.6528 124.203 38.6528C121.165 38.6528 118.703 41.1152 118.703 44.1528C118.703 47.1904 121.165 49.6528 124.203 49.6528ZM24.7029 109.653C27.7404 109.653 30.2029 107.191 30.2029 104.153C30.2029 101.115 27.7404 98.6528 24.7029 98.6528C21.6653 98.6528 19.2029 101.115 19.2029 104.153C19.2029 107.191 21.6653 109.653 24.7029 109.653ZM83.6917 41.7043C83.6917 44.7418 86.1542 47.2043 89.1917 47.2043C92.2292 47.2043 94.6917 44.7418 94.6917 41.7043C94.6917 38.6667 92.2292 36.2043 89.1917 36.2043C86.1542 36.2043 83.6917 38.6667 83.6917 41.7043ZM99.2684 61.1087C96.2309 61.1087 93.7684 58.6463 93.7684 55.6087C93.7684 52.5711 96.2309 50.1087 99.2684 50.1087C102.306 50.1087 104.769 52.5711 104.769 55.6087C104.769 58.6463 102.306 61.1087 99.2684 61.1087ZM93.7684 74.2999C93.7684 77.3374 96.2309 79.7999 99.2684 79.7999C102.306 79.7999 104.769 77.3374 104.769 74.2999C104.769 71.2623 102.306 68.7999 99.2684 68.7999C96.2309 68.7999 93.7684 71.2623 93.7684 74.2999ZM90.2029 93.1528C87.1653 93.1528 84.7029 90.6904 84.7029 87.6528C84.7029 84.6152 87.1653 82.1528 90.2029 82.1528C93.2404 82.1528 95.7029 84.6152 95.7029 87.6528C95.7029 90.6904 93.2404 93.1528 90.2029 93.1528ZM57.714 41.7043C57.714 44.7418 55.2516 47.2043 52.214 47.2043C49.1765 47.2043 46.714 44.7418 46.714 41.7043C46.714 38.6667 49.1765 36.2043 52.214 36.2043C55.2516 36.2043 57.714 38.6667 57.714 41.7043ZM43.1372 61.1087C46.1747 61.1087 48.6372 58.6463 48.6372 55.6087C48.6372 52.5711 46.1747 50.1087 43.1372 50.1087C40.0996 50.1087 37.6372 52.5711 37.6372 55.6087C37.6372 58.6463 40.0996 61.1087 43.1372 61.1087ZM48.6372 74.2999C48.6372 77.3374 46.1747 79.7999 43.1372 79.7999C40.0996 79.7999 37.6372 77.3374 37.6372 74.2999C37.6372 71.2623 40.0996 68.7999 43.1372 68.7999C46.1747 68.7999 48.6372 71.2623 48.6372 74.2999ZM52.2029 93.1528C55.2405 93.1528 57.7029 90.6904 57.7029 87.6528C57.7029 84.6152 55.2405 82.1528 52.2029 82.1528C49.1652 82.1528 46.7029 84.6152 46.7029 87.6528C46.7029 90.6904 49.1652 93.1528 52.2029 93.1528Z" fill="white"/>
</mask>
<g mask="url(#mask0_2_876)">
<path d="M71.7029 21.6528C75.8449 21.6528 79.2029 18.2949 79.2029 14.1528H75.2029C75.2029 16.0858 73.6358 17.6528 71.7029 17.6528V21.6528ZM64.2029 14.1528C64.2029 18.2949 67.5607 21.6528 71.7029 21.6528V17.6528C69.7699 17.6528 68.2029 16.0858 68.2029 14.1528H64.2029ZM71.7029 6.65283C67.5607 6.65283 64.2029 10.0107 64.2029 14.1528H68.2029C68.2029 12.2198 69.7699 10.6528 71.7029 10.6528V6.65283ZM79.2029 14.1528C79.2029 10.0107 75.8449 6.65283 71.7029 6.65283V10.6528C73.6358 10.6528 75.2029 12.2198 75.2029 14.1528H79.2029ZM115.203 34.1528C119.345 34.1528 122.703 30.7949 122.703 26.6528H118.703C118.703 28.5858 117.136 30.1528 115.203 30.1528V34.1528ZM107.703 26.6528C107.703 30.7949 111.061 34.1528 115.203 34.1528V30.1528C113.27 30.1528 111.703 28.5858 111.703 26.6528H107.703ZM115.203 19.1528C111.061 19.1528 107.703 22.5107 107.703 26.6528H111.703C111.703 24.7198 113.27 23.1528 115.203 23.1528V19.1528ZM122.703 26.6528C122.703 22.5107 119.345 19.1528 115.203 19.1528V23.1528C117.136 23.1528 118.703 24.7198 118.703 26.6528H122.703ZM28.2029 38.1528C32.3449 38.1528 35.7029 34.7949 35.7029 30.6528H31.7029C31.7029 32.5858 30.1359 34.1528 28.2029 34.1528V38.1528ZM20.7029 30.6528C20.7029 34.7949 24.0608 38.1528 28.2029 38.1528V34.1528C26.2698 34.1528 24.7029 32.5858 24.7029 30.6528H20.7029ZM28.2029 23.1528C24.0608 23.1528 20.7029 26.5107 20.7029 30.6528H24.7029C24.7029 28.7198 26.2698 27.1528 28.2029 27.1528V23.1528ZM35.7029 30.6528C35.7029 26.5107 32.3449 23.1528 28.2029 23.1528V27.1528C30.1359 27.1528 31.7029 28.7198 31.7029 30.6528H35.7029ZM97.2029 122.153C97.2029 124.086 95.6358 125.653 93.7029 125.653V129.653C97.8449 129.653 101.203 126.295 101.203 122.153H97.2029ZM93.7029 118.653C95.6358 118.653 97.2029 120.22 97.2029 122.153H101.203C101.203 118.011 97.8449 114.653 93.7029 114.653V118.653ZM90.2029 122.153C90.2029 120.22 91.7699 118.653 93.7029 118.653V114.653C89.5608 114.653 86.2029 118.011 86.2029 122.153H90.2029ZM93.7029 125.653C91.7699 125.653 90.2029 124.086 90.2029 122.153H86.2029C86.2029 126.295 89.5608 129.653 93.7029 129.653V125.653ZM49.7029 129.653C53.845 129.653 57.2029 126.295 57.2029 122.153H53.2029C53.2029 124.086 51.6358 125.653 49.7029 125.653V129.653ZM42.2029 122.153C42.2029 126.295 45.5607 129.653 49.7029 129.653V125.653C47.7699 125.653 46.2029 124.086 46.2029 122.153H42.2029ZM49.7029 114.653C45.5607 114.653 42.2029 118.011 42.2029 122.153H46.2029C46.2029 120.22 47.7699 118.653 49.7029 118.653V114.653ZM57.2029 122.153C57.2029 118.011 53.845 114.653 49.7029 114.653V118.653C51.6358 118.653 53.2029 120.22 53.2029 122.153H57.2029ZM19.2029 74.1528C19.2029 76.0858 17.6358 77.6528 15.7029 77.6528V81.6528C19.8449 81.6528 23.2029 78.2949 23.2029 74.1528H19.2029ZM15.7029 70.6528C17.6358 70.6528 19.2029 72.2198 19.2029 74.1528H23.2029C23.2029 70.0107 19.8449 66.6528 15.7029 66.6528V70.6528ZM12.2029 74.1528C12.2029 72.2198 13.7699 70.6528 15.7029 70.6528V66.6528C11.5608 66.6528 8.20285 70.0107 8.20285 74.1528H12.2029ZM15.7029 77.6528C13.7699 77.6528 12.2029 76.0858 12.2029 74.1528H8.20285C8.20285 78.2949 11.5608 81.6528 15.7029 81.6528V77.6528ZM116.703 106.653C120.845 106.653 124.203 103.295 124.203 99.1528H120.203C120.203 101.086 118.636 102.653 116.703 102.653V106.653ZM109.203 99.1528C109.203 103.295 112.561 106.653 116.703 106.653V102.653C114.77 102.653 113.203 101.086 113.203 99.1528H109.203ZM116.703 91.6528C112.561 91.6528 109.203 95.0107 109.203 99.1528H113.203C113.203 97.2198 114.77 95.6528 116.703 95.6528V91.6528ZM124.203 99.1528C124.203 95.0107 120.845 91.6528 116.703 91.6528V95.6528C118.636 95.6528 120.203 97.2198 120.203 99.1528H124.203ZM127.703 44.1528C127.703 46.0858 126.136 47.6528 124.203 47.6528V51.6528C128.345 51.6528 131.703 48.2949 131.703 44.1528H127.703ZM124.203 40.6528C126.136 40.6528 127.703 42.2198 127.703 44.1528H131.703C131.703 40.0107 128.345 36.6528 124.203 36.6528V40.6528ZM120.703 44.1528C120.703 42.2198 122.27 40.6528 124.203 40.6528V36.6528C120.061 36.6528 116.703 40.0107 116.703 44.1528H120.703ZM124.203 47.6528C122.27 47.6528 120.703 46.0858 120.703 44.1528H116.703C116.703 48.2949 120.061 51.6528 124.203 51.6528V47.6528ZM28.2029 104.153C28.2029 106.086 26.6359 107.653 24.7029 107.653V111.653C28.8449 111.653 32.2029 108.295 32.2029 104.153H28.2029ZM24.7029 100.653C26.6359 100.653 28.2029 102.22 28.2029 104.153H32.2029C32.2029 100.011 28.8449 96.6528 24.7029 96.6528V100.653ZM21.2029 104.153C21.2029 102.22 22.7699 100.653 24.7029 100.653V96.6528C20.5608 96.6528 17.2029 100.011 17.2029 104.153H21.2029ZM24.7029 107.653C22.7699 107.653 21.2029 106.086 21.2029 104.153H17.2029C17.2029 108.295 20.5608 111.653 24.7029 111.653V107.653ZM89.1917 45.2043C87.2588 45.2043 85.6917 43.6373 85.6917 41.7043H81.6917C81.6917 45.8464 85.0496 49.2043 89.1917 49.2043V45.2043ZM92.6917 41.7043C92.6917 43.6373 91.1247 45.2043 89.1917 45.2043V49.2043C93.3338 49.2043 96.6917 45.8464 96.6917 41.7043H92.6917ZM89.1917 38.2043C91.1247 38.2043 92.6917 39.7713 92.6917 41.7043H96.6917C96.6917 37.5621 93.3338 34.2043 89.1917 34.2043V38.2043ZM85.6917 41.7043C85.6917 39.7713 87.2588 38.2043 89.1917 38.2043V34.2043C85.0496 34.2043 81.6917 37.5621 81.6917 41.7043H85.6917ZM91.7684 55.6087C91.7684 59.7508 95.1264 63.1087 99.2684 63.1087V59.1087C97.3354 59.1087 95.7684 57.5417 95.7684 55.6087H91.7684ZM99.2684 48.1087C95.1264 48.1087 91.7684 51.4665 91.7684 55.6087H95.7684C95.7684 53.6757 97.3354 52.1087 99.2684 52.1087V48.1087ZM106.769 55.6087C106.769 51.4665 103.411 48.1087 99.2684 48.1087V52.1087C101.202 52.1087 102.769 53.6757 102.769 55.6087H106.769ZM99.2684 63.1087C103.411 63.1087 106.769 59.7508 106.769 55.6087H102.769C102.769 57.5417 101.202 59.1087 99.2684 59.1087V63.1087ZM99.2684 77.7999C97.3354 77.7999 95.7684 76.2329 95.7684 74.2999H91.7684C91.7684 78.442 95.1264 81.7999 99.2684 81.7999V77.7999ZM102.769 74.2999C102.769 76.2329 101.202 77.7999 99.2684 77.7999V81.7999C103.411 81.7999 106.769 78.442 106.769 74.2999H102.769ZM99.2684 70.7999C101.202 70.7999 102.769 72.3669 102.769 74.2999H106.769C106.769 70.1577 103.411 66.7999 99.2684 66.7999V70.7999ZM95.7684 74.2999C95.7684 72.3669 97.3354 70.7999 99.2684 70.7999V66.7999C95.1264 66.7999 91.7684 70.1577 91.7684 74.2999H95.7684ZM82.7029 87.6528C82.7029 91.7949 86.0608 95.1528 90.2029 95.1528V91.1528C88.2699 91.1528 86.7029 89.5858 86.7029 87.6528H82.7029ZM90.2029 80.1528C86.0608 80.1528 82.7029 83.5107 82.7029 87.6528H86.7029C86.7029 85.7198 88.2699 84.1528 90.2029 84.1528V80.1528ZM97.7029 87.6528C97.7029 83.5107 94.3449 80.1528 90.2029 80.1528V84.1528C92.1358 84.1528 93.7029 85.7198 93.7029 87.6528H97.7029ZM90.2029 95.1528C94.3449 95.1528 97.7029 91.7949 97.7029 87.6528H93.7029C93.7029 89.5858 92.1358 91.1528 90.2029 91.1528V95.1528ZM52.214 49.2043C56.3562 49.2043 59.714 45.8464 59.714 41.7043H55.714C55.714 43.6373 54.1469 45.2043 52.214 45.2043V49.2043ZM44.714 41.7043C44.714 45.8464 48.0718 49.2043 52.214 49.2043V45.2043C50.281 45.2043 48.714 43.6373 48.714 41.7043H44.714ZM52.214 34.2043C48.0718 34.2043 44.714 37.5621 44.714 41.7043H48.714C48.714 39.7713 50.281 38.2043 52.214 38.2043V34.2043ZM59.714 41.7043C59.714 37.5621 56.3562 34.2043 52.214 34.2043V38.2043C54.1469 38.2043 55.714 39.7713 55.714 41.7043H59.714ZM46.6372 55.6087C46.6372 57.5417 45.0702 59.1087 43.1372 59.1087V63.1087C47.2794 63.1087 50.6372 59.7508 50.6372 55.6087H46.6372ZM43.1372 52.1087C45.0702 52.1087 46.6372 53.6757 46.6372 55.6087H50.6372C50.6372 51.4665 47.2794 48.1087 43.1372 48.1087V52.1087ZM39.6372 55.6087C39.6372 53.6757 41.2043 52.1087 43.1372 52.1087V48.1087C38.995 48.1087 35.6372 51.4665 35.6372 55.6087H39.6372ZM43.1372 59.1087C41.2043 59.1087 39.6372 57.5417 39.6372 55.6087H35.6372C35.6372 59.7508 38.995 63.1087 43.1372 63.1087V59.1087ZM43.1372 81.7999C47.2794 81.7999 50.6372 78.442 50.6372 74.2999H46.6372C46.6372 76.2329 45.0702 77.7999 43.1372 77.7999V81.7999ZM35.6372 74.2999C35.6372 78.442 38.995 81.7999 43.1372 81.7999V77.7999C41.2043 77.7999 39.6372 76.2329 39.6372 74.2999H35.6372ZM43.1372 66.7999C38.995 66.7999 35.6372 70.1577 35.6372 74.2999H39.6372C39.6372 72.3669 41.2043 70.7999 43.1372 70.7999V66.7999ZM50.6372 74.2999C50.6372 70.1577 47.2794 66.7999 43.1372 66.7999V70.7999C45.0702 70.7999 46.6372 72.3669 46.6372 74.2999H50.6372ZM55.7029 87.6528C55.7029 89.5858 54.1358 91.1528 52.2029 91.1528V95.1528C56.345 95.1528 59.7029 91.7949 59.7029 87.6528H55.7029ZM52.2029 84.1528C54.1358 84.1528 55.7029 85.7198 55.7029 87.6528H59.7029C59.7029 83.5107 56.345 80.1528 52.2029 80.1528V84.1528ZM48.7029 87.6528C48.7029 85.7198 50.2699 84.1528 52.2029 84.1528V80.1528C48.0607 80.1528 44.7029 83.5107 44.7029 87.6528H48.7029ZM52.2029 91.1528C50.2699 91.1528 48.7029 89.5858 48.7029 87.6528H44.7029C44.7029 91.7949 48.0607 95.1528 52.2029 95.1528V91.1528Z" fill="#246F99"/>
</g>
</g>
</g>
<defs>
<clipPath id="clip0_2_876">
<rect width="164" height="128" fill="white" transform="translate(0.70285 0.652832)"/>
</clipPath>
<clipPath id="clip1_2_876">
<rect width="164" height="128" fill="white" transform="translate(0.70285 0.652832)"/>
</clipPath>
</defs>
</svg>
