<svg width="165" height="129" viewBox="0 0 165 129" fill="none" xmlns="http://www.w3.org/2000/svg">
<g clip-path="url(#clip0_2_726)">
<path fill-rule="evenodd" clip-rule="evenodd" d="M60.5584 19.3606H56.2824H52.0079C9.25522 19.3606 2.12857 29.6455 2.12857 42.3348V73.5144V104.694C2.12857 117.383 9.25522 127.668 52.0079 127.668H56.2824H60.5584C103.311 127.668 110.437 117.383 110.437 104.694V73.5144V42.3348C110.437 29.6455 103.311 19.3606 60.5584 19.3606Z" fill="#C40F00"/>
<path fill-rule="evenodd" clip-rule="evenodd" d="M60.5584 19.3606H56.2824H52.0079C9.25522 19.3606 2.12857 29.6455 2.12857 42.3348V73.5144V104.694C2.12857 117.383 9.25522 127.668 52.0079 127.668H56.2824H60.5584C103.311 127.668 110.437 117.383 110.437 104.694V73.5144V42.3348C110.437 29.6455 103.311 19.3606 60.5584 19.3606Z" fill="#FAFAFA" fill-opacity="0.8"/>
<mask id="mask0_2_726" style="mask-type:luminance" maskUnits="userSpaceOnUse" x="2" y="19" width="109" height="109">
<path fill-rule="evenodd" clip-rule="evenodd" d="M60.5584 19.3606H56.2824H52.0079C9.25522 19.3606 2.12857 29.6455 2.12857 42.3348V73.5144V104.694C2.12857 117.383 9.25522 127.668 52.0079 127.668H56.2824H60.5584C103.311 127.668 110.437 117.383 110.437 104.694V73.5144V42.3348C110.437 29.6455 103.311 19.3606 60.5584 19.3606Z" fill="white"/>
</mask>
<g mask="url(#mask0_2_726)">
<path fill-rule="evenodd" clip-rule="evenodd" d="M84.8362 20.7554C84.8362 20.7554 88.7747 29.6169 88.7747 37.4938C88.7747 45.3708 88.7747 68.5092 88.7747 68.5092C88.7747 68.5092 98.1285 74.4169 102.067 68.5092C106.006 62.6015 108.467 65.0631 108.467 65.0631C108.467 65.0631 111.675 67.3392 112.406 69.9861C113.135 72.6331 110.437 80.3246 110.437 80.3246C110.437 80.3246 106.275 78.713 102.067 80.8169C97.8592 82.9208 89.267 90.1708 89.267 90.1708C89.267 90.1708 90.7439 98.0477 88.7747 100.017C86.8055 101.987 86.8055 105.925 86.8055 105.925C86.8055 105.925 89.267 111.833 89.267 117.74C89.267 123.648 91.2362 125.125 91.2362 125.125C91.2362 125.125 74.4978 127.587 59.2362 127.587C43.9747 127.587 31.1747 127.587 31.1747 127.587L38.067 20.2631L74.4978 19.7708L84.8362 20.7554Z" fill="#C40F00"/>
<path fill-rule="evenodd" clip-rule="evenodd" d="M84.8362 20.7554C84.8362 20.7554 88.7747 29.6169 88.7747 37.4938C88.7747 45.3708 88.7747 68.5092 88.7747 68.5092C88.7747 68.5092 98.1285 74.4169 102.067 68.5092C106.006 62.6015 108.467 65.0631 108.467 65.0631C108.467 65.0631 111.675 67.3392 112.406 69.9861C113.135 72.6331 110.437 80.3246 110.437 80.3246C110.437 80.3246 106.275 78.713 102.067 80.8169C97.8592 82.9208 89.267 90.1708 89.267 90.1708C89.267 90.1708 90.7439 98.0477 88.7747 100.017C86.8055 101.987 86.8055 105.925 86.8055 105.925C86.8055 105.925 89.267 111.833 89.267 117.74C89.267 123.648 91.2362 125.125 91.2362 125.125C91.2362 125.125 74.4978 127.587 59.2362 127.587C43.9747 127.587 31.1747 127.587 31.1747 127.587L38.067 20.2631L74.4978 19.7708L84.8362 20.7554Z" fill="#FAFAFA" fill-opacity="0.5"/>
</g>
<path fill-rule="evenodd" clip-rule="evenodd" d="M69.8461 85.5131C69.4092 84.5819 68.7734 82.6344 69.4353 80.0597C70.045 77.6901 72.0126 74.0366 77.9263 70.0877C79.9129 68.7622 82.1054 67.7154 84.4429 66.9771C85.3871 66.6791 86.3826 66.528 87.4032 66.528C87.8002 66.528 88.205 66.5514 88.6054 66.5975C88.6671 66.6044 88.7279 66.6079 88.7896 66.6079C89.0875 66.6079 89.3829 66.5245 89.6434 66.3673C90.5156 65.8409 92.7202 64.6169 94.3611 64.6169C94.5748 64.6169 94.7754 64.6387 94.957 64.6804C98.4646 65.4839 99.7311 67.6598 100.412 68.8281C100.494 68.9697 100.568 69.0965 100.636 69.2043L100.827 69.5049L92.4135 73.7838C91.696 74.7272 83.0861 85.6704 70.1398 85.699L69.9339 85.6999L69.8461 85.5131Z" fill="#FFDBB9"/>
<path fill-rule="evenodd" clip-rule="evenodd" d="M94.361 64.2939C92.6376 64.2939 90.3713 65.55 89.4766 66.0903C89.2664 66.2171 89.0292 66.2848 88.7903 66.2848C88.7408 66.2848 88.6922 66.2814 88.6427 66.2762C88.2301 66.2284 87.8131 66.205 87.4031 66.205C86.3495 66.205 85.3209 66.3605 84.3455 66.6688C81.9785 67.4168 79.759 68.4765 77.7473 69.8194C71.7475 73.8238 69.7453 77.5547 69.1224 79.9791C68.4345 82.651 69.0972 84.6793 69.5533 85.6505L69.7288 86.024L70.1405 86.0231C83.1676 85.9936 91.5995 75.3987 92.629 74.0375L92.8417 73.929L100.656 69.9549L101.29 69.6326L100.908 69.0315C100.842 68.9265 100.771 68.8031 100.691 68.6658C99.9868 67.455 98.6738 65.2 95.0289 64.3651C94.824 64.3174 94.599 64.2939 94.361 64.2939ZM94.361 64.9411C94.546 64.9411 94.7215 64.9585 94.8848 64.9958C98.6808 65.8653 99.7319 68.3844 100.363 69.3781L92.5481 73.3522L92.1998 73.5293C92.1998 73.5293 83.5923 85.3456 70.1388 85.3759C69.7479 84.543 69.1025 82.6537 69.7496 80.1406C70.3855 77.665 72.4077 74.1618 78.106 70.3571C80.1065 69.022 82.2773 68.0004 84.5409 67.2856C85.4713 66.992 86.4363 66.8521 87.4031 66.8521C87.7923 66.8521 88.1814 66.8747 88.5689 66.919C88.6427 66.9277 88.7165 66.932 88.7903 66.932C89.1465 66.932 89.4983 66.833 89.811 66.6445C90.7978 66.0486 92.8756 64.9411 94.361 64.9411Z" fill="#020202"/>
<path fill-rule="evenodd" clip-rule="evenodd" d="M24.2651 74.7879C20.2207 74.7879 16.9302 71.4974 16.9302 67.453L18.5486 28.8226C18.5477 24.7921 21.8389 21.5017 25.8833 21.5017H69.029C73.0735 21.5017 76.3648 24.7921 76.3648 28.8365L77.9822 67.44C77.9822 71.4974 74.6917 74.7879 70.6473 74.7879H24.2651Z" fill="#3F3F3F"/>
<path fill-rule="evenodd" clip-rule="evenodd" d="M69.0294 21.1782H25.8829C21.6603 21.1782 18.2248 24.6136 18.2248 28.8371L16.6074 67.4258C16.6065 71.6761 20.042 75.1116 24.2645 75.1116H70.6476C74.8701 75.1116 78.3065 71.6761 78.3065 67.4527L76.6873 28.8093C76.6882 24.6136 73.2527 21.1782 69.0294 21.1782ZM69.0294 21.8253C72.9018 21.8253 76.041 24.9647 76.041 28.8371L77.6585 67.4527C77.6585 71.3252 74.5201 74.4644 70.6476 74.4644H24.2645C20.3929 74.4644 17.2537 71.3252 17.2537 67.4527L18.872 28.8371C18.872 24.9647 22.0113 21.8253 25.8829 21.8253H69.0294Z" fill="#020202"/>
<path fill-rule="evenodd" clip-rule="evenodd" d="M53.4831 127.395L53.5014 127.054C53.5274 126.539 53.6212 126.027 53.7776 125.533L53.8497 125.307H76.0054L76.0766 125.535C76.2313 126.034 76.3233 126.545 76.3494 127.054L76.3676 127.395H53.4831Z" fill="#44484B"/>
<mask id="mask1_2_726" style="mask-type:luminance" maskUnits="userSpaceOnUse" x="53" y="124" width="24" height="4">
<path fill-rule="evenodd" clip-rule="evenodd" d="M53.1425 127.718H76.708V124.983H53.1425V127.718Z" fill="white"/>
</mask>
<g mask="url(#mask1_2_726)">
<path fill-rule="evenodd" clip-rule="evenodd" d="M76.2442 124.983H75.7673H54.0859H53.6125L53.4691 125.435C53.3041 125.957 53.2059 126.496 53.1773 127.037L53.1425 127.718H53.8235H76.0262H76.708L76.6724 127.037C76.6446 126.502 76.5482 125.964 76.3857 125.44L76.2442 124.983ZM75.7673 125.631C75.9097 126.09 76.0001 126.572 76.0262 127.071H53.8235C53.8496 126.572 53.94 126.09 54.0859 125.631H75.7673Z" fill="#020202"/>
</g>
<path fill-rule="evenodd" clip-rule="evenodd" d="M53.8372 125.307L54.0361 124.854C54.2359 124.397 54.5034 123.952 54.8309 123.533C54.996 123.331 55.1602 123.144 55.34 122.971C56.49 121.825 58.0197 121.19 59.6458 121.19H70.2042C71.356 121.19 72.4792 121.515 73.4521 122.131C73.6727 122.266 73.8829 122.419 74.0888 122.588C74.8289 123.194 75.4249 123.977 75.814 124.852L76.0163 125.307H53.8372Z" fill="#FFDBB9"/>
<path fill-rule="evenodd" clip-rule="evenodd" d="M70.2045 120.867H59.6453C57.9341 120.867 56.3227 121.535 55.1084 122.745C54.9034 122.942 54.7219 123.156 54.5864 123.32C54.2319 123.774 53.9513 124.242 53.7394 124.723L53.3415 125.631H54.3318H55.6166H59.8721H75.5181H76.5136L76.1097 124.721C75.7005 123.8 75.0725 122.975 74.2941 122.337C74.0527 122.14 73.8373 121.986 73.6141 121.851C72.6012 121.21 71.4181 120.867 70.2045 120.867ZM70.2045 121.514C71.3338 121.514 72.3892 121.841 73.2787 122.405C73.4924 122.534 73.6896 122.679 73.8841 122.839C74.5825 123.411 75.1463 124.146 75.5181 124.984H59.8721H55.6166H54.3318C54.529 124.534 54.7887 124.114 55.0858 123.732C55.2378 123.548 55.3933 123.369 55.5653 123.204C56.6138 122.158 58.0565 121.514 59.6453 121.514H70.2045Z" fill="#020202"/>
<path fill-rule="evenodd" clip-rule="evenodd" d="M19.5536 127.395L19.5718 127.054C19.5979 126.544 19.6899 126.034 19.8437 125.535L19.9149 125.307H42.0715L42.1427 125.533C42.2999 126.027 42.3929 126.539 42.4198 127.054L42.4381 127.395H19.5536Z" fill="#44484B"/>
<mask id="mask2_2_726" style="mask-type:luminance" maskUnits="userSpaceOnUse" x="19" y="124" width="24" height="4">
<path fill-rule="evenodd" clip-rule="evenodd" d="M19.2127 127.718H42.7782V124.983H19.2127V127.718Z" fill="white"/>
</mask>
<g mask="url(#mask2_2_726)">
<path fill-rule="evenodd" clip-rule="evenodd" d="M42.3083 124.983H41.8348H20.1535H19.6765L19.5349 125.44C19.3726 125.964 19.2761 126.502 19.2483 127.037L19.2127 127.718H19.8946H42.0963H42.7782L42.7426 127.037C42.7148 126.496 42.6166 125.957 42.4516 125.435L42.3083 124.983ZM41.8348 125.631C41.9799 126.09 42.0711 126.572 42.0963 127.071H19.8946C19.9206 126.572 20.011 126.09 20.1535 125.631H41.8348Z" fill="#020202"/>
</g>
<path fill-rule="evenodd" clip-rule="evenodd" d="M19.9046 125.307L20.1069 124.852C20.4961 123.977 21.092 123.194 21.8321 122.589C22.0379 122.419 22.2482 122.266 22.474 122.128C23.4408 121.515 24.564 121.19 25.7158 121.19H36.2751C37.9003 121.19 39.4309 121.825 40.5843 122.975C40.7607 123.144 40.924 123.331 41.0838 123.525C41.4165 123.951 41.6841 124.396 41.8856 124.854L42.0845 125.307H19.9046Z" fill="#FFDBB9"/>
<path fill-rule="evenodd" clip-rule="evenodd" d="M36.2752 120.867H25.7159C24.5024 120.867 23.3193 121.21 22.296 121.858C22.0841 121.986 21.8678 122.14 21.6272 122.337C20.848 122.975 20.2199 123.8 19.8108 124.721L19.407 125.631H20.4024H36.0484H40.3039H41.5887H42.5798L42.1811 124.723C41.97 124.242 41.6886 123.774 41.3455 123.334C41.1987 123.156 41.0171 122.942 40.8043 122.737C39.5978 121.535 37.9864 120.867 36.2752 120.867ZM36.2752 121.514C37.864 121.514 39.3076 122.158 40.3561 123.204C40.5272 123.369 40.6827 123.548 40.8347 123.732C41.1327 124.114 41.3915 124.534 41.5887 124.984H40.3039H36.0484H20.4024C20.7751 124.146 21.338 123.411 22.0372 122.839C22.2309 122.679 22.428 122.534 22.6418 122.405C23.5321 121.841 24.5867 121.514 25.7159 121.514H36.2752Z" fill="#020202"/>
<path fill-rule="evenodd" clip-rule="evenodd" d="M54.9788 122.723C53.8627 120.408 51.4808 116.193 47.9602 113.718C44.4396 116.193 42.0577 120.408 40.9416 122.723L40.7522 123.115L40.4308 122.821C39.2876 121.77 37.811 121.19 36.2752 121.19H25.7159C24.6692 121.19 23.6312 121.465 22.7139 121.984L22.3057 122.214L22.2344 121.752C22.0624 120.631 21.7757 119.611 21.4987 118.625C20.7333 115.901 19.7813 112.509 19.7779 104.4V103.912L20.2269 104.072C21.3023 104.523 23.6668 104.743 27.4541 104.743H68.4663C72.2536 104.743 74.6172 104.523 75.6935 104.072L76.1426 103.884V104.37C76.1391 112.508 75.1871 115.9 74.4218 118.624C74.1447 119.61 73.8589 120.628 73.686 121.752L73.6149 122.214L73.2065 121.984C72.2902 121.465 71.2512 121.19 70.2045 121.19H59.6452C58.1094 121.19 56.6328 121.77 55.4888 122.821L55.1683 123.115L54.9788 122.723Z" fill="#FFDBB9"/>
<path fill-rule="evenodd" clip-rule="evenodd" d="M19.4545 103.396V104.37C19.458 112.552 20.417 115.968 21.1875 118.712C21.475 119.735 21.746 120.701 21.9146 121.801L22.057 122.726L22.8735 122.266C23.7422 121.774 24.7254 121.514 25.7166 121.514H36.275C37.7299 121.514 39.1285 122.063 40.2126 123.058L40.8545 123.649L41.2332 122.863C42.3164 120.616 44.6019 116.565 47.96 114.116C51.3182 116.565 53.6045 120.616 54.6877 122.863L55.0665 123.649L55.7083 123.058C56.7924 122.063 58.1909 121.514 59.6459 121.514H70.2043C71.1954 121.514 72.1788 121.774 73.0474 122.266L73.864 122.726L74.0064 121.801C74.1749 120.701 74.446 119.735 74.7335 118.713C75.5039 115.968 76.4629 112.552 76.4664 104.399V103.425L75.5691 103.774C74.5337 104.207 72.2109 104.419 68.467 104.419H47.96H27.4539C23.71 104.419 21.3873 104.207 20.3519 103.774L19.4545 103.396ZM75.8192 104.37V104.399C75.8158 112.457 74.8707 115.829 74.1106 118.537C73.8092 119.608 73.5374 120.586 73.3662 121.701C72.4281 121.171 71.35 120.868 70.2043 120.868H59.6459C57.9599 120.868 56.4258 121.521 55.2706 122.583C54.0154 119.977 51.5649 115.771 47.96 113.324C44.3551 115.771 41.9056 119.977 40.6503 122.583C39.4951 121.521 37.961 120.868 36.275 120.868H25.7166C24.5709 120.868 23.4929 121.171 22.5548 121.701C22.3827 120.586 22.1117 119.608 21.8103 118.537C21.0503 115.829 20.1051 112.457 20.1017 104.399V104.37C21.2283 104.842 23.6066 105.066 27.4539 105.066H47.96H68.467C72.3143 105.066 74.6926 104.842 75.8192 104.37Z" fill="#020202"/>
<path fill-rule="evenodd" clip-rule="evenodd" d="M21.6786 104.377C21.5821 104.364 21.4728 104.352 21.3503 104.341C20.3131 104.238 18.3847 104.047 16.6153 101.818C15.7787 100.763 15.8474 98.4414 15.9152 97.4928C15.9351 97.221 15.8682 96.9569 15.7232 96.7267C15.1099 95.7599 14.7112 94.7261 14.5383 93.6534C14.2317 91.7641 14.1857 89.8783 14.4003 88.0471C15.0396 82.5886 16.8507 80.0087 18.257 78.8056C19.7746 77.5079 21.3207 77.3142 22.1068 77.3142H22.5759L22.4491 77.7529C22.1825 78.4565 22.0461 79.1635 22.0461 79.8541L24.1647 97.254L21.9505 104.414L21.6786 104.377Z" fill="#FFDBB9"/>
<mask id="mask3_2_726" style="mask-type:luminance" maskUnits="userSpaceOnUse" x="13" y="76" width="12" height="29">
<path fill-rule="evenodd" clip-rule="evenodd" d="M13.9439 76.9902V104.773H24.4941V76.9902H13.9439Z" fill="white"/>
</mask>
<g mask="url(#mask3_2_726)">
<path fill-rule="evenodd" clip-rule="evenodd" d="M22.1063 76.9902C21.2758 76.9902 19.6429 77.1943 18.0471 78.5598C16.5965 79.8003 14.7306 82.4462 14.0783 88.0099C13.8602 89.8705 13.908 91.7867 14.219 93.7056C14.3997 94.8209 14.814 95.8963 15.4499 96.8996C15.5576 97.0707 15.6071 97.2679 15.5923 97.4694C15.5046 98.6951 15.4881 100.917 16.3619 102.019C18.2164 104.356 20.2343 104.556 21.3185 104.663C21.4365 104.674 21.5426 104.684 21.6346 104.697L22.1792 104.773L22.3417 104.247L24.4534 97.4156L24.4942 97.2836L24.4777 97.1463L22.3703 79.8159C22.3756 79.1766 22.5033 78.5207 22.7517 77.8675L23.0818 76.9989L22.1532 76.9902H22.1497H22.1063ZM22.1063 77.6373C22.1202 77.6373 22.1341 77.6373 22.1471 77.6373C21.8753 78.3531 21.7233 79.0941 21.7233 79.8541L23.8349 97.2245L21.7233 104.056C20.8329 103.933 18.7655 104.006 16.8692 101.616C16.1317 100.688 16.1665 98.5126 16.2385 97.5154C16.2629 97.1767 16.1778 96.8405 15.9962 96.5539C15.4264 95.6539 15.0277 94.6533 14.8574 93.6022C14.5621 91.7789 14.5065 89.9226 14.7211 88.0855C15.3352 82.8501 17.0108 80.2981 18.4675 79.0515C19.9182 77.8102 21.3914 77.6373 22.1063 77.6373Z" fill="#020202"/>
</g>
<path fill-rule="evenodd" clip-rule="evenodd" d="M27.4538 104.473C26.6555 104.473 25.9232 104.463 25.2752 104.445L24.9573 104.435L25.0189 97.8396C23.0046 97.5086 21.5244 94.847 20.7105 93.3851C20.5072 93.0203 20.2779 92.6068 20.1945 92.5303L20.0156 92.4409L20.0486 92.2619V80.1782C20.0486 77.8338 21.7399 75.3703 24.5751 73.586L25.0016 73.3176L25.5262 73.0406C26.2498 72.6601 26.9777 72.35 27.6892 72.1181L28.1965 71.9531L28.5092 71.8792L29.1563 71.7115L29.906 71.6047C30.164 71.5682 30.4219 71.543 30.673 71.5291L30.739 71.5256L30.8016 71.5482C34.3526 72.8399 38.9895 73.5574 44.9752 73.7398L46.0524 73.7624C46.6101 73.7746 47.2346 73.7815 47.9539 73.785C48.6861 73.7815 49.3107 73.7746 49.8684 73.7624L50.9186 73.7407C56.9227 73.5574 61.5691 72.8399 65.1192 71.5482L65.1817 71.5256L65.2478 71.5291C65.4988 71.543 65.7567 71.5682 66.0148 71.6047L66.7279 71.7038L67.8085 71.9808L68.2307 72.1172C68.9438 72.3508 69.6717 72.661 70.3945 73.0406L70.9008 73.3072L71.3465 73.586C73.3348 74.8378 72.4089 76.4291 71.5914 77.8338C71.1493 78.5938 70.6924 79.379 70.6672 80.1026L75.9625 92.956L75.694 93.0907C75.6402 93.135 75.4509 93.419 75.2988 93.6475C74.6195 94.6664 73.3817 96.5244 71.3865 96.7685L70.9226 104.437L70.6272 104.445C69.9922 104.463 69.26 104.473 68.467 104.473H27.4538Z" fill="#FFDBB9"/>
<path fill-rule="evenodd" clip-rule="evenodd" d="M65.1334 71.1987L65.0082 71.2438C61.492 72.5242 56.8787 73.2348 50.9058 73.4173L49.8617 73.4389C49.3049 73.4503 48.6829 73.458 47.9489 73.4616C47.2375 73.458 46.6155 73.4503 46.0587 73.4389L44.979 73.4164C39.0332 73.2348 34.4293 72.5242 30.9122 71.2438L30.787 71.1987L30.6542 71.2065C30.3936 71.2204 30.127 71.2474 29.8611 71.2838L29.1479 71.3837L29.1114 71.389L29.0759 71.3976L28.4209 71.567L28.1491 71.6304L28.123 71.6365L28.0969 71.6452L27.5896 71.8103C26.8608 72.0474 26.1164 72.3653 25.3754 72.7544L24.8725 73.0185L24.8499 73.0307L24.829 73.0437L24.4025 73.3121C21.4735 75.1554 19.724 77.7222 19.724 80.1779V92.2625V92.6612L19.9924 92.7959C20.0871 92.9305 20.2739 93.2666 20.4276 93.5429C21.2328 94.9901 22.6696 97.5708 24.6927 98.1007L24.637 104.114L24.631 104.749L25.266 104.767C25.9174 104.787 26.6532 104.797 27.4541 104.797H68.4664C69.2681 104.797 69.9978 104.787 70.6362 104.768L71.2277 104.752L71.2634 104.161L71.6934 97.0478C73.6756 96.6674 74.8891 94.8458 75.5684 93.8261C75.6857 93.6497 75.829 93.4352 75.9011 93.3492L76.3762 93.1103L76.1478 92.5552L70.9941 80.0468C71.0427 79.4205 71.4632 78.6969 71.8706 77.9967C72.6732 76.6181 73.772 74.7298 71.5188 73.3121L71.0949 73.0455L71.0732 73.0324L71.0506 73.0203L70.545 72.7544C69.805 72.3653 69.0605 72.0483 68.3317 71.8103L67.9269 71.679L66.8454 71.3976L66.8099 71.389L66.7725 71.3837L66.0593 71.2838C65.7944 71.2474 65.5268 71.2204 65.2663 71.2065L65.1334 71.1987ZM65.2298 71.8519C65.4721 71.8658 65.7206 71.8901 65.9699 71.9249L66.6831 72.0248L67.7271 72.294L68.131 72.4253C68.8251 72.6519 69.5357 72.9551 70.2436 73.3269L70.75 73.5935L71.1739 73.8602C73.9136 75.5836 70.3426 77.9315 70.3426 80.164L75.5493 92.802C75.0994 93.0269 73.7624 96.3608 71.0802 96.4694L70.6171 104.121C69.9865 104.14 69.2568 104.149 68.4664 104.149H27.4541C26.6592 104.149 25.9296 104.14 25.2842 104.12L25.345 97.5473C22.6531 97.4396 20.8219 92.4884 20.3712 92.2625V80.1779C20.3712 77.9455 22.0077 75.5836 24.7465 73.8602L25.1739 73.5918L25.6769 73.3269C26.3848 72.9551 27.0953 72.6519 27.7903 72.4253L28.2967 72.261L28.5825 72.1933L29.2375 72.0248L29.9506 71.9249C30.1999 71.8901 30.4483 71.8658 30.6906 71.8519C34.2739 73.1558 38.9437 73.8793 44.9651 74.0635L46.0457 74.0861C46.6052 74.0973 47.2306 74.1052 47.9524 74.1087C48.6899 74.1052 49.3153 74.0973 49.8756 74.0861L50.9249 74.0644C56.9767 73.8793 61.6474 73.1558 65.2298 71.8519Z" fill="#020202"/>
<path fill-rule="evenodd" clip-rule="evenodd" d="M19.4615 46.5795C20.0183 46.6351 20.7063 47.1728 21.3924 48.1135C22.2933 49.3452 23.0855 51.1026 23.6266 53.0666C23.6562 53.1664 23.6823 53.2637 23.7075 53.3637L23.426 56.1685C23.2627 57.8006 23.2757 59.3173 23.4764 60.7228C23.3617 60.8323 23.234 60.907 23.0968 60.9452C22.4905 61.1189 21.6678 60.5673 20.8444 59.438C19.947 58.2063 19.1479 56.4482 18.6068 54.4841C18.3339 53.5044 18.1446 52.5358 18.0386 51.6176C17.9352 50.6995 17.9144 49.8395 17.9813 49.0752C18.109 47.6766 18.5311 46.7758 19.1366 46.6055C19.2408 46.5769 19.3486 46.5682 19.4615 46.5795Z" fill="#FFDBB9"/>
<path fill-rule="evenodd" clip-rule="evenodd" d="M19.4615 46.5795C20.0183 46.6351 20.7063 47.1728 21.3924 48.1135C22.2933 49.3452 23.0855 51.1026 23.6266 53.0666C23.6562 53.1664 23.6823 53.2637 23.7075 53.3637L23.426 56.1685C23.2627 57.8006 23.2757 59.3173 23.4764 60.7228C23.3617 60.8323 23.234 60.907 23.0968 60.9452C22.4905 61.1189 21.6678 60.5673 20.8444 59.438C19.947 58.2063 19.1479 56.4482 18.6068 54.4841C18.3339 53.5044 18.1446 52.5358 18.0386 51.6176C17.9352 50.6995 17.9144 49.8395 17.9813 49.0752C18.109 47.6766 18.5311 46.7758 19.1366 46.6055C19.2408 46.5769 19.3486 46.5682 19.4615 46.5795Z" stroke="#020202" stroke-width="0.789678"/>
<path fill-rule="evenodd" clip-rule="evenodd" d="M75.5293 46.5795C74.9725 46.6351 74.2846 47.1728 73.5983 48.1135C72.6976 49.3452 71.9054 51.1026 71.3641 53.0666C71.3347 53.1664 71.3086 53.2637 71.2834 53.3637L71.5648 56.1685C71.7281 57.8006 71.7151 59.3173 71.5145 60.7228C71.6291 60.8323 71.7568 60.907 71.894 60.9452C72.5004 61.1189 73.3229 60.5673 74.1464 59.438C75.0437 58.2063 75.8429 56.4482 76.3841 54.4841C76.6568 53.5044 76.8462 52.5358 76.9522 51.6176C77.0555 50.6995 77.0764 49.8395 77.0095 49.0752C76.8818 47.6766 76.4596 46.7758 75.8542 46.6055C75.75 46.5769 75.6423 46.5682 75.5293 46.5795Z" fill="#FFDBB9"/>
<path fill-rule="evenodd" clip-rule="evenodd" d="M75.5293 46.5795C74.9725 46.6351 74.2846 47.1728 73.5983 48.1135C72.6976 49.3452 71.9054 51.1026 71.3641 53.0666C71.3347 53.1664 71.3086 53.2637 71.2834 53.3637L71.5648 56.1685C71.7281 57.8006 71.7151 59.3173 71.5145 60.7228C71.6291 60.8323 71.7568 60.907 71.894 60.9452C72.5004 61.1189 73.3229 60.5673 74.1464 59.438C75.0437 58.2063 75.8429 56.4482 76.3841 54.4841C76.6568 53.5044 76.8462 52.5358 76.9522 51.6176C77.0555 50.6995 77.0764 49.8395 77.0095 49.0752C76.8818 47.6766 76.4596 46.7758 75.8542 46.6055C75.75 46.5769 75.6423 46.5682 75.5293 46.5795Z" stroke="#020202" stroke-width="0.789678"/>
<path fill-rule="evenodd" clip-rule="evenodd" d="M51.5297 74.8419H43.44C30.9741 74.8419 20.8682 64.736 20.8682 52.271V40.7024C20.8682 31.4087 28.402 23.875 37.6957 23.875H57.2732C66.5669 23.875 74.1007 31.4087 74.1007 40.7024V52.271C74.1007 64.736 63.9957 74.8419 51.5297 74.8419Z" fill="#FFDBB9"/>
<path fill-rule="evenodd" clip-rule="evenodd" d="M51.5297 74.8419H43.44C30.9741 74.8419 20.8682 64.736 20.8682 52.271V40.7024C20.8682 31.4087 28.402 23.875 37.6957 23.875H57.2732C66.5669 23.875 74.1007 31.4087 74.1007 40.7024V52.271C74.1007 64.736 63.9957 74.8419 51.5297 74.8419Z" stroke="#020202" stroke-width="0.789678"/>
<path fill-rule="evenodd" clip-rule="evenodd" d="M51.7367 65.697C50.6943 66.0949 49.1638 66.4571 47.4456 66.4701C45.7308 66.4831 44.2029 66.1599 43.1484 65.8265C42.0869 65.4903 41.4814 65.1602 41.5171 65.0533C41.5953 64.784 44.1934 65.6127 47.4395 65.5997C50.6917 65.5901 53.2151 64.5582 53.3125 64.8136C53.3576 64.917 52.7791 65.3026 51.7367 65.697Z" fill="#FFDBB9"/>
<path fill-rule="evenodd" clip-rule="evenodd" d="M53.1928 49.6517C53.1928 50.8913 54.1996 51.8972 55.4384 51.8972C56.6779 51.8972 57.6812 50.8913 57.6812 49.6517C57.6812 48.4122 56.6779 47.4089 55.4384 47.4089C54.1996 47.4089 53.1928 48.4122 53.1928 49.6517ZM49.1189 46.833C50.0997 43.3158 53.3189 40.7368 57.1374 40.7368C60.9559 40.7368 64.176 43.3158 65.1567 46.833C65.2983 47.4289 65.3696 48.0465 65.3696 48.684C65.3696 53.2306 61.8593 54.9731 57.3129 54.9731C52.7664 54.9731 48.9052 53.2306 48.9052 48.684C48.9052 48.0465 48.9765 47.4289 49.1189 46.833Z" fill="white"/>
<path fill-rule="evenodd" clip-rule="evenodd" d="M52.3834 39.0127H59.8685V38.3655H52.3834V39.0127Z" fill="black"/>
<path fill-rule="evenodd" clip-rule="evenodd" d="M55.4387 51.8975C54.1991 51.8975 53.1932 50.8908 53.1932 49.652C53.1932 48.4125 54.1991 47.4092 55.4387 47.4092C56.6783 47.4092 57.6815 48.4125 57.6815 49.652C57.6815 50.8908 56.6783 51.8975 55.4387 51.8975Z" fill="black"/>
<path fill-rule="evenodd" clip-rule="evenodd" d="M57.1377 40.7364C53.3191 40.7364 50.099 43.3154 49.1192 46.8334C49.954 43.1764 53.2288 40.4514 57.1377 40.4514C61.0465 40.4514 64.3214 43.1764 65.1561 46.8334C64.1763 43.3154 60.9562 40.7364 57.1377 40.7364Z" fill="white"/>
<path fill-rule="evenodd" clip-rule="evenodd" d="M47.3874 65.8841C43.059 65.8937 39.6026 64.3952 39.4983 64.8843C39.4505 65.0797 42.4483 68.2077 47.4039 68.2077C52.3587 68.2077 55.3242 65.0797 55.2765 64.8843C55.1722 64.3952 51.7159 65.8937 47.3874 65.8841Z" fill="#E05934"/>
<path fill-rule="evenodd" clip-rule="evenodd" d="M33.8958 39.0127H41.5008V38.3655H33.8958V39.0127Z" fill="black"/>
<path fill-rule="evenodd" clip-rule="evenodd" d="M38.974 51.9082C37.7345 51.9082 36.7286 50.9015 36.7286 49.6628C36.7311 48.4233 37.7345 47.4165 38.974 47.4165C40.2135 47.4165 41.2194 48.4233 41.2194 49.6628C41.2194 50.9015 40.2135 51.9082 38.974 51.9082Z" fill="black"/>
<path fill-rule="evenodd" clip-rule="evenodd" d="M38.9739 51.9084C37.7343 51.9084 36.7284 50.9016 36.7284 49.6629C36.7311 48.4234 37.7343 47.4166 38.9739 47.4166C40.2135 47.4166 41.2193 48.4234 41.2193 49.6629C41.2193 50.9016 40.2135 51.9084 38.9739 51.9084ZM45.2942 46.8441C44.4585 43.1872 41.1837 40.4631 37.2748 40.4631C33.385 40.4631 30.1302 43.1585 29.272 46.7859C29.1234 47.3975 29.0461 48.0377 29.0461 48.6952C29.0427 53.2418 32.7874 54.9729 37.3338 54.9729C41.8804 54.9729 45.5069 53.2418 45.5069 48.6952C45.5069 48.0577 45.4358 47.4392 45.2942 46.8441Z" fill="white"/>
<path fill-rule="evenodd" clip-rule="evenodd" d="M29.2726 47.487C30.1299 43.8595 33.3856 41.1641 37.2754 41.1641C41.1844 41.1641 44.4591 43.8881 45.2939 47.5452C45.4111 48.0368 45.4781 48.5441 45.4981 49.0644C45.5033 48.942 45.5076 48.8186 45.5076 48.6952C45.5076 48.0577 45.4363 47.4392 45.2939 46.8441C44.4591 43.1872 41.1844 40.4631 37.2754 40.4631C33.3856 40.4631 30.1299 43.1585 29.2726 46.7859C29.124 47.3975 29.0458 48.0386 29.0458 48.6952C29.0458 48.8238 29.0494 48.9506 29.0554 49.0774C29.0763 48.5328 29.1475 47.9995 29.2726 47.487Z" fill="black"/>
<path fill-rule="evenodd" clip-rule="evenodd" d="M49.1535 47.4665C50.0109 43.8391 53.2667 41.1437 57.1564 41.1437C61.0653 41.1437 64.3401 43.8677 65.1749 47.5248C65.2922 48.0164 65.359 48.5237 65.379 49.044C65.3842 48.9215 65.3886 48.7982 65.3886 48.6748C65.3886 48.0373 65.3174 47.4187 65.1749 46.8237C64.3401 43.1668 61.0653 40.4426 57.1564 40.4426C53.2667 40.4426 50.0109 43.138 49.1535 46.7655C49.0051 47.3771 48.9269 48.0182 48.9269 48.6748C48.9269 48.8034 48.9303 48.9302 48.9364 49.057C48.9573 48.5123 49.0285 47.9791 49.1535 47.4665Z" fill="black"/>
<path fill-rule="evenodd" clip-rule="evenodd" d="M54.8466 64.8103C53.3369 64.8641 51.3946 64.217 49.8849 64.217C48.4239 64.217 48.2232 65.0223 47.431 65.0752C46.6388 65.0223 46.4373 64.217 44.977 64.217C43.4665 64.217 41.5251 64.8641 40.0154 64.8103L41.0394 65.3497L47.4153 66.465V66.4702L47.431 66.4677L47.4458 66.4702L47.4466 66.465L53.8216 65.3497L54.8466 64.8103Z" fill="#E05934"/>
<path fill-rule="evenodd" clip-rule="evenodd" d="M73.3273 97.2241C78.6703 93.8572 77.9599 88.3778 76.9504 85.2029C76.5379 83.9043 75.7474 82.7733 74.7866 81.8065C73.6852 80.6963 73.0033 79.1719 73.0033 77.4841C73.0033 76.7084 73.1536 75.9683 73.416 75.2847C72.8713 74.7774 72.2485 74.2979 71.5527 73.8601L71.1253 73.5917L70.6224 73.3268C70.0847 73.0445 69.5452 72.8021 69.0127 72.6023C64.7729 77.2896 57.3747 80.3967 48.9496 80.3967H47.3349C38.9098 80.3967 31.5116 77.2896 27.2718 72.6023C26.7393 72.8021 26.1998 73.0445 25.6621 73.3268L25.1583 73.5917L24.7318 73.8601C24.036 74.2979 23.4124 74.7774 22.8677 75.2847C23.1309 75.9683 23.2803 76.7084 23.2803 77.4841C23.2803 79.6957 22.1093 81.6293 20.3564 82.7125C20.3564 82.7125 15.0829 92.2624 22.9572 97.2241C19.3549 101.649 18.1136 107.037 18.3811 116.25H18.3742V119.741H18.5401H18.6703H20.1375C21.1156 119.741 20.6223 119.171 20.1696 118.666C19.6164 118.047 19.8769 117.622 20.366 117.622H21.8322H21.9625H23.4297C23.9187 117.622 24.1794 118.047 23.6251 118.666C23.1726 119.171 22.6801 119.741 23.6572 119.741H25.1244H25.2547H26.7218C27.6991 119.741 27.2066 119.171 26.754 118.666C26.1998 118.047 26.4604 117.622 26.9495 117.622H28.4166H28.5469H30.014C30.5022 117.622 30.7637 118.047 30.2095 118.666C29.7569 119.171 29.2635 119.741 30.2416 119.741H31.7087H31.8391H33.3054C34.2834 119.741 33.7909 119.171 33.3384 118.666C32.7841 118.047 33.0447 117.622 33.5338 117.622H35.0009H35.1313H36.5975C37.0865 117.622 37.3471 118.047 36.793 118.666C36.3412 119.171 35.8479 119.741 36.826 119.741H38.2923H38.4234H39.8897C40.8677 119.741 40.3743 119.171 39.9227 118.666C39.3684 118.047 39.6291 117.622 40.1181 117.622H41.6495H41.7147H43.2469C43.736 117.622 43.9966 118.047 43.4424 118.666C42.9907 119.171 42.4974 119.741 43.4755 119.741H44.9418H45.072H46.5392C47.5172 119.741 47.0238 119.171 46.5713 118.666C46.0179 118.047 46.2786 117.622 46.7676 117.622H48.2339H48.3642H49.8314C50.3204 117.622 50.5809 118.047 50.0268 118.666C49.5742 119.171 49.0817 119.741 50.0598 119.741H51.5261H51.6563H53.1235C54.1007 119.741 53.6082 119.171 53.1556 118.666C52.6015 118.047 52.8629 117.622 53.3511 117.622H54.8182H54.9485H56.4157C56.9039 117.622 57.1653 118.047 56.6111 118.666C56.1585 119.171 55.666 119.741 56.6432 119.741H58.1104H58.2407H59.707C60.6851 119.741 60.1926 119.171 59.7399 118.666C59.1858 118.047 59.4463 117.622 59.9354 117.622H61.4026H61.5328H62.9991C63.4882 117.622 63.7488 118.047 63.1954 118.666C62.7429 119.171 62.2495 119.741 63.2275 119.741H64.6947H64.825H66.2913C67.2694 119.741 66.776 119.171 66.3244 118.666C65.7701 118.047 66.0307 117.622 66.5198 117.622H67.8557H68.1172H69.4532C69.9422 117.622 70.2029 118.047 69.6486 118.666C69.1961 119.171 68.7036 119.741 69.6816 119.741H71.1479H71.2781H72.7453C73.7234 119.741 73.2301 119.171 72.7775 118.666C72.2242 118.047 72.4847 117.622 72.9738 117.622H74.44H74.5704H76.0375C76.5265 117.622 76.7872 118.047 76.2329 118.666C75.7804 119.171 75.2879 119.741 76.2651 119.741H77.7322H77.8626H77.8651V117.378C78.2699 107.569 77.0747 101.828 73.3273 97.2241Z" fill="white"/>
<path fill-rule="evenodd" clip-rule="evenodd" d="M73.3273 97.2241C78.6703 93.8572 77.9599 88.3778 76.9504 85.2029C76.5379 83.9043 75.7474 82.7733 74.7866 81.8065C73.6852 80.6963 73.0033 79.1719 73.0033 77.4841C73.0033 76.7084 73.1536 75.9683 73.4159 75.2847C72.8713 74.7774 72.2485 74.2979 71.5527 73.8601L71.1253 73.5917L70.6224 73.3268C70.0847 73.0445 69.5452 72.8021 69.0127 72.6023C64.7729 77.2896 57.3747 80.3967 48.9496 80.3967H47.3349C38.9098 80.3967 31.5116 77.2896 27.2718 72.6023C26.7393 72.8021 26.1998 73.0445 25.6621 73.3268L25.1583 73.5917L24.7318 73.8601C24.036 74.2979 23.4124 74.7774 22.8677 75.2847C23.1309 75.9683 23.2803 76.7084 23.2803 77.4841C23.2803 79.6957 22.1093 81.6293 20.3564 82.7125C20.3564 82.7125 15.0829 92.2624 22.9572 97.2241C19.3549 101.649 18.1136 107.037 18.3811 116.25H18.3742V119.741H18.5401H18.6703H20.1375C21.1156 119.741 20.6223 119.171 20.1696 118.666C19.6164 118.047 19.8769 117.622 20.366 117.622H21.8322H21.9625H23.4297C23.9187 117.622 24.1794 118.047 23.6251 118.666C23.1726 119.171 22.6801 119.741 23.6572 119.741H25.1244H25.2547H26.7218C27.6991 119.741 27.2066 119.171 26.754 118.666C26.1998 118.047 26.4604 117.622 26.9495 117.622H28.4166H28.5469H30.014C30.5022 117.622 30.7637 118.047 30.2095 118.666C29.7569 119.171 29.2635 119.741 30.2416 119.741H31.7087H31.8391H33.3054C34.2834 119.741 33.7909 119.171 33.3384 118.666C32.7841 118.047 33.0447 117.622 33.5338 117.622H35.0009H35.1313H36.5975C37.0866 117.622 37.3471 118.047 36.793 118.666C36.3412 119.171 35.8479 119.741 36.826 119.741H38.2923H38.4234H39.8897C40.8677 119.741 40.3743 119.171 39.9227 118.666C39.3684 118.047 39.6291 117.622 40.1181 117.622H41.6495H41.7147H43.2469C43.736 117.622 43.9966 118.047 43.4424 118.666C42.9907 119.171 42.4974 119.741 43.4755 119.741H44.9418H45.072H46.5392C47.5172 119.741 47.0238 119.171 46.5713 118.666C46.0179 118.047 46.2786 117.622 46.7676 117.622H48.2339H48.3642H49.8314C50.3204 117.622 50.5809 118.047 50.0268 118.666C49.5742 119.171 49.0817 119.741 50.0598 119.741H51.5261H51.6563H53.1235C54.1007 119.741 53.6082 119.171 53.1556 118.666C52.6015 118.047 52.8629 117.622 53.3511 117.622H54.8182H54.9485H56.4157C56.9039 117.622 57.1653 118.047 56.6111 118.666C56.1585 119.171 55.666 119.741 56.6432 119.741H58.1104H58.2407H59.707C60.6851 119.741 60.1926 119.171 59.7399 118.666C59.1858 118.047 59.4463 117.622 59.9354 117.622H61.4026H61.5328H62.9991C63.4882 117.622 63.7488 118.047 63.1954 118.666C62.7429 119.171 62.2495 119.741 63.2275 119.741H64.6947H64.825H66.2913C67.2694 119.741 66.776 119.171 66.3244 118.666C65.7701 118.047 66.0307 117.622 66.5198 117.622H67.8557H68.1172H69.4532C69.9422 117.622 70.2029 118.047 69.6486 118.666C69.1961 119.171 68.7036 119.741 69.6816 119.741H71.1479H71.2781H72.7453C73.7234 119.741 73.2301 119.171 72.7775 118.666C72.2242 118.047 72.4847 117.622 72.9738 117.622H74.44H74.5704H76.0375C76.5265 117.622 76.7872 118.047 76.2329 118.666C75.7804 119.171 75.2879 119.741 76.2651 119.741H77.7322H77.8626H77.8651V117.378C78.2699 107.569 77.0747 101.828 73.3273 97.2241Z" stroke="#020202" stroke-width="0.533678"/>
<path fill-rule="evenodd" clip-rule="evenodd" d="M25.5608 78.2394C24.0867 78.2394 22.6691 77.7878 21.4616 76.9347L21.1932 76.7454L21.386 76.4804C22.1661 75.4086 23.2684 74.4078 24.5749 73.5861L25.0013 73.3177L25.526 73.0406C26.2496 72.6601 26.9776 72.3501 27.6898 72.1181L28.1971 71.9531L28.5089 71.8783L29.1561 71.7107L29.9058 71.6038C30.1638 71.5683 30.4217 71.5431 30.6728 71.5292L30.7388 71.5256L30.8013 71.5483C31.2895 71.7255 31.7994 71.8914 32.3292 72.0478L32.6099 72.1294L32.5569 72.416C31.9349 75.7907 28.9928 78.2394 25.5608 78.2394Z" fill="white"/>
<path fill-rule="evenodd" clip-rule="evenodd" d="M30.7871 71.1987L30.6543 71.2065C30.3937 71.2204 30.1262 71.2474 29.8612 71.2839L29.1481 71.3837L29.1115 71.389L29.076 71.3976L28.421 71.5671L28.1491 71.6305L28.1231 71.6365L28.097 71.6453L27.5897 71.8103C26.8609 72.0474 26.1164 72.3653 25.3755 72.7544L24.8726 73.0185L24.85 73.0307L24.8291 73.0437L24.4017 73.3121C23.0615 74.1556 21.9279 75.1858 21.1243 76.2899L20.7386 76.8206L21.2747 77.1994C22.5376 78.0914 24.0196 78.5631 25.5605 78.5631C29.1489 78.5631 32.2248 76.0032 32.8745 72.4757L32.9805 71.9014L32.4211 71.7373C31.8895 71.581 31.3822 71.415 30.9123 71.2439L30.7871 71.1987ZM30.6907 71.8519C31.185 72.0326 31.7018 72.2003 32.2387 72.3584C31.6559 75.5193 28.891 77.916 25.5605 77.916C24.103 77.916 22.7548 77.453 21.6481 76.6712C22.3943 75.6454 23.4437 74.6802 24.7466 73.8602L25.1739 73.5918L25.6769 73.3269C26.3848 72.9551 27.0954 72.6519 27.7904 72.4253L28.2968 72.2602L28.5826 72.1933L29.2376 72.0248L29.9507 71.9249C30.2 71.8901 30.4484 71.8658 30.6907 71.8519Z" fill="#020202"/>
<path fill-rule="evenodd" clip-rule="evenodd" d="M23.781 75.9205C23.781 75.9205 23.8999 75.9396 24.1093 75.9734C24.3117 75.9847 24.5888 75.9916 24.9328 75.9639C25.2716 75.9396 25.6642 75.8857 26.0742 75.8032C26.4825 75.718 26.915 75.6137 27.3207 75.4609C27.735 75.3228 28.1077 75.1221 28.4404 74.9197C28.7636 74.7035 29.0302 74.4628 29.2161 74.211C29.3316 74.0954 29.3724 73.9556 29.4497 73.8444C29.5254 73.7306 29.561 73.6185 29.594 73.5247C29.6704 73.3327 29.7138 73.2224 29.7138 73.2224L29.8215 73.225C29.8215 73.225 29.8442 73.3422 29.8649 73.5638C29.8772 73.6749 29.8928 73.8131 29.8554 73.966C29.8259 74.118 29.8181 74.3099 29.7251 74.4837C29.6513 74.6696 29.5601 74.8703 29.4133 75.0448C29.2882 75.2428 29.1101 75.401 28.9234 75.5643C28.7383 75.7258 28.522 75.8587 28.2988 75.9786C28.0712 76.0872 27.8427 76.2071 27.5978 76.2696C27.1184 76.4346 26.6205 76.5033 26.1576 76.5276C25.6928 76.5415 25.2594 76.5076 24.8963 76.4234C24.5367 76.3496 24.2396 76.2218 24.0476 76.1176C23.8731 76.0003 23.781 75.9205 23.781 75.9205Z" fill="#D1D1D1"/>
<path fill-rule="evenodd" clip-rule="evenodd" d="M70.2858 78.2394C66.8538 78.2394 63.9116 75.7907 63.2898 72.416L63.2367 72.1294L63.5173 72.0478C64.0463 71.8914 64.5571 71.7255 65.0452 71.5483L65.1078 71.5256L65.1738 71.5292C65.4248 71.5431 65.6829 71.5683 65.9408 71.6038L66.654 71.7038L67.3445 71.8801L67.6234 71.9453L68.1558 72.1172C68.8682 72.3501 69.5969 72.6601 70.3205 73.0406L70.8235 73.3055L71.2717 73.5861C72.3367 74.2567 73.247 75.0254 73.9767 75.8715C74.1704 76.0956 74.2512 76.391 74.199 76.6802C74.1478 76.9677 73.9706 77.2136 73.7144 77.3551C72.6685 77.9337 71.482 78.2394 70.2858 78.2394Z" fill="white"/>
<path fill-rule="evenodd" clip-rule="evenodd" d="M65.0594 71.1987L64.9343 71.2439C64.4644 71.415 63.957 71.581 63.4254 71.7373L62.8661 71.9014L62.972 72.4757C63.6218 76.0032 66.6976 78.5631 70.2861 78.5631C71.5369 78.5631 72.7764 78.2435 73.8709 77.6389C74.2132 77.4495 74.4495 77.1212 74.5181 76.7372C74.5868 76.3506 74.479 75.9581 74.2219 75.6601C73.4705 74.7897 72.5358 73.9993 71.4448 73.3121L71.0174 73.0437L70.9966 73.0307L70.974 73.0185L70.4711 72.7544C69.7309 72.3653 68.9857 72.0474 68.2569 71.8103L67.7496 71.6453L67.7235 71.6365L67.6975 71.6305L67.4117 71.5635L66.7706 71.3976L66.735 71.389L66.6985 71.3837L65.9854 71.2839C65.7204 71.2474 65.4529 71.2204 65.1923 71.2065L65.0594 71.1987ZM65.1558 71.8519C65.3981 71.8658 65.6466 71.8901 65.8959 71.9249L66.6091 72.0248L67.264 72.1933L67.5498 72.2602L68.0562 72.4253C68.7511 72.6519 69.4617 72.9551 70.1697 73.3269L70.6726 73.5918L71.0999 73.8602C72.151 74.5213 73.0371 75.277 73.7319 76.0831C74.0012 76.3949 73.9187 76.8727 73.5582 77.0726C72.5871 77.6085 71.4735 77.916 70.2861 77.916C66.9557 77.916 64.1908 75.5193 63.6079 72.3584C64.1447 72.2003 64.6615 72.0326 65.1558 71.8519Z" fill="#020202"/>
<path fill-rule="evenodd" clip-rule="evenodd" d="M71.7276 75.9205C71.7276 75.9205 71.6356 76.0003 71.461 76.1176C71.269 76.2218 70.9719 76.3496 70.6123 76.4234C70.2492 76.5076 69.8157 76.5415 69.351 76.5276C68.888 76.5033 68.3903 76.4346 67.9108 76.2696C67.6658 76.2071 67.4374 76.0872 67.2098 75.9786C66.9865 75.8587 66.7703 75.7258 66.5853 75.5643C66.3985 75.401 66.2204 75.2428 66.0953 75.0448C65.9485 74.8703 65.8573 74.6696 65.7835 74.4837C65.6906 74.3099 65.6827 74.118 65.6531 73.966C65.6158 73.8131 65.6315 73.6749 65.6436 73.5638C65.6645 73.3422 65.687 73.225 65.687 73.225L65.7947 73.2224C65.7947 73.2224 65.8382 73.3327 65.9147 73.5247C65.9476 73.6185 65.9833 73.7306 66.0588 73.8444C66.1361 73.9556 66.177 74.0954 66.2924 74.211C66.4783 74.4628 66.7451 74.7035 67.0682 74.9197C67.4009 75.1221 67.7735 75.3228 68.1878 75.4609C68.5935 75.6137 69.0261 75.718 69.4344 75.8032C69.8444 75.8857 70.237 75.9396 70.5758 75.9639C70.9198 75.9916 71.1969 75.9847 71.3993 75.9734C71.6086 75.9396 71.7276 75.9205 71.7276 75.9205Z" fill="#D1D1D1"/>
<path d="M22.957 97.2241C27.1785 98.4107 58.0998 100.352 73.3271 97.2241" stroke="#020202" stroke-width="0.533678"/>
<path fill-rule="evenodd" clip-rule="evenodd" d="M19.5175 117.942C19.5175 117.942 19.58 117.079 19.7138 115.781C19.8468 114.484 20.0595 112.757 20.3836 111.05C20.6945 109.341 21.1506 107.653 21.6552 106.449C21.782 106.149 21.9184 105.882 22.034 105.643C22.1704 105.418 22.2894 105.22 22.3875 105.058C22.6203 104.757 22.7533 104.586 22.7533 104.586C22.7533 104.586 22.6281 104.762 22.411 105.072C22.3206 105.238 22.212 105.44 22.087 105.671C21.9836 105.913 21.8611 106.183 21.749 106.486C21.3052 107.702 20.9316 109.393 20.7023 111.102C20.4609 112.809 20.3297 114.533 20.2584 115.824C20.1855 117.114 20.1638 117.981 20.1638 117.981L19.5175 117.942Z" fill="#020202"/>
<path fill-rule="evenodd" clip-rule="evenodd" d="M23.5112 117.826C23.5112 117.826 23.5659 115.658 23.7457 113.49C23.8352 112.407 23.9707 111.328 24.1106 110.526C24.2479 109.724 24.3738 109.197 24.3738 109.197C24.3738 109.197 24.287 109.732 24.2114 110.54C24.1314 111.347 24.0776 112.426 24.0689 113.505C24.0516 115.665 24.1584 117.826 24.1584 117.826H23.5112Z" fill="#020202"/>
<path fill-rule="evenodd" clip-rule="evenodd" d="M26.144 117.925C26.144 117.925 26.1526 117.748 26.1692 117.437C26.1917 117.118 26.2282 116.671 26.282 116.141C26.3906 115.081 26.5358 113.67 26.6799 112.258C26.8111 110.847 26.9101 109.432 26.9083 108.37C26.9205 107.306 26.7911 106.605 26.7911 106.605C26.7911 106.605 26.9605 107.299 27.01 108.368C27.0726 109.433 27.0535 110.858 27.0031 112.279C26.9388 113.696 26.8745 115.115 26.8267 116.179C26.8111 116.704 26.7972 117.144 26.7885 117.45C26.7902 117.76 26.7911 117.937 26.7911 117.937L26.144 117.925Z" fill="#020202"/>
<path fill-rule="evenodd" clip-rule="evenodd" d="M30.2057 118.118C30.2057 118.118 30.2414 117.226 30.2952 115.888C30.3577 114.554 30.4429 112.779 30.4629 111.003C30.4846 109.226 30.4159 107.449 30.2275 106.13C30.1319 105.471 29.9982 104.933 29.8861 104.559C29.7462 104.197 29.6664 103.989 29.6664 103.989C29.6664 103.989 29.7558 104.193 29.913 104.55C30.0416 104.92 30.2005 105.454 30.3273 106.114C30.5775 107.43 30.727 109.215 30.7868 110.998C30.8477 112.782 30.8425 114.566 30.8407 115.901C30.8486 117.234 30.8529 118.122 30.8529 118.122L30.2057 118.118Z" fill="#020202"/>
<path fill-rule="evenodd" clip-rule="evenodd" d="M32.7338 118.004C32.7338 118.004 32.8008 115.39 33.057 112.792C33.183 111.492 33.3585 110.197 33.5487 109.236C33.731 108.274 33.9205 107.65 33.9205 107.65C33.9205 107.65 33.7701 108.285 33.6485 109.253C33.5192 110.219 33.4253 111.516 33.3801 112.813C33.2855 115.412 33.381 118.006 33.381 118.006L32.7338 118.004Z" fill="#020202"/>
<path fill-rule="evenodd" clip-rule="evenodd" d="M76.1502 118.041C76.1502 118.041 76.178 117.079 76.2206 115.636C76.2511 114.198 76.2745 112.278 76.1111 110.368C76.0747 109.89 76.0261 109.414 75.9609 108.947C75.9123 108.478 75.8159 108.024 75.7437 107.58C75.6491 107.143 75.557 106.718 75.4457 106.322C75.3164 105.933 75.2295 105.55 75.0775 105.224C74.9402 104.892 74.8255 104.582 74.6709 104.334C74.5241 104.082 74.4234 103.843 74.2835 103.685C74.0299 103.348 73.8848 103.156 73.8848 103.156C73.8848 103.156 74.0377 103.343 74.3061 103.668C74.4537 103.822 74.5641 104.056 74.723 104.304C74.8898 104.548 75.0184 104.856 75.1713 105.185C75.338 105.508 75.4414 105.89 75.5891 106.278C75.7186 106.673 75.8297 107.099 75.9435 107.537C76.0347 107.981 76.152 108.436 76.2215 108.907C76.3066 109.376 76.3761 109.855 76.4334 110.335C76.6784 112.255 76.7366 114.191 76.767 115.637C76.7852 117.082 76.7974 118.045 76.7974 118.045L76.1502 118.041Z" fill="#020202"/>
<path fill-rule="evenodd" clip-rule="evenodd" d="M72.0512 117.822C72.0512 117.822 72.0685 117.101 72.1667 116.022C72.2692 114.953 72.4047 113.527 72.5411 112.1C72.6662 110.677 72.7261 109.249 72.7009 108.177C72.68 107.104 72.5905 106.393 72.5905 106.393C72.5905 106.393 72.72 107.098 72.8017 108.173C72.8885 109.245 72.9085 110.684 72.8642 112.118C72.8086 113.55 72.7539 114.98 72.7123 116.055C72.6757 117.119 72.6983 117.831 72.6983 117.831L72.0512 117.822Z" fill="#020202"/>
<path fill-rule="evenodd" clip-rule="evenodd" d="M69.5704 118.051L69.7858 109.736L70.2175 118.033L69.5704 118.051Z" fill="#020202"/>
<path fill-rule="evenodd" clip-rule="evenodd" d="M65.7814 117.963C65.7814 117.963 65.7971 117.142 65.8196 115.909C65.8448 114.675 65.8883 113.03 65.9708 111.387C66.0525 109.743 66.175 108.101 66.3382 106.877C66.4877 105.649 66.7118 104.856 66.7118 104.856C66.7118 104.856 66.5276 105.659 66.439 106.887C66.3357 108.114 66.2957 109.755 66.2948 111.396C66.293 113.036 66.3305 114.676 66.366 115.907C66.4034 117.139 66.4286 117.961 66.4286 117.961L65.7814 117.963Z" fill="#020202"/>
<path fill-rule="evenodd" clip-rule="evenodd" d="M63.1928 118.119C63.1928 118.119 63.2214 117.224 63.3065 115.895C63.3856 114.565 63.4976 112.795 63.5585 111.022C63.6201 109.251 63.628 107.477 63.535 106.15C63.4863 105.488 63.4081 104.939 63.3396 104.557C63.2466 104.181 63.1928 103.966 63.1928 103.966C63.1928 103.966 63.2562 104.178 63.3674 104.551C63.4533 104.931 63.5558 105.478 63.6358 106.141C63.7895 107.468 63.8624 109.248 63.8816 111.026C63.9024 112.805 63.8712 114.584 63.8529 115.915C63.8278 117.247 63.8399 118.126 63.8399 118.126L63.1928 118.119Z" fill="#020202"/>
<path fill-rule="evenodd" clip-rule="evenodd" d="M59.1882 118.001C59.1882 118.001 59.2716 115.481 59.4566 112.97C59.5486 111.714 59.6616 110.46 59.7841 109.524C59.9004 108.585 60.0377 107.97 60.0377 107.97C60.0377 107.97 59.9404 108.592 59.8849 109.533C59.8223 110.472 59.7911 111.728 59.7797 112.983C59.7572 115.496 59.8354 118.003 59.8354 118.003L59.1882 118.001Z" fill="#020202"/>
<path fill-rule="evenodd" clip-rule="evenodd" d="M56.559 117.957C56.559 117.957 56.5695 117.737 56.5869 117.353C56.6112 116.97 56.6442 116.422 56.685 115.764C56.7676 114.456 56.8665 112.711 56.8944 110.965C56.9247 109.221 56.8831 107.471 56.712 106.172C56.6607 105.85 56.6363 105.548 56.5738 105.29C56.5139 105.031 56.4774 104.801 56.4209 104.618C56.3029 104.255 56.2351 104.046 56.2351 104.046C56.2351 104.046 56.3124 104.252 56.447 104.611C56.5131 104.791 56.5599 105.019 56.632 105.277C56.7076 105.535 56.7449 105.835 56.8118 106.157C57.0438 107.455 57.168 109.21 57.2183 110.963C57.2705 112.717 57.2531 114.471 57.2306 115.786C57.221 116.441 57.2122 116.986 57.2062 117.367C57.2062 117.748 57.2062 117.967 57.2062 117.967L56.559 117.957Z" fill="#020202"/>
<path fill-rule="evenodd" clip-rule="evenodd" d="M52.6353 117.962C52.6353 117.962 52.6527 117.373 52.6796 116.489C52.7074 115.604 52.7482 114.421 52.8359 113.241C52.9202 112.061 53.0514 110.883 53.2181 110.011C53.3754 109.137 53.5656 108.577 53.5656 108.577C53.5656 108.577 53.4136 109.148 53.3181 110.026C53.212 110.902 53.1626 112.078 53.1591 113.253C53.153 114.429 53.1929 115.605 53.2251 116.487C53.2599 117.371 53.2824 117.961 53.2824 117.961L52.6353 117.962Z" fill="#020202"/>
<path fill-rule="evenodd" clip-rule="evenodd" d="M50.0059 117.999C50.0059 117.999 50.0477 117.06 50.1111 115.652C50.1797 114.248 50.2683 112.378 50.2934 110.506C50.317 108.635 50.27 106.762 50.098 105.37C50.0155 104.673 49.8852 104.103 49.7679 103.71C49.6229 103.33 49.5204 103.116 49.5204 103.116C49.5204 103.116 49.6316 103.323 49.794 103.701C49.9286 104.09 50.085 104.658 50.1979 105.355C50.4316 106.746 50.5593 108.625 50.6175 110.504C50.6722 112.381 50.6652 114.26 50.6566 115.667C50.6549 117.07 50.6531 118.005 50.6531 118.005L50.0059 117.999Z" fill="#020202"/>
<path fill-rule="evenodd" clip-rule="evenodd" d="M46.0016 117.911C46.0016 117.911 46.0095 117.711 46.0407 117.349C46.0754 116.98 46.1363 116.472 46.2197 115.867C46.3899 114.659 46.6175 113.049 46.8451 111.438C47.0597 109.828 47.2377 108.213 47.2829 106.997C47.3072 106.39 47.289 105.883 47.2603 105.528C47.2056 105.178 47.1743 104.977 47.1743 104.977C47.1743 104.977 47.216 105.177 47.2881 105.525C47.3342 105.879 47.3785 106.387 47.3837 106.998C47.3993 108.221 47.3011 109.85 47.1674 111.472C47.0197 113.092 46.8729 114.712 46.7626 115.926C46.7087 116.532 46.6749 117.036 46.6592 117.376C46.6461 117.725 46.6488 117.931 46.6488 117.931L46.0016 117.911Z" fill="#020202"/>
<path fill-rule="evenodd" clip-rule="evenodd" d="M43.2914 118.125C43.2914 118.125 43.3 117.27 43.313 115.987C43.3243 114.701 43.3478 112.987 43.4086 111.271C43.4685 109.557 43.5658 107.844 43.7118 106.565C43.8412 105.283 44.06 104.451 44.06 104.451C44.06 104.451 43.8811 105.292 43.8125 106.574C43.7273 107.854 43.7109 109.565 43.7326 111.276C43.7525 112.987 43.8099 114.696 43.8594 115.979C43.9063 117.265 43.9384 118.121 43.9384 118.121L43.2914 118.125Z" fill="#020202"/>
<path fill-rule="evenodd" clip-rule="evenodd" d="M39.3678 117.838C39.3678 117.838 39.4382 115.263 39.7812 112.72C39.9498 111.449 40.1782 110.183 40.4232 109.253C40.6612 108.321 40.9052 107.728 40.9052 107.728C40.9052 107.728 40.6994 108.335 40.5222 109.276C40.3371 110.214 40.1904 111.482 40.1035 112.752C39.9237 115.299 40.0149 117.842 40.0149 117.842L39.3678 117.838Z" fill="#020202"/>
<path fill-rule="evenodd" clip-rule="evenodd" d="M36.7387 118.054C36.7387 118.054 36.7414 117.838 36.7144 117.496C36.6849 117.137 36.644 116.623 36.5937 116.006C36.4876 114.765 36.3513 113.105 36.2792 111.442C36.2062 109.779 36.2149 108.11 36.3278 106.865C36.3748 106.244 36.4617 105.728 36.5328 105.372C36.6119 105.018 36.658 104.815 36.658 104.815C36.658 104.815 36.6223 105.02 36.5598 105.377C36.5068 105.736 36.4451 106.252 36.4287 106.872C36.3765 108.114 36.4494 109.771 36.6024 111.42C36.7544 113.07 36.9707 114.713 37.1366 115.947C37.2173 116.57 37.2851 117.086 37.3321 117.45C37.3789 117.831 37.3859 118.03 37.3859 118.03L36.7387 118.054Z" fill="#020202"/>
<path fill-rule="evenodd" clip-rule="evenodd" d="M33.8729 82.2104C33.8729 82.2104 33.9667 82.2852 34.1422 82.4242C34.3159 82.5779 34.5834 82.7343 34.9213 82.9463C35.2749 83.1495 35.7153 83.3762 36.2408 83.5986C36.7698 83.8149 37.3735 84.0407 38.051 84.2388C38.72 84.4612 39.4627 84.6531 40.2505 84.8399C41.0409 85.0214 41.8809 85.1847 42.7556 85.3211C43.6303 85.4557 44.5364 85.586 45.4615 85.6859C46.3857 85.7867 47.3282 85.8562 48.2707 85.9109C49.214 85.9665 50.1582 85.9857 51.086 85.9796C52.0145 85.9717 52.9284 85.9543 53.8083 85.8883C55.5682 85.7719 57.2064 85.566 58.5745 85.2394C59.9444 84.9241 61.0494 84.5063 61.779 84.1172C62.1395 83.9174 62.4201 83.7488 62.5982 83.6133C62.7841 83.4856 62.8822 83.417 62.8822 83.417C62.8822 83.417 62.7996 83.5039 62.6433 83.6663C62.4957 83.8401 62.248 84.0624 61.9076 84.3187C61.2317 84.833 60.1555 85.4453 58.7665 85.9144C58.0707 86.1385 57.3072 86.3548 56.488 86.5189C55.6681 86.6779 54.7977 86.823 53.8926 86.9064C52.0814 87.0948 50.1417 87.1 48.2108 86.9968C47.2448 86.9498 46.2824 86.8516 45.339 86.7344C44.3948 86.6136 43.468 86.4764 42.5802 86.2879C41.6915 86.1089 40.8386 85.9023 40.0368 85.6798C39.2359 85.4523 38.4828 85.2212 37.8009 84.9606C37.1208 84.7009 36.5127 84.416 35.982 84.1485C35.4538 83.8731 35.0108 83.5977 34.6573 83.3536C34.3089 83.0895 34.0353 82.8706 33.8886 82.7091C33.7295 82.551 33.6444 82.4667 33.6444 82.4667L33.8729 82.2104Z" fill="#D1D1D1"/>
<path fill-rule="evenodd" clip-rule="evenodd" d="M38.0566 94.771C38.0566 94.771 39.1304 94.256 40.8251 93.8026C41.672 93.5732 42.6701 93.3413 43.7577 93.1858C44.8425 93.0172 46.0126 92.9122 47.1853 92.8418C48.3589 92.7871 49.5384 92.7819 50.6399 92.8626C51.7422 92.9426 52.7672 93.0799 53.6298 93.2831C54.4923 93.4724 55.1951 93.6983 55.6693 93.8928C56.1411 94.091 56.4104 94.2038 56.4104 94.2038C56.4104 94.2038 56.1228 94.1569 55.6198 94.0753C55.3732 94.0214 55.0682 93.9849 54.7173 93.9528C54.3698 93.9085 53.9798 93.8599 53.5481 93.846C53.1199 93.813 52.656 93.786 52.1635 93.7878C51.6736 93.773 51.155 93.786 50.6199 93.793C49.5498 93.8373 48.4092 93.8851 47.2721 94.0162C46.1317 94.1048 44.9989 94.2794 43.9322 94.4123C42.8664 94.5574 41.8674 94.679 41.004 94.7615C39.2815 94.9474 38.0906 94.9317 38.0906 94.9317L38.0566 94.771Z" fill="#D1D1D1"/>
<path fill-rule="evenodd" clip-rule="evenodd" d="M47.5387 95.6332C47.5387 95.6332 47.7219 95.6063 48.0416 95.5593C48.363 95.5254 48.8321 95.5002 49.3863 95.5002C50.4973 95.5063 51.9601 95.647 53.4038 95.7661C54.1256 95.8347 54.8448 95.8747 55.5163 95.919C56.1886 95.965 56.815 96.0015 57.3552 96.0258C57.8956 96.0536 58.3524 96.0797 58.6747 96.0866C58.997 96.0953 59.1881 96.1188 59.1881 96.1188C59.1881 96.1188 59.0187 96.2004 58.7095 96.3116C58.402 96.4349 57.9477 96.5513 57.3934 96.653C56.8393 96.7424 56.1834 96.8076 55.485 96.7937C54.7858 96.7937 54.0466 96.719 53.3135 96.6338C51.8463 96.4488 50.4148 96.1544 49.342 95.945C48.2744 95.7304 47.5387 95.6332 47.5387 95.6332Z" fill="#D1D1D1"/>
<path fill-rule="evenodd" clip-rule="evenodd" d="M45.2735 83.7408C45.2735 83.7408 45.5202 83.7112 45.9484 83.7008C46.3706 83.6652 46.9734 83.6147 47.697 83.554C49.1364 83.4072 51.0561 83.2604 52.9506 82.9363C53.9035 82.8009 54.8364 82.5793 55.7164 82.3934C56.5885 82.1798 57.3946 81.9461 58.0652 81.695C58.404 81.5778 58.7158 81.4701 58.979 81.3459C59.244 81.2269 59.4854 81.1366 59.6626 81.0288C60.0361 80.836 60.2499 80.7266 60.2499 80.7266L60.3914 80.9307C60.3914 80.9307 60.1925 81.0775 59.8442 81.3346C59.6704 81.4692 59.4377 81.5882 59.177 81.7437C58.9191 81.9044 58.6133 82.0521 58.2789 82.2136C57.6057 82.5324 56.7882 82.8174 55.9066 83.0979C55.4619 83.2213 55.0049 83.369 54.5289 83.4627C54.0572 83.574 53.5743 83.6729 53.0895 83.7572C52.1193 83.9179 51.1438 84.0552 50.2239 84.1099C49.3049 84.1881 48.4406 84.1655 47.704 84.129C46.9682 84.0865 46.3532 83.9856 45.9302 83.9015C45.5107 83.8137 45.2735 83.7408 45.2735 83.7408Z" fill="#D1D1D1"/>
<path fill-rule="evenodd" clip-rule="evenodd" d="M23.3909 34.5708H29.058C29.7328 32.4504 30.1828 29.8376 30.4564 27.6503C30.4564 27.6503 31.7403 31.5722 31.6595 34.5708H36.3928C37.0677 32.4504 37.5186 29.8376 37.7913 27.6503C37.7913 27.6503 39.0751 31.5722 38.9944 34.5708H55.9182C55.8374 31.5722 57.1213 27.6503 57.1213 27.6503C57.3949 29.8376 57.8449 32.4504 58.5198 34.5708H63.2531C63.1722 31.5722 64.4562 27.6503 64.4562 27.6503C64.7298 29.8376 65.1797 32.4504 65.8546 34.5708H71.5243C74.2727 34.5708 76.5008 32.3427 76.5008 29.5943C76.5008 14.333 64.1287 1.96094 48.8674 1.96094H46.0487C30.7866 1.96094 18.4144 14.333 18.4144 29.5943C18.4144 32.3427 20.6425 34.5708 23.3909 34.5708Z" fill="#3F3F3F"/>
<path fill-rule="evenodd" clip-rule="evenodd" d="M23.3909 34.5708H29.058C29.7328 32.4504 30.1828 29.8376 30.4564 27.6503C30.4564 27.6503 31.7403 31.5722 31.6595 34.5708H36.3928C37.0677 32.4504 37.5186 29.8376 37.7913 27.6503C37.7913 27.6503 39.0751 31.5722 38.9944 34.5708H55.9182C55.8374 31.5722 57.1213 27.6503 57.1213 27.6503C57.3949 29.8376 57.8449 32.4504 58.5198 34.5708H63.2531C63.1722 31.5722 64.4562 27.6503 64.4562 27.6503C64.7298 29.8376 65.1797 32.4504 65.8546 34.5708H71.5243C74.2727 34.5708 76.5008 32.3427 76.5008 29.5943C76.5008 14.333 64.1287 1.96094 48.8674 1.96094H46.0487C30.7866 1.96094 18.4144 14.333 18.4144 29.5943C18.4144 32.3427 20.6425 34.5708 23.3909 34.5708Z" stroke="#020202" stroke-width="0.789678"/>
<path fill-rule="evenodd" clip-rule="evenodd" d="M70.048 18.5739C70.0367 18.3168 69.9949 18.0535 69.9672 17.7774C69.9324 17.5028 69.9133 17.2128 69.8594 16.9226C69.8108 16.6299 69.7613 16.3293 69.7109 16.0218C69.6579 15.7143 69.5806 15.4051 69.5146 15.0863C69.479 14.9265 69.4442 14.7657 69.4086 14.6041C69.3652 14.4443 69.3217 14.2828 69.2783 14.1212C69.1871 13.798 69.1072 13.4645 69.0012 13.1371C68.8935 12.8087 68.7849 12.4778 68.6754 12.1459C68.5661 11.8124 68.4279 11.4901 68.3037 11.1592L68.1109 10.664L67.8954 10.181C67.819 10.0143 67.7443 9.84574 67.6696 9.67809C62.7383 5.09251 56.1331 2.28418 48.8668 2.28418H46.0481C39.6436 2.28418 33.7515 4.46708 29.0669 8.12496C28.875 8.4837 28.6899 8.85288 28.4997 9.22032C28.3442 9.5339 28.207 9.86051 28.0602 10.181L27.8447 10.664L27.6519 11.1592C27.5277 11.4901 27.3896 11.8124 27.2801 12.1459C27.1707 12.4778 27.0621 12.8087 26.9544 13.1371C26.8484 13.4645 26.7685 13.798 26.6773 14.1212C26.6331 14.2828 26.5895 14.4443 26.547 14.6041C26.5114 14.7657 26.4758 14.9265 26.4411 15.0863C26.375 15.4051 26.2977 15.7143 26.2447 16.0218C26.1943 16.3293 26.1448 16.6299 26.0961 16.9226C26.0415 17.2128 26.0232 17.5028 25.9876 17.7774C25.9607 18.0535 25.919 18.3168 25.9077 18.5739C25.8816 19.0882 25.8338 19.5511 25.8408 19.9672C25.8417 20.3825 25.8225 20.7395 25.8425 21.0365C25.8686 21.6254 25.8834 21.9616 25.8834 21.9616C25.8834 21.9616 25.9511 21.6333 26.0701 21.0582C26.1205 20.7716 26.2274 20.4293 26.3255 20.0367C26.4167 19.6432 26.5756 19.2107 26.7199 18.7389C26.7902 18.5026 26.8936 18.263 26.9831 18.0137C27.0812 17.7652 27.1638 17.5055 27.2828 17.2483C27.3948 16.9904 27.5103 16.7254 27.6285 16.4553C27.7466 16.186 27.8908 15.9193 28.0237 15.6466C28.0915 15.5102 28.1592 15.3729 28.2278 15.2348C28.3042 15.1002 28.3799 14.9647 28.4571 14.8283C28.6135 14.5573 28.7578 14.2784 28.9271 14.0091C29.0973 13.7425 29.2676 13.4732 29.4396 13.2021C29.6098 12.933 29.8071 12.6775 29.9877 12.416L30.2639 12.0269L30.5602 11.6526C30.7591 11.4049 30.9467 11.1548 31.15 10.9176C31.5661 10.4512 31.9552 9.9856 32.38 9.57386C32.5893 9.36712 32.7822 9.1543 32.9906 8.96407C33.1991 8.77384 33.4024 8.58794 33.6013 8.40727C33.6994 8.3178 33.7967 8.22919 33.8923 8.14146C33.993 8.05981 34.0921 7.97903 34.1903 7.89911C34.2033 7.88781 34.2154 7.87826 34.2285 7.86784C34.006 8.47763 33.8497 9.13345 33.6638 9.77972C33.5196 10.4555 33.3494 11.127 33.2547 11.8158C33.1304 12.4951 33.0722 13.1848 33.0019 13.8537C32.9681 14.5295 32.9168 15.1861 32.9333 15.8247C32.922 16.4605 32.9681 17.0746 32.9993 17.6505C33.054 18.2273 33.1044 18.7685 33.1817 19.2636C33.2651 19.7587 33.3242 20.2096 33.4197 20.6048C33.5092 21 33.5701 21.3431 33.6534 21.622C33.8046 22.177 33.8914 22.4941 33.8914 22.4941C33.8914 22.4941 33.8871 22.1666 33.8801 21.5933C33.868 21.3093 33.8958 20.9609 33.9079 20.5657C33.914 20.1722 33.9687 19.7266 34.0104 19.2462C34.0582 18.7659 34.1424 18.2482 34.2285 17.707C34.3379 17.1667 34.4396 16.6012 34.5994 16.027C34.7323 15.4493 34.9346 14.8682 35.1162 14.2819C35.336 13.7016 35.5392 13.1153 35.8033 12.5507C36.037 11.9783 36.3401 11.4337 36.6059 10.8951C36.9186 10.3739 37.1888 9.85183 37.5189 9.38362C37.677 9.14649 37.8264 8.91109 37.9818 8.68784C38.1452 8.46981 38.305 8.25612 38.4604 8.04851C38.7576 7.62722 39.0963 7.2676 39.3778 6.92275C39.5194 6.74554 39.6619 6.597 39.7974 6.46063C39.8946 6.359 39.9841 6.26605 40.0744 6.17224C40.0276 6.36768 39.9797 6.564 39.9398 6.76553C39.8851 7.07823 39.8295 7.3979 39.7722 7.72277C39.7096 8.04417 39.674 8.37686 39.6375 8.71216C39.6045 9.04745 39.5515 9.38189 39.5358 9.72413C39.5185 10.0638 39.5003 10.406 39.482 10.75C39.4647 11.0922 39.4785 11.4388 39.4768 11.7811L39.4803 12.2935L39.5106 12.8044C39.535 13.144 39.5428 13.4802 39.5819 13.812C39.621 14.1429 39.6592 14.4713 39.6965 14.7953C39.7348 15.1175 39.8008 15.4346 39.8503 15.7447C39.9424 16.3658 40.1031 16.9547 40.223 17.5107C40.3846 18.0614 40.5053 18.5835 40.6738 19.0508C40.831 19.5207 40.9709 19.9489 41.1255 20.319C41.2741 20.6908 41.3921 21.0148 41.5164 21.2727C41.7509 21.7913 41.8855 22.0876 41.8855 22.0876C41.8855 22.0876 41.8309 21.7679 41.7353 21.2093C41.6814 20.9331 41.6493 20.5891 41.6007 20.2018C41.5459 19.8152 41.5207 19.373 41.4886 18.8962C41.4451 18.421 41.4608 17.899 41.4443 17.3587C41.4694 16.8122 41.4608 16.2442 41.5259 15.6579C41.5555 15.3652 41.5694 15.0689 41.6119 14.7701C41.6537 14.473 41.6962 14.1725 41.7387 13.8693C41.7805 13.5687 41.8534 13.2673 41.9091 12.9668L41.9985 12.516L42.1132 12.0703C42.1939 11.7742 42.2564 11.4771 42.3494 11.1878C42.4415 10.8994 42.5336 10.6136 42.6248 10.3287C42.7116 10.0455 42.8332 9.77365 42.9332 9.50263C43.0365 9.23248 43.1364 8.96668 43.2606 8.7139C43.377 8.46025 43.4908 8.21095 43.6029 7.96773C43.7211 7.72711 43.8513 7.49953 43.9695 7.27542C44.019 7.17552 44.0711 7.07911 44.1241 6.98442C44.9615 5.75442 46.3704 4.94397 47.9705 4.94397C49.6313 4.94397 51.0845 5.81783 51.908 7.12775C51.934 7.17727 51.961 7.22504 51.9862 7.27542C52.1035 7.49953 52.2346 7.72711 52.3528 7.96773C52.4639 8.21095 52.5786 8.46025 52.695 8.7139C52.8192 8.96668 52.9182 9.23248 53.0216 9.50263C53.1215 9.77365 53.244 10.0455 53.3308 10.3287C53.4221 10.6136 53.5141 10.8994 53.6062 11.1878C53.6983 11.4771 53.7617 11.7742 53.8425 12.0703L53.9571 12.516L54.0466 12.9668C54.1022 13.2673 54.1743 13.5687 54.216 13.8693C54.2594 14.1725 54.302 14.473 54.3437 14.7701C54.3862 15.0689 54.4002 15.3652 54.4288 15.6579C54.4948 16.2442 54.4861 16.8122 54.5114 17.3587C54.4939 17.899 54.5105 18.421 54.467 18.8962C54.4349 19.373 54.4097 19.8152 54.3541 20.2018C54.3064 20.5891 54.2742 20.9331 54.2195 21.2093C54.1248 21.7679 54.07 22.0876 54.07 22.0876C54.07 22.0876 54.2039 21.7913 54.4384 21.2727C54.5634 21.0148 54.6816 20.6908 54.8293 20.319C54.9848 19.9489 55.1237 19.5207 55.2809 19.0508C55.4504 18.5835 55.5702 18.0614 55.7327 17.5107C55.8516 16.9547 56.0132 16.3658 56.1053 15.7447C56.1548 15.4346 56.2208 15.1175 56.259 14.7953C56.2964 14.4713 56.3347 14.1429 56.3738 13.812C56.412 13.4802 56.4206 13.144 56.4449 12.8044L56.4754 12.2935L56.4788 11.7811C56.4762 11.4388 56.491 11.0922 56.4736 10.75C56.4554 10.406 56.4372 10.0638 56.4188 9.72413C56.4033 9.38189 56.3511 9.04745 56.3181 8.71216C56.2816 8.37686 56.246 8.04417 56.1826 7.72277C56.1261 7.3979 56.0706 7.07823 56.0158 6.76553C55.975 6.564 55.9281 6.36768 55.8812 6.17224C55.9715 6.26605 56.061 6.359 56.1583 6.46063C56.2938 6.597 56.4363 6.74554 56.5779 6.92275C56.8584 7.2676 57.1981 7.62722 57.4942 8.04851C57.6497 8.25612 57.8096 8.46981 57.9729 8.68784C58.1292 8.91109 58.2778 9.14649 58.4367 9.38362C58.7669 9.85183 59.0369 10.3739 59.3489 10.8951C59.6155 11.4337 59.9187 11.9783 60.1523 12.5507C60.4164 13.1153 60.6196 13.7016 60.8386 14.2819C61.0209 14.8682 61.2234 15.4493 61.3563 16.027C61.5161 16.6012 61.6177 17.1667 61.7263 17.707C61.8132 18.2482 61.8974 18.7659 61.9452 19.2462C61.9861 19.7266 62.0416 20.1722 62.0468 20.5657C62.059 20.9609 62.0868 21.3093 62.0755 21.5933C62.0686 22.1666 62.0642 22.4941 62.0642 22.4941C62.0642 22.4941 62.1502 22.177 62.3013 21.622C62.3856 21.3431 62.4456 21 62.535 20.6048C62.6306 20.2096 62.6906 19.7587 62.7739 19.2636C62.8504 18.7685 62.9008 18.2273 62.9554 17.6505C62.9876 17.0746 63.0336 16.4605 63.0224 15.8247C63.0379 15.1861 62.9876 14.5295 62.9537 13.8537C62.8825 13.1848 62.8251 12.4951 62.7001 11.8158C62.6063 11.127 62.436 10.4555 62.2918 9.77972C62.105 9.13345 61.9495 8.47763 61.7272 7.86784C61.7402 7.87826 61.7524 7.88781 61.7654 7.89911C61.8627 7.97903 61.9626 8.05981 62.0634 8.14146C62.1589 8.22919 62.2561 8.3178 62.3543 8.40727C62.5524 8.58794 62.7565 8.77384 62.9642 8.96407C63.1735 9.1543 63.3663 9.36712 63.5756 9.57386C64.0004 9.9856 64.3896 10.4512 64.8057 10.9176C65.008 11.1548 65.1957 11.4049 65.3955 11.6526L65.6917 12.0269L65.9671 12.416C66.1486 12.6775 66.3457 12.933 66.516 13.2021C66.6871 13.4732 66.8582 13.7425 67.0277 14.0091C67.197 14.2784 67.3413 14.5573 67.4984 14.8283C67.5749 14.9647 67.6513 15.1002 67.727 15.2348C67.7964 15.3729 67.8642 15.5102 67.932 15.6466C68.0648 15.9193 68.2081 16.186 68.3272 16.4553C68.4453 16.7254 68.5599 16.9904 68.6729 17.2483C68.7919 17.5055 68.8744 17.7652 68.9726 18.0137C69.062 18.263 69.1654 18.5026 69.2358 18.7389C69.3799 19.2107 69.5381 19.6432 69.6301 20.0367C69.7274 20.4293 69.8342 20.7716 69.8855 21.0582C70.0045 21.6333 70.0723 21.9616 70.0723 21.9616C70.0723 21.9616 70.087 21.6254 70.1122 21.0365C70.1331 20.7395 70.114 20.3825 70.1148 19.9672C70.1217 19.5511 70.074 19.0882 70.048 18.5739Z" fill="#797979"/>
<path fill-rule="evenodd" clip-rule="evenodd" d="M71.8386 53.1187C71.8386 53.1187 64.5004 54.8066 47.8567 54.8066C31.2139 54.8066 23.0032 53.1187 23.0032 53.1187C21.8064 53.1187 20.8362 52.1793 20.8362 51.0207V45.0893C20.8362 43.9305 21.8064 42.9912 23.0032 42.9912H71.8386C73.0354 42.9912 74.0054 43.9305 74.0054 45.0893V51.0207C74.0054 52.1793 73.0354 53.1187 71.8386 53.1187Z" fill="white"/>
<path d="M20.4349 51.0763C20.4349 52.4731 21.556 53.608 22.9474 53.6303L23.0082 53.6425C23.0737 53.6556 23.1714 53.6746 23.3012 53.6987C23.5607 53.7468 23.9485 53.8152 24.465 53.8973C25.4981 54.0612 27.0461 54.2792 29.1124 54.4971C33.245 54.9329 39.451 55.368 47.7578 55.368C56.065 55.368 62.0546 54.9329 65.9715 54.4969C67.93 54.2789 69.3703 54.0606 70.323 53.8964C70.7993 53.8143 71.1538 53.7456 71.3902 53.6973C71.5083 53.6732 71.5971 53.6541 71.6567 53.6409C71.6754 53.6367 71.6913 53.6332 71.7043 53.6302C73.0936 53.6054 74.212 52.4715 74.212 51.0763V44.9715C74.212 43.5608 73.0685 42.4172 71.6577 42.4172H22.9893C21.5785 42.4172 20.4349 43.5608 20.4349 44.9715V51.0763Z" stroke="#020202" stroke-width="0.789678"/>
<path fill-rule="evenodd" clip-rule="evenodd" d="M71.0516 106.991C71.5745 111.381 76.2302 114.909 81.6348 114.909C87.0405 114.909 91.698 111.381 92.2208 106.991H71.0516Z" fill="#FFE251"/>
<path fill-rule="evenodd" clip-rule="evenodd" d="M89.3477 107.092C88.8682 111.115 85.0931 114.322 80.306 114.831C80.742 114.878 81.1842 114.91 81.635 114.91C87.0406 114.91 91.4829 111.481 92.0067 107.092H89.3477Z" fill="#E7BD0A"/>
<path d="M81.3901 105.022V82.8682" stroke="#A65C2B" stroke-width="0.984615" stroke-linecap="round" stroke-linejoin="round"/>
<path d="M71.2115 105.355L81.6352 82.7698" stroke="#A65C2B" stroke-width="0.789678" stroke-linecap="round" stroke-linejoin="round"/>
<path d="M92.059 105.355L81.6353 82.7698" stroke="#A65C2B" stroke-width="0.789678" stroke-linecap="round" stroke-linejoin="round"/>
<path fill-rule="evenodd" clip-rule="evenodd" d="M81.8824 84.3452C81.3389 84.3452 80.8978 83.904 80.8978 83.3605C80.8978 82.817 81.3389 82.3759 81.8824 82.3759C82.4259 82.3759 82.867 82.817 82.867 83.3605C82.867 83.904 82.4259 84.3452 81.8824 84.3452ZM80.8978 81.3913C79.732 81.349 78.9285 82.0223 78.9285 82.3759C78.9285 83.7142 79.732 84.3874 80.8978 84.3452L95.667 83.3605V82.3759L80.8978 81.3913Z" fill="#7F5A40"/>
<path fill-rule="evenodd" clip-rule="evenodd" d="M119.79 106.991C119.268 111.381 114.837 114.909 109.432 114.909C104.027 114.909 99.6361 111.381 99.1131 106.991H119.79Z" fill="#FFE14B"/>
<path d="M109.944 105.022L109.432 82.7698" stroke="#A65C2B" stroke-width="0.984615" stroke-linecap="round" stroke-linejoin="round"/>
<path d="M119.855 105.355L109.432 82.7698" stroke="#A65C2B" stroke-width="0.789678" stroke-linecap="round" stroke-linejoin="round"/>
<path d="M99.0082 105.355L109.432 82.7698" stroke="#A65C2B" stroke-width="0.789678" stroke-linecap="round" stroke-linejoin="round"/>
<path fill-rule="evenodd" clip-rule="evenodd" d="M109.452 84.3452C108.908 84.3452 108.467 83.904 108.467 83.3605C108.467 82.817 108.908 82.3759 109.452 82.3759C109.995 82.3759 110.437 82.817 110.437 83.3605C110.437 83.904 109.995 84.3452 109.452 84.3452ZM110.437 81.3913L95.667 82.3759V83.3605L110.437 84.3452C111.602 84.3874 112.406 83.7142 112.406 82.3759C112.406 82.0223 111.602 81.349 110.437 81.3913Z" fill="#7F5A40"/>
<path fill-rule="evenodd" clip-rule="evenodd" d="M94.6824 81.3913H96.6516V60.7144H94.6824V81.3913Z" fill="#7E593F"/>
<path fill-rule="evenodd" clip-rule="evenodd" d="M98.1395 82.7698C98.1395 84.2091 96.9729 85.3757 95.5336 85.3757C94.0942 85.3757 92.9276 84.2091 92.9276 82.7698C92.9276 81.3304 94.0942 80.1638 95.5336 80.1638C96.9729 80.1638 98.1395 81.3304 98.1395 82.7698Z" fill="#A95E2C"/>
<path fill-rule="evenodd" clip-rule="evenodd" d="M97.2709 82.7701C97.2709 83.7299 96.4935 84.5073 95.5337 84.5073C94.5738 84.5073 93.7963 83.7299 93.7963 82.7701C93.7963 81.8102 94.5738 81.0327 95.5337 81.0327C96.4935 81.0327 97.2709 81.8102 97.2709 82.7701Z" fill="#F3CC0D"/>
<path fill-rule="evenodd" clip-rule="evenodd" d="M92.8187 106.991H69.9615C69.4762 106.991 69.0824 106.55 69.0824 106.007C69.0824 105.463 69.4762 105.022 69.9615 105.022H92.8187C93.3039 105.022 93.6978 105.463 93.6978 106.007C93.6978 106.55 93.3039 106.991 92.8187 106.991Z" fill="#CFA202"/>
<path fill-rule="evenodd" clip-rule="evenodd" d="M98.5154 106.991H121.373C121.858 106.991 122.252 106.55 122.252 106.007C122.252 105.463 121.858 105.022 121.373 105.022H98.5154C98.0301 105.022 97.6362 105.463 97.6362 106.007C97.6362 106.55 98.0301 106.991 98.5154 106.991Z" fill="#CFA202"/>
<path fill-rule="evenodd" clip-rule="evenodd" d="M117.197 107.092C116.717 111.115 112.942 114.322 108.155 114.831C108.591 114.878 109.033 114.91 109.484 114.91C114.89 114.91 119.333 111.481 119.856 107.092H117.197Z" fill="#E7BD0A"/>
<path fill-rule="evenodd" clip-rule="evenodd" d="M96.839 73.4701C96.6418 73.4701 96.4498 73.4571 96.2595 73.4294C96.0163 73.3963 95.7818 73.3399 95.5655 73.2617C95.2415 73.1383 94.9827 73.0002 94.7889 72.8508C94.7429 72.8265 94.6517 72.7474 94.5631 72.6684L94.4666 72.5842L94.3416 72.446C94.286 72.3844 94.2261 72.3166 94.1782 72.2497C94.068 72.0995 93.9664 71.9335 93.8786 71.7668C93.8491 71.7199 93.8143 71.652 93.7805 71.587L93.7387 71.5061L93.7162 71.3593C93.7084 71.3533 93.6771 71.2629 93.631 71.1291L93.5771 70.9772C93.453 70.6297 93.3253 70.2684 93.1785 69.8227C93.083 69.5118 92.9874 69.0809 92.8771 68.5562C92.8223 68.286 92.7667 67.989 92.7103 67.6824L92.6608 67.599L92.6799 67.5365C92.408 66.1188 92.1335 64.5205 92.1187 64.3407C92.1005 64.0723 92.1022 63.7995 92.1153 63.5216C92.1508 62.8614 92.243 62.3063 92.3958 61.8199C92.4176 61.7435 92.4505 61.6583 92.4819 61.5776C92.593 61.3013 92.7476 61.0529 92.9414 60.8374C93.0942 60.6629 93.2775 60.5083 93.4851 60.3797C93.9889 60.0522 94.6473 59.8672 95.3345 59.8611C95.6141 59.8611 95.8695 59.8836 96.1084 59.9279C96.2726 59.9515 96.449 59.994 96.6235 60.0426C96.6887 60.06 96.7538 60.0826 96.819 60.1052C96.9233 60.1382 97.0335 60.1825 97.1395 60.2251C97.4696 60.351 97.8058 60.5334 98.1306 60.7636C98.4885 61.0112 98.7656 61.2579 99.0192 61.541C99.2694 61.8216 99.4623 62.1569 99.6178 62.4471C99.7941 62.7676 99.9582 63.1055 100.117 63.446C100.352 63.9498 100.579 64.4684 100.792 65.0018L101.01 65.5516C101.132 65.8704 101.253 66.1944 101.364 66.5097C101.505 66.9162 101.635 67.3132 101.746 67.7101L101.791 67.8874C101.866 68.1862 101.938 68.4685 101.938 68.7908C101.933 69.1209 101.89 69.4648 101.798 69.8757C101.782 69.9487 101.77 69.9895 101.754 70.0251C101.736 70.138 101.68 70.3066 101.621 70.4743C101.578 70.5941 101.532 70.7113 101.476 70.826C101.371 71.0605 101.241 71.2942 101.092 71.5122C100.621 72.2245 99.9917 72.7335 99.2746 72.9803C98.4233 73.2886 97.6407 73.4528 96.9519 73.4693L96.839 73.4701Z" fill="#FFDBB9"/>
<path fill-rule="evenodd" clip-rule="evenodd" d="M95.3495 59.5378H95.3357C94.5843 59.5439 93.8641 59.7472 93.3039 60.1103C93.0789 60.251 92.8714 60.4265 92.6958 60.6253C92.4813 60.8642 92.3076 61.1448 92.1825 61.4549C92.1451 61.5487 92.1087 61.646 92.0808 61.7468C91.9262 62.2358 91.8289 62.817 91.7924 63.5006C91.7776 63.8272 91.7785 64.1061 91.7967 64.3597C91.8142 64.5881 92.106 66.2576 92.3492 67.5267L92.318 67.6388L92.4005 67.7891C92.4569 68.0923 92.5091 68.3685 92.5603 68.6195C92.6967 69.2693 92.7792 69.6236 92.8462 69.8443C92.8548 69.8756 92.8696 69.9207 92.8844 69.959C93.019 70.3725 93.1475 70.7364 93.2439 71.0074L93.2769 71.1004L93.3264 71.2376C93.3525 71.3124 93.3734 71.3731 93.3873 71.42L93.3803 71.5199L93.4655 71.6824L93.4916 71.7336C93.5298 71.8065 93.5689 71.8813 93.614 71.9542C93.6913 72.1054 93.8016 72.2835 93.9223 72.4467C93.9702 72.5137 94.0379 72.5919 94.1022 72.6639C94.1248 72.6892 94.1473 72.7126 94.1639 72.7343L94.2073 72.789L94.2611 72.8333C94.2881 72.856 94.3168 72.8819 94.3463 72.908C94.4262 72.9801 94.5157 73.0609 94.6199 73.1278C94.8345 73.2885 95.1116 73.4344 95.4443 73.5621C95.6936 73.6516 95.9506 73.7141 96.2208 73.7506C96.4111 73.7793 96.616 73.7932 96.8376 73.7932L96.9601 73.7923C97.6836 73.7758 98.501 73.6047 99.3896 73.2824C100.164 73.0158 100.851 72.4624 101.365 71.6867C101.519 71.4626 101.659 71.2115 101.776 70.9484C101.828 70.8415 101.879 70.7138 101.926 70.58C101.979 70.4359 102.038 70.2621 102.082 70.0718C102.091 70.0415 102.1 70.0102 102.107 69.9789C102.211 69.5143 102.257 69.1494 102.261 68.7976C102.262 68.4293 102.185 68.1296 102.105 67.8117L102.063 67.644C101.955 67.2549 101.831 66.8683 101.67 66.4045C101.558 66.084 101.435 65.7574 101.311 65.4351C101.239 65.2483 101.166 65.065 101.093 64.8817C100.886 64.3631 100.655 63.8341 100.41 63.3086C100.216 62.8916 100.059 62.5773 99.9004 62.2889C99.7389 61.9874 99.5339 61.633 99.2619 61.3264C98.9901 61.0232 98.6939 60.76 98.3803 60.5411L98.3751 60.5376L98.3438 60.516L98.3038 60.489C97.9703 60.2536 97.6106 60.0581 97.2476 59.9201C97.1485 59.8792 97.0295 59.8322 96.914 59.7958C96.8576 59.7758 96.7837 59.7506 96.7099 59.7297C96.5456 59.6846 96.3494 59.6351 96.1409 59.6056C95.9081 59.5622 95.6327 59.5378 95.3495 59.5378ZM95.3495 60.1849C95.5806 60.1849 95.8143 60.2032 96.0506 60.2467C96.2138 60.2692 96.3763 60.3101 96.5379 60.3544C96.5987 60.3708 96.6577 60.3917 96.7177 60.4126C96.8176 60.4438 96.9192 60.4846 97.0174 60.5246C97.344 60.6497 97.6524 60.8217 97.9442 61.0276C97.966 61.0423 97.9876 61.0571 98.0103 61.0719C98.2873 61.2647 98.5453 61.4966 98.7781 61.7564C98.9875 61.9917 99.1603 62.2784 99.3332 62.5998C99.5069 62.9168 99.6676 63.2487 99.8239 63.5822C100.057 64.0809 100.281 64.5942 100.492 65.1224C100.564 65.3031 100.637 65.4837 100.708 65.6679C100.829 65.984 100.95 66.3037 101.059 66.6164C101.197 67.0151 101.325 67.4069 101.434 67.7978C101.525 68.1661 101.615 68.4553 101.614 68.7907C101.609 69.1373 101.557 69.4743 101.483 69.8061C101.476 69.8348 101.47 69.8677 101.459 69.8947C101.423 70.0545 101.372 70.21 101.316 70.3647C101.278 70.4758 101.234 70.5809 101.185 70.6852C101.083 70.9136 100.963 71.1281 100.826 71.3297C100.409 71.9586 99.8361 72.4442 99.169 72.6735C98.4255 72.9437 97.6619 73.1296 96.9444 73.1451C96.9088 73.146 96.8731 73.146 96.8376 73.146C96.6569 73.146 96.4814 73.1347 96.3068 73.1087C96.0888 73.0792 95.8768 73.0296 95.6753 72.9576C95.4313 72.8637 95.1775 72.7421 94.9882 72.5944C94.8909 72.5371 94.7754 72.419 94.6729 72.3338C94.6112 72.2565 94.5122 72.1592 94.4427 72.062C94.3384 71.9204 94.2455 71.7692 94.1656 71.6163C94.1178 71.5381 94.0787 71.4583 94.0388 71.3818C94.0414 71.3392 94.0048 71.2202 93.9371 71.024C93.9154 70.9614 93.8902 70.8936 93.8607 70.8111C93.7652 70.5418 93.6357 70.1752 93.4864 69.7218C93.4785 69.7018 93.4724 69.6784 93.4655 69.655C93.3942 69.423 93.3013 69.0018 93.1944 68.4901C93.1371 68.2087 93.0789 67.8976 93.0198 67.5762C93.0164 67.5719 93.0173 67.5676 93.0146 67.5624C93.0146 67.5624 93.0121 67.5571 93.0129 67.5528C92.7332 66.1031 92.4544 64.4743 92.4422 64.3145C92.4248 64.0618 92.4266 63.802 92.4387 63.5353C92.4674 63.0046 92.5378 62.446 92.7046 61.918C92.7262 61.8414 92.7549 61.7667 92.7835 61.6955C92.8791 61.4575 93.0121 61.2412 93.1814 61.0536C93.3143 60.9033 93.4724 60.7687 93.6566 60.6531C94.1273 60.3483 94.7224 60.1901 95.3365 60.1849C95.3409 60.1849 95.3452 60.1849 95.3495 60.1849Z" fill="#020202"/>
<path fill-rule="evenodd" clip-rule="evenodd" d="M96.839 73.4701C96.6418 73.4701 96.4498 73.4571 96.2595 73.4294C96.0163 73.3963 95.7818 73.3399 95.5655 73.2617C95.2415 73.1383 94.9827 73.0002 94.7889 72.8508C94.7429 72.8265 94.6517 72.7474 94.5631 72.6684L94.4666 72.5842L94.3416 72.446C94.286 72.3844 94.2261 72.3166 94.1782 72.2497C94.068 72.0995 93.9664 71.9335 93.8786 71.7668C93.8491 71.7199 93.8143 71.652 93.7805 71.587L93.7387 71.5061L93.7162 71.3593C93.7084 71.3533 93.6771 71.2629 93.631 71.1291L93.5771 70.9772C93.453 70.6297 93.3253 70.2684 93.1785 69.8227C93.083 69.5118 92.9874 69.0809 92.8771 68.5562C92.8223 68.286 92.7667 67.989 92.7103 67.6824L92.6608 67.599L92.6799 67.5365C92.408 66.1188 92.1335 64.5205 92.1187 64.3407C92.1005 64.0723 92.1022 63.7995 92.1153 63.5216C92.1508 62.8614 92.243 62.3063 92.3958 61.8199C92.4176 61.7435 92.4505 61.6583 92.4819 61.5776C92.593 61.3013 92.7476 61.0529 92.9414 60.8374C93.0942 60.6629 93.2775 60.5083 93.4851 60.3797C93.9889 60.0522 94.6473 59.8672 95.3345 59.8611C95.6141 59.8611 95.8695 59.8836 96.1084 59.9279C96.2726 59.9515 96.449 59.994 96.6235 60.0426C96.6887 60.06 96.7538 60.0826 96.819 60.1052C96.9233 60.1382 97.0335 60.1825 97.1395 60.2251C97.4696 60.351 97.8058 60.5334 98.1306 60.7636C98.4885 61.0112 98.7656 61.2579 99.0192 61.541C99.2694 61.8216 99.4623 62.1569 99.6178 62.4471C99.7941 62.7676 99.9582 63.1055 100.117 63.446C100.352 63.9498 100.579 64.4684 100.792 65.0018L101.01 65.5516C101.132 65.8704 101.253 66.1944 101.364 66.5097C101.505 66.9162 101.635 67.3132 101.746 67.7101L101.791 67.8874C101.866 68.1862 101.938 68.4685 101.938 68.7908C101.933 69.1209 101.89 69.4648 101.798 69.8757C101.782 69.9487 101.77 69.9895 101.754 70.0251C101.736 70.138 101.68 70.3066 101.621 70.4743C101.578 70.5941 101.532 70.7113 101.476 70.826C101.371 71.0605 101.241 71.2942 101.092 71.5122C100.621 72.2245 99.9917 72.7335 99.2746 72.9803C98.4233 73.2886 97.6407 73.4528 96.9519 73.4693L96.839 73.4701Z" fill="#FFDBB9"/>
<path fill-rule="evenodd" clip-rule="evenodd" d="M95.3495 59.5378H95.3357C94.5843 59.5439 93.8641 59.7472 93.3039 60.1103C93.0789 60.251 92.8714 60.4265 92.6958 60.6253C92.4813 60.8642 92.3076 61.1448 92.1825 61.4549C92.1451 61.5487 92.1087 61.646 92.0808 61.7468C91.9262 62.2358 91.8289 62.817 91.7924 63.5006C91.7776 63.8272 91.7785 64.1061 91.7967 64.3597C91.8142 64.5881 92.106 66.2576 92.3492 67.5267L92.318 67.6388L92.4005 67.7891C92.4569 68.0923 92.5091 68.3685 92.5603 68.6195C92.6967 69.2693 92.7792 69.6236 92.8462 69.8443C92.8548 69.8756 92.8696 69.9207 92.8844 69.959C93.019 70.3725 93.1475 70.7364 93.2439 71.0074L93.2769 71.1004L93.3264 71.2376C93.3525 71.3124 93.3734 71.3731 93.3873 71.42L93.3803 71.5199L93.4655 71.6824L93.4916 71.7336C93.5298 71.8065 93.5689 71.8813 93.614 71.9542C93.6913 72.1054 93.8016 72.2835 93.9223 72.4467C93.9702 72.5137 94.0379 72.5919 94.1022 72.6639C94.1248 72.6892 94.1473 72.7126 94.1639 72.7343L94.2073 72.789L94.2611 72.8333C94.2881 72.856 94.3168 72.8819 94.3463 72.908C94.4262 72.9801 94.5157 73.0609 94.6199 73.1278C94.8345 73.2885 95.1116 73.4344 95.4443 73.5621C95.6936 73.6516 95.9506 73.7141 96.2208 73.7506C96.4111 73.7793 96.616 73.7932 96.8376 73.7932L96.9601 73.7923C97.6836 73.7758 98.501 73.6047 99.3896 73.2824C100.164 73.0158 100.851 72.4624 101.365 71.6867C101.519 71.4626 101.659 71.2115 101.776 70.9484C101.828 70.8415 101.879 70.7138 101.926 70.58C101.979 70.4359 102.038 70.2621 102.082 70.0718C102.091 70.0415 102.1 70.0102 102.107 69.9789C102.211 69.5143 102.257 69.1494 102.261 68.7976C102.262 68.4293 102.185 68.1296 102.105 67.8117L102.063 67.644C101.955 67.2549 101.831 66.8683 101.67 66.4045C101.558 66.084 101.435 65.7574 101.311 65.4351C101.239 65.2483 101.166 65.065 101.093 64.8817C100.886 64.3631 100.655 63.8341 100.41 63.3086C100.216 62.8916 100.059 62.5773 99.9004 62.2889C99.7389 61.9874 99.5339 61.633 99.2619 61.3264C98.9901 61.0232 98.6939 60.76 98.3803 60.5411L98.3751 60.5376L98.3438 60.516L98.3038 60.489C97.9703 60.2536 97.6106 60.0581 97.2476 59.9201C97.1485 59.8792 97.0295 59.8322 96.914 59.7958C96.8576 59.7758 96.7837 59.7506 96.7099 59.7297C96.5456 59.6846 96.3494 59.6351 96.1409 59.6056C95.9081 59.5622 95.6327 59.5378 95.3495 59.5378ZM95.3495 60.1849C95.5806 60.1849 95.8143 60.2032 96.0506 60.2467C96.2138 60.2692 96.3763 60.3101 96.5379 60.3544C96.5987 60.3708 96.6577 60.3917 96.7177 60.4126C96.8176 60.4438 96.9192 60.4846 97.0174 60.5246C97.344 60.6497 97.6524 60.8217 97.9442 61.0276C97.966 61.0423 97.9876 61.0571 98.0103 61.0719C98.2873 61.2647 98.5453 61.4966 98.7781 61.7564C98.9875 61.9917 99.1603 62.2784 99.3332 62.5998C99.5069 62.9168 99.6676 63.2487 99.8239 63.5822C100.057 64.0809 100.281 64.5942 100.492 65.1224C100.564 65.3031 100.637 65.4837 100.708 65.6679C100.829 65.984 100.95 66.3037 101.059 66.6164C101.197 67.0151 101.325 67.4069 101.434 67.7978C101.525 68.1661 101.615 68.4553 101.614 68.7907C101.609 69.1373 101.557 69.4743 101.483 69.8061C101.476 69.8348 101.47 69.8677 101.459 69.8947C101.423 70.0545 101.372 70.21 101.316 70.3647C101.278 70.4758 101.234 70.5809 101.185 70.6852C101.083 70.9136 100.963 71.1281 100.826 71.3297C100.409 71.9586 99.8361 72.4442 99.169 72.6735C98.4255 72.9437 97.6619 73.1296 96.9444 73.1451C96.9088 73.146 96.8731 73.146 96.8376 73.146C96.6569 73.146 96.4814 73.1347 96.3068 73.1087C96.0888 73.0792 95.8768 73.0296 95.6753 72.9576C95.4313 72.8637 95.1775 72.7421 94.9882 72.5944C94.8909 72.5371 94.7754 72.419 94.6729 72.3338C94.6112 72.2565 94.5122 72.1592 94.4427 72.062C94.3384 71.9204 94.2455 71.7692 94.1656 71.6163C94.1178 71.5381 94.0787 71.4583 94.0388 71.3818C94.0414 71.3392 94.0048 71.2202 93.9371 71.024C93.9154 70.9614 93.8902 70.8936 93.8607 70.8111C93.7652 70.5418 93.6357 70.1752 93.4864 69.7218C93.4785 69.7018 93.4724 69.6784 93.4655 69.655C93.3942 69.423 93.3013 69.0018 93.1944 68.4901C93.1371 68.2087 93.0789 67.8976 93.0198 67.5762C93.0164 67.5719 93.0173 67.5676 93.0146 67.5624C93.0146 67.5624 93.0121 67.5571 93.0129 67.5528C92.7332 66.1031 92.4544 64.4743 92.4422 64.3145C92.4248 64.0618 92.4266 63.802 92.4387 63.5353C92.4674 63.0046 92.5378 62.446 92.7046 61.918C92.7262 61.8414 92.7549 61.7667 92.7835 61.6955C92.8791 61.4575 93.0121 61.2412 93.1814 61.0536C93.3143 60.9033 93.4724 60.7687 93.6566 60.6531C94.1273 60.3483 94.7224 60.1901 95.3365 60.1849C95.3409 60.1849 95.3452 60.1849 95.3495 60.1849Z" fill="#020202"/>
</g>
<defs>
<clipPath id="clip0_2_726">
<rect width="164" height="128" fill="white" transform="translate(0.70285 0.652832)"/>
</clipPath>
</defs>
</svg>
