<svg width="71" height="71" viewBox="0 0 71 71" fill="none" xmlns="http://www.w3.org/2000/svg">
<g clip-path="url(#clip0_2_637)">
<g clip-path="url(#clip1_2_637)">
<path d="M62.3153 10.6182L10.7029 16.9554C9.05845 17.1574 7.889 18.6542 8.09092 20.2987L11.747 50.0751C11.9489 51.7196 13.4457 52.889 15.0902 52.6871L66.7026 46.3499C68.3471 46.148 69.5166 44.6511 69.3147 43.0066L65.6586 13.2303C65.4567 11.5858 63.9599 10.4163 62.3153 10.6182Z" fill="url(#paint0_linear_2_637)"/>
<path d="M66.2678 18.1933L8.70016 25.2617L9.67512 33.2021L67.2428 26.1337L66.2678 18.1933Z" fill="url(#paint1_linear_2_637)"/>
<path d="M57.7029 24.6528H5.70285C4.046 24.6528 2.70285 25.996 2.70285 27.6528V57.6528C2.70285 59.3097 4.046 60.6528 5.70285 60.6528H57.7029C59.3597 60.6528 60.7029 59.3097 60.7029 57.6528V27.6528C60.7029 25.996 59.3597 24.6528 57.7029 24.6528Z" fill="url(#paint2_linear_2_637)"/>
<path d="M43.7029 33.6528H33.7029C33.1506 33.6528 32.7029 34.1005 32.7029 34.6528V36.6528C32.7029 37.2051 33.1506 37.6528 33.7029 37.6528H43.7029C44.2551 37.6528 44.7029 37.2051 44.7029 36.6528V34.6528C44.7029 34.1005 44.2551 33.6528 43.7029 33.6528Z" fill="#0267B8"/>
<path d="M25.7029 53.6528H9.70285C9.15057 53.6528 8.70285 54.1005 8.70285 54.6528C8.70285 55.2051 9.15057 55.6528 9.70285 55.6528H25.7029C26.2551 55.6528 26.7029 55.2051 26.7029 54.6528C26.7029 54.1005 26.2551 53.6528 25.7029 53.6528Z" fill="#7CC5FF"/>
<path d="M36.7029 53.6528H29.7029C29.1506 53.6528 28.7029 54.1005 28.7029 54.6528C28.7029 55.2051 29.1506 55.6528 29.7029 55.6528H36.7029C37.2551 55.6528 37.7029 55.2051 37.7029 54.6528C37.7029 54.1005 37.2551 53.6528 36.7029 53.6528Z" fill="#7CC5FF"/>
<path d="M17.7029 48.6528H9.70285C9.15057 48.6528 8.70285 49.1005 8.70285 49.6528V50.6528C8.70285 51.2051 9.15057 51.6528 9.70285 51.6528H17.7029C18.2551 51.6528 18.7029 51.2051 18.7029 50.6528V49.6528C18.7029 49.1005 18.2551 48.6528 17.7029 48.6528Z" fill="#D8EEFF"/>
<path d="M29.7029 48.6528H21.7029C21.1506 48.6528 20.7029 49.1005 20.7029 49.6528V50.6528C20.7029 51.2051 21.1506 51.6528 21.7029 51.6528H29.7029C30.2551 51.6528 30.7029 51.2051 30.7029 50.6528V49.6528C30.7029 49.1005 30.2551 48.6528 29.7029 48.6528Z" fill="#D8EEFF"/>
<path d="M41.7029 48.6528H33.7029C33.1506 48.6528 32.7029 49.1005 32.7029 49.6528V50.6528C32.7029 51.2051 33.1506 51.6528 33.7029 51.6528H41.7029C42.2551 51.6528 42.7029 51.2051 42.7029 50.6528V49.6528C42.7029 49.1005 42.2551 48.6528 41.7029 48.6528Z" fill="#D8EEFF"/>
<path d="M53.7029 48.6528H45.7029C45.1506 48.6528 44.7029 49.1005 44.7029 49.6528V50.6528C44.7029 51.2051 45.1506 51.6528 45.7029 51.6528H53.7029C54.2551 51.6528 54.7029 51.2051 54.7029 50.6528V49.6528C54.7029 49.1005 54.2551 48.6528 53.7029 48.6528Z" fill="#D8EEFF"/>
<path d="M53.7029 33.6528H47.7029C47.1506 33.6528 46.7029 34.1005 46.7029 34.6528V36.6528C46.7029 37.2051 47.1506 37.6528 47.7029 37.6528H53.7029C54.2551 37.6528 54.7029 37.2051 54.7029 36.6528V34.6528C54.7029 34.1005 54.2551 33.6528 53.7029 33.6528Z" fill="#0267B8"/>
<path d="M18.7029 30.6528H10.7029C9.59828 30.6528 8.70285 31.5483 8.70285 32.6528V38.6528C8.70285 39.7574 9.59828 40.6528 10.7029 40.6528H18.7029C19.8074 40.6528 20.7029 39.7574 20.7029 38.6528V32.6528C20.7029 31.5483 19.8074 30.6528 18.7029 30.6528Z" fill="url(#paint3_linear_2_637)"/>
</g>
</g>
<defs>
<linearGradient id="paint0_linear_2_637" x1="27.0115" y1="51.2566" x2="63.4211" y2="11.5031" gradientUnits="userSpaceOnUse">
<stop stop-color="#83929A"/>
<stop offset="1" stop-color="#B0BEC5"/>
</linearGradient>
<linearGradient id="paint1_linear_2_637" x1="9.67512" y1="33.2021" x2="66.2678" y2="18.1933" gradientUnits="userSpaceOnUse">
<stop stop-color="#455A64"/>
<stop offset="1" stop-color="#2C3C44"/>
</linearGradient>
<linearGradient id="paint2_linear_2_637" x1="59.7029" y1="24.6528" x2="3.20285" y2="60.1528" gradientUnits="userSpaceOnUse">
<stop stop-color="#1687E1"/>
<stop offset="1" stop-color="#44ACFE"/>
</linearGradient>
<linearGradient id="paint3_linear_2_637" x1="19.2029" y1="30.6528" x2="10.2029" y2="40.6528" gradientUnits="userSpaceOnUse">
<stop stop-color="#FFCB57"/>
<stop offset="1" stop-color="#FFD992"/>
</linearGradient>
<clipPath id="clip0_2_637">
<rect width="70" height="70" fill="white" transform="translate(0.70285 0.652832)"/>
</clipPath>
<clipPath id="clip1_2_637">
<rect width="70" height="70" fill="white" transform="translate(0.70285 0.652832)"/>
</clipPath>
</defs>
</svg>
