<svg width="1089" height="379" viewBox="0 0 1089 379" fill="none" xmlns="http://www.w3.org/2000/svg">
<g clip-path="url(#clip0_2_607)">
<path d="M956.703 1148.65C1351.59 1148.65 1671.7 828.536 1671.7 433.653C1671.7 38.7691 1351.59 -281.347 956.703 -281.347C561.819 -281.347 241.703 38.7691 241.703 433.653C241.703 828.536 561.819 1148.65 956.703 1148.65Z" fill="url(#paint0_radial_2_607)"/>
<path d="M500.703 1028.65C776.845 1028.65 1000.7 804.795 1000.7 528.653C1000.7 252.51 776.845 28.6527 500.703 28.6527C224.56 28.6527 0.70285 252.51 0.70285 528.653C0.70285 804.795 224.56 1028.65 500.703 1028.65Z" fill="url(#paint1_radial_2_607)"/>
<path fill-rule="evenodd" clip-rule="evenodd" d="M1050.38 204.798L1032.38 203.763C942.404 198.585 915.502 215.846 900.817 238.207L828.652 348.097C813.967 370.458 817.064 389.445 907.048 394.623L925.044 395.658C1015.02 400.836 1041.92 383.575 1056.61 361.214L1128.77 251.324C1143.46 228.963 1140.36 209.976 1050.38 204.798Z" fill="url(#paint2_linear_2_607)"/>
<path d="M985.703 -75.8473L1074.7 149.653L808.703 272.653L336.703 -75.8473H985.703Z" fill="url(#paint3_linear_2_607)"/>
<path d="M786.363 135.038C776.282 140.84 758.842 150.391 758.842 150.391C758.842 150.391 732.295 158.108 720.384 132.754C762.706 111.321 799.057 93.0796 799.057 93.0796C799.057 93.0796 806.983 123.168 786.363 135.038Z" fill="url(#paint4_linear_2_607)"/>
<path d="M608.444 162.539C608.444 162.539 662.208 134.276 703.586 112.898C729.435 149.75 758.842 150.391 758.842 150.391C758.842 150.391 700.969 181.265 669.255 197.812C626.768 200.307 608.444 162.539 608.444 162.539Z" fill="url(#paint5_linear_2_607)"/>
<path d="M1053.47 161.16L1051.28 156.812L1072.94 145.919L1088.31 176.476L1088.3 176.478C1091.7 182.577 1089.11 189.671 1084.15 197.214L1022.38 291.282C1009.81 310.423 986.785 325.199 909.757 320.767L894.352 319.88C846.067 317.102 827.007 309.678 822.603 299.81L807.722 270.231L829.366 259.342L834.345 269.239L889.018 185.985C901.589 166.843 924.617 152.068 1001.64 156.5L1017.05 157.387C1031.77 158.234 1043.77 159.512 1053.47 161.16Z" fill="url(#paint6_linear_2_607)"/>
<path fill-rule="evenodd" clip-rule="evenodd" d="M1001.67 126.83L986.272 125.944C909.245 121.511 886.216 136.287 873.646 155.429L811.87 249.497C799.3 268.638 801.951 284.892 878.979 289.324L894.384 290.21C971.412 294.643 994.438 279.867 1007.01 260.725L1068.78 166.657C1081.35 147.516 1078.7 131.262 1001.67 126.83Z" fill="url(#paint7_linear_2_607)"/>
<mask id="mask0_2_607" style="mask-type:alpha" maskUnits="userSpaceOnUse" x="806" y="125" width="269" height="167">
<path fill-rule="evenodd" clip-rule="evenodd" d="M1001.67 126.83L986.272 125.944C909.245 121.511 886.216 136.287 873.646 155.429L811.87 249.497C799.3 268.638 801.951 284.892 878.979 289.324L894.384 290.21C971.412 294.643 994.438 279.867 1007.01 260.725L1068.78 166.657C1081.35 147.516 1078.7 131.262 1001.67 126.83Z" fill="url(#paint8_linear_2_607)"/>
</mask>
<g mask="url(#mask0_2_607)">
<mask id="mask1_2_607" style="mask-type:alpha" maskUnits="userSpaceOnUse" x="833" y="191" width="265" height="134">
<path fill-rule="evenodd" clip-rule="evenodd" d="M1040.07 203.139L1026.95 206.798C961.356 225.092 937.482 238.189 921.518 250.585L843.066 311.504C827.102 323.901 825.097 330.899 890.692 312.605L903.81 308.946C969.404 290.652 993.275 277.556 1009.24 265.16L1087.69 204.24C1103.65 191.844 1105.66 184.845 1040.07 203.139Z" fill="url(#paint9_linear_2_607)" stroke="white"/>
</mask>
<g mask="url(#mask1_2_607)">
<path fill-rule="evenodd" clip-rule="evenodd" d="M1001.67 126.83L986.272 125.944C909.245 121.511 886.216 136.287 873.646 155.429L811.87 249.496C799.3 268.638 801.951 284.891 878.979 289.324L894.384 290.21C971.412 294.643 994.438 279.867 1007.01 260.725L1068.78 166.657C1081.35 147.516 1078.7 131.262 1001.67 126.83Z" fill="url(#paint10_linear_2_607)"/>
<path fill-rule="evenodd" clip-rule="evenodd" d="M906.253 133.272C889.641 138.692 881.01 146.947 874.899 156.252L813.124 250.32C810.02 255.046 808.004 259.388 807.717 263.282C807.44 267.036 808.758 270.536 812.765 273.757C816.861 277.049 823.756 280.031 834.558 282.459C845.332 284.88 859.851 286.721 879.065 287.826L894.471 288.713C932.909 290.925 957.706 288.33 974.403 282.882C991.014 277.462 999.644 269.207 1005.75 259.902L1067.53 165.834C1070.63 161.107 1072.65 156.766 1072.93 152.872C1073.21 149.118 1071.89 145.618 1067.89 142.397C1063.79 139.104 1056.9 136.122 1046.09 133.695C1035.32 131.273 1020.8 129.433 1001.59 128.328L986.186 127.441C947.747 125.229 922.95 127.824 906.253 133.272ZM986.272 125.944L1001.67 126.83C1078.7 131.262 1081.35 147.516 1068.78 166.657L1007.01 260.725C994.438 279.867 971.412 294.643 894.384 290.21L878.979 289.324C801.951 284.891 799.3 268.638 811.87 249.496L873.646 155.429C886.216 136.287 909.245 121.511 986.272 125.944Z" fill="white"/>
</g>
<path fill-rule="evenodd" clip-rule="evenodd" d="M982.857 154.073L970.842 153.377L967.578 153.204C919.368 150.873 904.289 160.336 896.031 172.624L854.308 236.157L853.796 236.975C846.525 248.926 849.477 258.982 896.068 262.096L899.313 262.298L909.584 262.889L912.847 263.062C961.058 265.393 976.138 255.93 984.397 243.643L1022.02 186.355L918.703 244.202C912.558 247.642 905.712 247.564 903.674 244.029L883.574 208.719L898.617 185.813L921.824 226.052L1028.42 166.367C1024.75 160.396 1012.17 155.903 982.857 154.073Z" fill="white"/>
<path opacity="0.2" d="M998.938 116.222C998.938 116.222 956.444 87.8277 943.403 79.5793C888.278 91.8092 864.381 160.343 864.381 160.343C864.381 160.343 897.652 181.125 924.333 197.484C943.018 129.395 998.938 116.222 998.938 116.222Z" fill="black"/>
</g>
<path d="M978.277 63.4675C978.277 63.4675 923.499 43.3194 906.814 37.6527C848.888 65.986 840.703 148.468 840.703 148.468C840.703 148.468 883.203 162.634 917.203 173.653C919.722 93.0601 978.277 63.4675 978.277 63.4675Z" fill="url(#paint11_linear_2_607)"/>
<path d="M920.73 110.035C925.503 99.1322 918.772 85.6537 905.697 79.93C892.621 74.2062 878.152 78.4046 873.38 89.3074C868.607 100.21 875.338 113.689 888.413 119.412C901.489 125.136 915.957 120.938 920.73 110.035Z" fill="#2ABD5C"/>
<path d="M704.769 26.8023C704.769 26.8023 670.61 62.3482 660.029 72.7394C605.298 64.3089 568.145 -9.63698 568.145 -9.63698C568.145 -9.63698 595.196 -35.8571 616.956 -56.5414C649.086 17.3983 704.769 26.8023 704.769 26.8023Z" fill="url(#paint12_linear_2_607)"/>
<path d="M643.49 1.35095C651.212 9.989 651.14 24.557 643.329 33.8895C635.518 43.222 622.926 43.785 615.205 35.1469C607.483 26.5089 607.556 11.9409 615.367 2.60837C623.177 -6.72413 635.769 -7.28709 643.49 1.35095Z" fill="#2ABD5C"/>
<path d="M813.753 54.3083C813.753 54.3083 848.343 23.7121 858.552 14.216C860.552 -36.7659 806.169 -73.4189 806.169 -73.4189C806.169 -73.4189 780.353 -49.1305 759.919 -29.5817C815.113 2.41521 813.753 54.3083 813.753 54.3083Z" fill="url(#paint13_linear_2_607)"/>
<path d="M802.91 -3.25205C808.713 4.16378 820.628 4.53321 829.521 -2.42693C838.415 -9.38707 840.92 -21.0411 835.116 -28.4569C829.312 -35.8728 817.398 -36.2422 808.504 -29.2821C799.611 -22.3219 797.106 -10.6679 802.91 -3.25205Z" fill="#2ABD5C"/>
</g>
<defs>
<radialGradient id="paint0_radial_2_607" cx="0" cy="0" r="1" gradientUnits="userSpaceOnUse" gradientTransform="translate(956.703 433.653) rotate(90) scale(715)">
<stop stop-color="#0093D0"/>
<stop offset="1" stop-color="#003C55" stop-opacity="0"/>
</radialGradient>
<radialGradient id="paint1_radial_2_607" cx="0" cy="0" r="1" gradientUnits="userSpaceOnUse" gradientTransform="translate(500.703 528.653) rotate(90) scale(500)">
<stop stop-color="#0093D0"/>
<stop offset="1" stop-color="#003C55" stop-opacity="0"/>
</radialGradient>
<linearGradient id="paint2_linear_2_607" x1="910.23" y1="181.811" x2="1023.09" y2="387.921" gradientUnits="userSpaceOnUse">
<stop stop-opacity="0.4"/>
<stop offset="1" stop-opacity="0.2"/>
</linearGradient>
<linearGradient id="paint3_linear_2_607" x1="839.703" y1="-90.8473" x2="934.703" y2="295.653" gradientUnits="userSpaceOnUse">
<stop stop-color="#003C55" stop-opacity="0"/>
<stop offset="1" stop-color="#B4FFF6" stop-opacity="0.5"/>
</linearGradient>
<linearGradient id="paint4_linear_2_607" x1="759.106" y1="95.4257" x2="762.359" y2="150.819" gradientUnits="userSpaceOnUse">
<stop stop-color="#3DDC73"/>
<stop offset="1" stop-color="#0D963C"/>
</linearGradient>
<linearGradient id="paint5_linear_2_607" x1="662.459" y1="125.51" x2="717.726" y2="193.103" gradientUnits="userSpaceOnUse">
<stop stop-color="#6CFD9E"/>
<stop offset="1" stop-color="#1FC758"/>
</linearGradient>
<linearGradient id="paint6_linear_2_607" x1="942.703" y1="198.153" x2="1007.7" y2="319.153" gradientUnits="userSpaceOnUse">
<stop stop-color="#0086C0"/>
<stop offset="1" stop-color="#13B9FF"/>
</linearGradient>
<linearGradient id="paint7_linear_2_607" x1="881.703" y1="107.153" x2="978.316" y2="283.587" gradientUnits="userSpaceOnUse">
<stop stop-color="#0092D0"/>
<stop offset="1" stop-color="#55CCFF"/>
</linearGradient>
<linearGradient id="paint8_linear_2_607" x1="881.703" y1="107.153" x2="978.316" y2="283.587" gradientUnits="userSpaceOnUse">
<stop stop-color="#0092D0"/>
<stop offset="1" stop-color="#55CCFF"/>
</linearGradient>
<linearGradient id="paint9_linear_2_607" x1="941.284" y1="225.582" x2="972.812" y2="286.438" gradientUnits="userSpaceOnUse">
<stop stop-color="#0092D0"/>
<stop offset="1" stop-color="#55CCFF"/>
</linearGradient>
<linearGradient id="paint10_linear_2_607" x1="881.703" y1="107.153" x2="978.316" y2="283.587" gradientUnits="userSpaceOnUse">
<stop stop-color="#0092D0"/>
<stop offset="1" stop-color="#55CCFF"/>
</linearGradient>
<linearGradient id="paint11_linear_2_607" x1="909.49" y1="37.6527" x2="909.49" y2="173.653" gradientUnits="userSpaceOnUse">
<stop stop-color="#6FFFA0"/>
<stop offset="1" stop-color="#18C252"/>
</linearGradient>
<linearGradient id="paint12_linear_2_607" x1="588.703" y1="-30.8473" x2="672.203" y2="55.6527" gradientUnits="userSpaceOnUse">
<stop stop-color="#6FFFA0"/>
<stop offset="1" stop-color="#18C252"/>
</linearGradient>
<linearGradient id="paint13_linear_2_607" x1="857.548" y1="16.08" x2="762.813" y2="-34.9543" gradientUnits="userSpaceOnUse">
<stop stop-color="#6FFFA0"/>
<stop offset="1" stop-color="#18C252"/>
</linearGradient>
<clipPath id="clip0_2_607">
<rect width="1088" height="378" fill="white" transform="translate(0.70285 0.65271)"/>
</clipPath>
</defs>
</svg>
