<svg width="165" height="129" viewBox="0 0 165 129" fill="none" xmlns="http://www.w3.org/2000/svg">
<g clip-path="url(#clip0_2_514)">
<g clip-path="url(#clip1_2_514)">
<path fill-rule="evenodd" clip-rule="evenodd" d="M65.4405 8.65271H60.7029H55.9669C8.59885 8.65271 0.70285 20.0479 0.70285 34.1071V68.6527V103.199C0.70285 117.258 8.59885 128.653 55.9669 128.653H60.7029H65.4405C112.809 128.653 120.703 117.258 120.703 103.199V68.6527V34.1071C120.703 20.0479 112.809 8.65271 65.4405 8.65271Z" fill="#D2DBFF"/>
<path fill-rule="evenodd" clip-rule="evenodd" d="M70.7717 3.65271C87.5207 3.65271 103.152 10.7176 114.266 22.894C116.308 25.1312 116.156 28.6058 113.926 30.6549C111.697 32.7039 108.235 32.5515 106.193 30.3143C97.1306 20.3854 84.416 14.6388 70.7717 14.6388C44.2001 14.6388 22.6502 36.3575 22.6502 63.1607C18.4632 63.421 16.8422 64.1238 11.7029 63.1607C11.7029 30.3005 38.1436 3.65271 70.7717 3.65271Z" fill="#A3B5FF"/>
<path d="M22.5865 63.2666C22.5865 90.0149 44.011 111.689 70.428 111.689C93.2909 111.689 115.688 94.8557 117.841 70.993C118.113 67.978 120.76 65.756 123.753 66.0301C126.747 66.3041 128.952 68.9706 128.68 71.9856C125.97 102.016 98.5126 122.653 70.428 122.653C37.9897 122.653 11.7029 96.0595 11.7029 63.2666C16.9706 59.4124 17.4638 60.171 22.5865 63.2666Z" fill="url(#paint0_linear_2_514)"/>
<path fill-rule="evenodd" clip-rule="evenodd" d="M87.1612 30.8746C85.8567 30.8552 85.2141 29.2721 86.1392 28.3469L103.186 2.08987C104.112 1.16476 105.695 1.80343 105.714 3.11176L120.703 34.8177C120.722 35.8358 119.89 36.668 118.868 36.6525L87.1612 30.8746Z" fill="#A3B5FF"/>
<path d="M90.7029 118.653C112.242 118.653 129.703 101.192 129.703 79.6527C129.703 58.1136 112.242 40.6527 90.7029 40.6527C69.1637 40.6527 51.7029 58.1136 51.7029 79.6527C51.7029 101.192 69.1637 118.653 90.7029 118.653Z" fill="#30D0FF"/>
<path d="M90.7028 115.31C110.396 115.31 126.36 99.3456 126.36 79.6527C126.36 59.9598 110.396 43.9956 90.7028 43.9956C71.01 43.9956 55.0457 59.9598 55.0457 79.6527C55.0457 99.3456 71.01 115.31 90.7028 115.31Z" fill="#FCF9F0"/>
<path d="M90.7028 115.31C110.396 115.31 126.36 99.3456 126.36 79.6527C126.36 59.9598 110.396 43.9956 90.7028 43.9956C71.01 43.9956 55.0457 59.9598 55.0457 79.6527C55.0457 99.3456 71.01 115.31 90.7028 115.31Z" fill="#64DBFF" fill-opacity="0.5"/>
<path fill-rule="evenodd" clip-rule="evenodd" d="M90.7028 43.9956H88.7028V50.6553H90.7028V43.9956ZM61.7004 81.6544V79.6527H55.0457L55.0822 81.6544H61.7004ZM90.7028 108.653H88.7071V115.324H90.7028V108.653ZM126.36 79.6527V81.6527H119.706V79.6527H126.36Z" fill="#01516A"/>
<path d="M109.228 49.4277L107.278 52.3527" stroke="#01516A" stroke-width="1.3"/>
<path d="M121.903 62.1028L118.978 64.0528" stroke="#01516A" stroke-width="1.3"/>
<path d="M109.228 109.878L107.278 106.953" stroke="#01516A" stroke-width="1.3"/>
<path d="M121.903 97.2026L118.978 95.2526" stroke="#01516A" stroke-width="1.3"/>
<path d="M72.1779 49.4277L74.1279 52.3527" stroke="#01516A" stroke-width="1.3"/>
<path d="M59.5028 62.1028L62.4278 64.0528" stroke="#01516A" stroke-width="1.3"/>
<path d="M72.1779 109.878L74.1279 106.953" stroke="#01516A" stroke-width="1.3"/>
<path d="M59.5028 97.2026L62.4278 95.2526" stroke="#01516A" stroke-width="1.3"/>
<g opacity="0.2">
<path d="M89.7279 84.5276C91.3433 84.5276 92.6529 83.218 92.6529 81.6026C92.6529 79.9872 91.3433 78.6776 89.7279 78.6776C88.1124 78.6776 86.8029 79.9872 86.8029 81.6026C86.8029 83.218 88.1124 84.5276 89.7279 84.5276Z" fill="black"/>
<path d="M86.8028 86.4776L83.6444 84.0997L115.82 66.5497L116.286 67.4056L86.8028 86.4776Z" fill="#01516A"/>
<path d="M69.9771 70.3207L70.4787 69.4846L94.8537 84.1096L90.7029 86.4776L69.9771 70.3207Z" fill="#01516A"/>
</g>
<path d="M89.7279 83.5526C91.3433 83.5526 92.6529 82.2431 92.6529 80.6276C92.6529 79.0122 91.3433 77.7026 89.7279 77.7026C88.1124 77.7026 86.8029 79.0122 86.8029 80.6276C86.8029 82.2431 88.1124 83.5526 89.7279 83.5526Z" fill="black"/>
<path d="M86.8028 85.5027L83.6444 83.1247L115.82 65.5747L116.286 66.4306L86.8028 85.5027Z" fill="white"/>
<path d="M69.9771 69.3457L70.4787 68.5096L94.8537 83.1346L90.7029 85.5027L69.9771 69.3457Z" fill="white"/>
<path fill-rule="evenodd" clip-rule="evenodd" d="M65.7029 77.5027V83.6736C65.7029 86.7261 77.0512 89.2027 91.0508 89.2027C105.055 89.2027 116.403 86.7261 116.403 83.6736V77.5027H65.7029Z" fill="#E4A34D"/>
<path fill-rule="evenodd" clip-rule="evenodd" d="M73.5029 87.6427C75.7452 88.1311 78.3861 88.5299 81.3029 88.8127V77.5027H73.5029V87.6427Z" fill="#FEF068"/>
<path fill-rule="evenodd" clip-rule="evenodd" d="M73.5029 77.5027H65.7029V83.4502C65.7029 85.3865 68.6941 86.6752 73.5029 87.6427V77.5027Z" fill="#FDD535"/>
<path fill-rule="evenodd" clip-rule="evenodd" d="M81.3029 88.7378C84.5147 89.034 88.0529 89.2027 91.7808 89.2027C92.8573 89.2027 93.9117 89.1821 94.9529 89.1574V77.5027H81.3029V88.7378Z" fill="#FDD535"/>
<path fill-rule="evenodd" clip-rule="evenodd" d="M116.403 77.5027C116.403 80.7324 105.055 83.3527 91.0549 83.3527C77.0511 83.3527 65.7029 80.7324 65.7029 77.5027C65.7029 74.273 77.0511 71.6527 91.0549 71.6527C105.055 71.6527 116.403 74.273 116.403 77.5027Z" fill="#FDD535"/>
<path fill-rule="evenodd" clip-rule="evenodd" d="M115.105 75.5527C117.146 78.8785 103.731 81.6302 91.0549 81.6302C78.3746 81.6302 65.7113 78.4634 67.0007 75.5527C66.1724 76.1402 65.7029 76.7673 65.7029 77.421C65.7029 80.6983 77.0511 83.3527 91.0549 83.3527C105.055 83.3527 116.403 80.6983 116.403 77.421C116.403 76.7673 115.938 76.1402 115.105 75.5527Z" fill="#FFF5AB"/>
</g>
</g>
<defs>
<linearGradient id="paint0_linear_2_514" x1="82.2028" y1="86.6527" x2="33.1486" y2="101.35" gradientUnits="userSpaceOnUse">
<stop stop-color="#C4CFFF" stop-opacity="0.01"/>
<stop offset="0.979175" stop-color="#A3B5FF"/>
</linearGradient>
<clipPath id="clip0_2_514">
<rect width="164" height="128" fill="white" transform="translate(0.70285 0.65271)"/>
</clipPath>
<clipPath id="clip1_2_514">
<rect width="164" height="128" fill="white" transform="translate(0.70285 0.65271)"/>
</clipPath>
</defs>
</svg>
