<svg width="165" height="129" viewBox="0 0 165 129" fill="none" xmlns="http://www.w3.org/2000/svg">
<g clip-path="url(#clip0_2_548)">
<g clip-path="url(#clip1_2_548)">
<g clip-path="url(#clip2_2_548)">
<path fill-rule="evenodd" clip-rule="evenodd" d="M65.5743 8.5907H60.8734H56.1742C9.17335 8.5907 1.33856 19.8976 1.33856 33.8478V68.1256V102.404C1.33856 116.354 9.17335 127.66 56.1742 127.66H60.8734H65.5743C112.576 127.66 120.408 116.354 120.408 102.404V68.1256V33.8478C120.408 19.8976 112.576 8.5907 65.5743 8.5907Z" fill="#DCFFCF"/>
<path fill-rule="evenodd" clip-rule="evenodd" d="M16.0683 1.6449L12.8289 7.67271L6.09552 8.89073L10.8273 13.833L9.90489 20.6136L16.0683 17.6415L22.2309 20.6136L21.3085 13.833L26.0403 8.89073L19.3069 7.67271L16.0683 1.6449Z" fill="#FFCC00"/>
<path fill-rule="evenodd" clip-rule="evenodd" d="M10.8272 13.8332L10.5205 16.0902C15.488 15.6236 19.6703 12.4639 21.597 8.08606L19.3076 7.67217L16.0682 1.64514L12.8288 7.67217L6.09625 8.89019L10.8272 13.8332Z" fill="#FFDC48"/>
<path fill-rule="evenodd" clip-rule="evenodd" d="M39.5315 1.6449L42.7708 7.67192L49.5034 8.88994L44.7725 13.833L45.6949 20.6129L39.5315 17.6407L33.3681 20.6129L34.2904 13.833L29.5595 8.88994L36.2921 7.67192L39.5315 1.6449Z" fill="#FFCC00"/>
<path fill-rule="evenodd" clip-rule="evenodd" d="M34.2905 13.8332L33.9838 16.0902C38.9513 15.6236 43.1336 12.4639 45.0603 8.08606L42.7709 7.67217L39.5315 1.64514L36.2921 7.67217L29.5595 8.89019L34.2905 13.8332Z" fill="#FFDC48"/>
<path fill-rule="evenodd" clip-rule="evenodd" d="M62.9947 1.6449L66.234 7.67192L72.9667 8.88994L68.2357 13.833L69.1581 20.6129L62.9947 17.6407L56.8313 20.6129L57.7537 13.833L53.0228 8.88994L59.7554 7.67192L62.9947 1.6449Z" fill="#FFCC00"/>
<path fill-rule="evenodd" clip-rule="evenodd" d="M57.7538 13.8332L57.4471 16.0902C62.4146 15.6236 66.5968 12.4639 68.5236 8.08606L66.2342 7.67217L62.9948 1.64514L59.7554 7.67217L53.0228 8.89019L57.7538 13.8332Z" fill="#FFDC48"/>
<path fill-rule="evenodd" clip-rule="evenodd" d="M86.458 1.6449L89.6974 7.67192L96.43 8.88994L91.699 13.833L92.6214 20.6129L86.458 17.6407L80.2946 20.6129L81.217 13.833L76.4861 8.88994L83.2187 7.67192L86.458 1.6449Z" fill="#FFCC00"/>
<path fill-rule="evenodd" clip-rule="evenodd" d="M81.217 13.8332L80.9103 16.0902C85.8778 15.6236 90.06 12.4639 91.9868 8.08606L89.6974 7.67217L86.458 1.64514L83.2187 7.67217L76.4861 8.89019L81.217 13.8332Z" fill="#FFDC48"/>
<path fill-rule="evenodd" clip-rule="evenodd" d="M109.921 1.6449L113.161 7.67192L119.893 8.88994L115.162 13.833L116.085 20.6129L109.921 17.6407L103.757 20.6129L104.68 13.833L99.9493 8.88994L106.682 7.67192L109.921 1.6449Z" fill="#FFCC00"/>
<path fill-rule="evenodd" clip-rule="evenodd" d="M104.68 13.8332L104.374 16.0902C109.341 15.6236 113.523 12.4639 115.45 8.08606L113.161 7.67217L109.921 1.64514L106.682 7.67217L99.9493 8.89019L104.68 13.8332Z" fill="#FFDC48"/>
<g opacity="0.8">
<path fill-rule="evenodd" clip-rule="evenodd" d="M16.0683 26.451L12.8289 32.4789L6.09552 33.6968L10.8273 38.6391L9.90489 45.4198L16.0683 42.4477L22.2309 45.4198L21.3085 38.6391L26.0403 33.6968L19.3069 32.4789L16.0683 26.451Z" fill="#FFCC00"/>
<path fill-rule="evenodd" clip-rule="evenodd" d="M10.8272 38.6394L10.5205 40.8964C15.488 40.4298 19.6703 37.2701 21.597 32.8923L19.3076 32.4784L16.0682 26.4513L12.8288 32.4784L6.09625 33.6964L10.8272 38.6394Z" fill="#FFDC48"/>
<path fill-rule="evenodd" clip-rule="evenodd" d="M39.5315 26.4512L42.7708 32.4782L49.5034 33.6962L44.7725 38.6393L45.6949 45.4192L39.5315 42.447L33.3681 45.4192L34.2904 38.6393L29.5595 33.6962L36.2921 32.4782L39.5315 26.4512Z" fill="#FFCC00"/>
<path fill-rule="evenodd" clip-rule="evenodd" d="M34.2905 38.6394L33.9838 40.8964C38.9513 40.4298 43.1336 37.2701 45.0603 32.8923L42.7709 32.4784L39.5315 26.4513L36.2921 32.4784L29.5595 33.6964L34.2905 38.6394Z" fill="#FFDC48"/>
<path fill-rule="evenodd" clip-rule="evenodd" d="M62.9947 26.4512L66.234 32.4782L72.9667 33.6962L68.2357 38.6393L69.1581 45.4192L62.9947 42.447L56.8313 45.4192L57.7537 38.6393L53.0228 33.6962L59.7554 32.4782L62.9947 26.4512Z" fill="#FFCC00"/>
<path fill-rule="evenodd" clip-rule="evenodd" d="M57.7538 38.6394L57.4471 40.8964C62.4146 40.4298 66.5968 37.2701 68.5236 32.8923L66.2342 32.4784L62.9948 26.4513L59.7554 32.4784L53.0228 33.6964L57.7538 38.6394Z" fill="#FFDC48"/>
<path fill-rule="evenodd" clip-rule="evenodd" d="M86.458 26.4512L89.6974 32.4782L96.43 33.6962L91.699 38.6393L92.6214 45.4192L86.458 42.447L80.2946 45.4192L81.217 38.6393L76.4861 33.6962L83.2187 32.4782L86.458 26.4512Z" fill="#FFCC00"/>
<path fill-rule="evenodd" clip-rule="evenodd" d="M81.217 38.6394L80.9103 40.8964C85.8778 40.4298 90.06 37.2701 91.9868 32.8923L89.6974 32.4784L86.458 26.4513L83.2187 32.4784L76.4861 33.6964L81.217 38.6394Z" fill="#FFDC48"/>
<g style="mix-blend-mode:multiply">
<path fill-rule="evenodd" clip-rule="evenodd" d="M109.921 26.4512L113.161 32.4782L119.893 33.6962L115.162 38.6393L116.085 45.4192L109.921 42.447L103.757 45.4192L104.68 38.6393L99.9493 33.6962L106.682 32.4782L109.921 26.4512Z" fill="#B3B3B3"/>
</g>
</g>
<g opacity="0.6">
<path fill-rule="evenodd" clip-rule="evenodd" d="M16.0683 51.2573L12.8289 57.2851L6.09552 58.5031L10.8273 63.4454L9.90489 70.226L16.0683 67.2539L22.2309 70.226L21.3085 63.4454L26.0403 58.5031L19.3069 57.2851L16.0683 51.2573Z" fill="#FFCC00"/>
<path fill-rule="evenodd" clip-rule="evenodd" d="M10.8272 63.4457L10.5205 65.7027C15.488 65.2361 19.6703 62.0763 21.597 57.6986L19.3076 57.2847L16.0682 51.2576L12.8288 57.2847L6.09625 58.5027L10.8272 63.4457Z" fill="#FFDC48"/>
<path fill-rule="evenodd" clip-rule="evenodd" d="M39.5315 51.2574L42.7708 57.2845L49.5034 58.5024L44.7725 63.4455L45.6949 70.2255L39.5315 67.2533L33.3681 70.2255L34.2904 63.4455L29.5595 58.5024L36.2921 57.2845L39.5315 51.2574Z" fill="#FFCC00"/>
<path fill-rule="evenodd" clip-rule="evenodd" d="M34.2905 63.4457L33.9838 65.7027C38.9513 65.2361 43.1336 62.0763 45.0603 57.6986L42.7709 57.2847L39.5315 51.2576L36.2921 57.2847L29.5595 58.5027L34.2905 63.4457Z" fill="#FFDC48"/>
<path fill-rule="evenodd" clip-rule="evenodd" d="M62.9947 51.2574L66.234 57.2845L72.9667 58.5024L68.2357 63.4455L69.1581 70.2255L62.9947 67.2533L56.8313 70.2255L57.7537 63.4455L53.0228 58.5024L59.7554 57.2845L62.9947 51.2574Z" fill="#FFCC00"/>
<path fill-rule="evenodd" clip-rule="evenodd" d="M57.7538 63.4457L57.4471 65.7027C62.4146 65.2361 66.5968 62.0763 68.5236 57.6986L66.2342 57.2847L62.9948 51.2576L59.7554 57.2847L53.0228 58.5027L57.7538 63.4457Z" fill="#FFDC48"/>
<g style="mix-blend-mode:multiply">
<path fill-rule="evenodd" clip-rule="evenodd" d="M86.458 51.2574L89.6974 57.2845L96.43 58.5024L91.699 63.4455L92.6214 70.2255L86.458 67.2533L80.2946 70.2255L81.217 63.4455L76.4861 58.5024L83.2187 57.2845L86.458 51.2574Z" fill="#B3B3B3"/>
</g>
<g style="mix-blend-mode:multiply">
<path fill-rule="evenodd" clip-rule="evenodd" d="M109.921 51.2574L113.161 57.2845L119.893 58.5024L115.162 63.4455L116.085 70.2255L109.921 67.2533L103.757 70.2255L104.68 63.4455L99.9493 58.5024L106.682 57.2845L109.921 51.2574Z" fill="#B3B3B3"/>
</g>
</g>
<g opacity="0.4">
<path fill-rule="evenodd" clip-rule="evenodd" d="M16.0683 77.0557L12.8289 83.0835L6.09552 84.3015L10.8273 89.2437L9.90489 96.0244L16.0683 93.0523L22.2309 96.0244L21.3085 89.2437L26.0403 84.3015L19.3069 83.0835L16.0683 77.0557Z" fill="#FFCC00"/>
<path fill-rule="evenodd" clip-rule="evenodd" d="M10.8272 89.244L10.5205 91.5011C15.488 91.0344 19.6703 87.8747 21.597 83.4969L19.3076 83.083L16.0682 77.0559L12.8288 83.083L6.09625 84.301L10.8272 89.244Z" fill="#FFDC48"/>
<path fill-rule="evenodd" clip-rule="evenodd" d="M39.5315 77.0558L42.7708 83.0828L49.5034 84.3008L44.7725 89.2439L45.6949 96.0238L39.5315 93.0516L33.3681 96.0238L34.2904 89.2439L29.5595 84.3008L36.2921 83.0828L39.5315 77.0558Z" fill="#FFCC00"/>
<path fill-rule="evenodd" clip-rule="evenodd" d="M34.2905 89.244L33.9838 91.5011C38.9513 91.0344 43.1336 87.8747 45.0603 83.4969L42.7709 83.083L39.5315 77.0559L36.2921 83.083L29.5595 84.301L34.2905 89.244Z" fill="#FFDC48"/>
<g style="mix-blend-mode:multiply">
<path fill-rule="evenodd" clip-rule="evenodd" d="M62.9947 77.0558L66.234 83.0828L72.9667 84.3008L68.2357 89.2439L69.1581 96.0238L62.9947 93.0516L56.8313 96.0238L57.7537 89.2439L53.0228 84.3008L59.7554 83.0828L62.9947 77.0558Z" fill="#B3B3B3"/>
</g>
<g style="mix-blend-mode:multiply">
<path fill-rule="evenodd" clip-rule="evenodd" d="M86.458 77.0558L89.6974 83.0828L96.43 84.3008L91.699 89.2439L92.6214 96.0238L86.458 93.0516L80.2946 96.0238L81.217 89.2439L76.4861 84.3008L83.2187 83.0828L86.458 77.0558Z" fill="#B3B3B3"/>
</g>
<g style="mix-blend-mode:multiply">
<path fill-rule="evenodd" clip-rule="evenodd" d="M109.921 77.0558L113.161 83.0828L119.893 84.3008L115.162 89.2439L116.085 96.0238L109.921 93.0516L103.757 96.0238L104.68 89.2439L99.9493 84.3008L106.682 83.0828L109.921 77.0558Z" fill="#B3B3B3"/>
</g>
</g>
<g opacity="0.2">
<path fill-rule="evenodd" clip-rule="evenodd" d="M16.0683 101.862L12.8289 107.89L6.09552 109.107L10.8273 114.05L9.90489 120.831L16.0683 117.858L22.2309 120.831L21.3085 114.05L26.0403 109.107L19.3069 107.89L16.0683 101.862Z" fill="#FFCC00"/>
<path fill-rule="evenodd" clip-rule="evenodd" d="M10.8272 114.051L10.5205 116.307C15.488 115.841 19.6703 112.681 21.597 108.303L19.3076 107.889L16.0682 101.862L12.8288 107.889L6.09625 109.107L10.8272 114.051Z" fill="#FFDC48"/>
<g style="mix-blend-mode:multiply">
<path fill-rule="evenodd" clip-rule="evenodd" d="M39.5315 101.862L42.7708 107.889L49.5034 109.107L44.7725 114.05L45.6949 120.83L39.5315 117.858L33.3681 120.83L34.2904 114.05L29.5595 109.107L36.2921 107.889L39.5315 101.862Z" fill="#B3B3B3"/>
</g>
<g style="mix-blend-mode:multiply">
<path fill-rule="evenodd" clip-rule="evenodd" d="M62.9947 101.862L66.234 107.889L72.9667 109.107L68.2357 114.05L69.1581 120.83L62.9947 117.858L56.8313 120.83L57.7537 114.05L53.0228 109.107L59.7554 107.889L62.9947 101.862Z" fill="#B3B3B3"/>
</g>
<g style="mix-blend-mode:multiply">
<path fill-rule="evenodd" clip-rule="evenodd" d="M86.458 101.862L89.6974 107.889L96.43 109.107L91.699 114.05L92.6214 120.83L86.458 117.858L80.2946 120.83L81.217 114.05L76.4861 109.107L83.2187 107.889L86.458 101.862Z" fill="#B3B3B3"/>
</g>
<g style="mix-blend-mode:multiply">
<path fill-rule="evenodd" clip-rule="evenodd" d="M109.921 101.862L113.161 107.889L119.893 109.107L115.162 114.05L116.085 120.83L109.921 117.858L103.757 120.83L104.68 114.05L99.9493 109.107L106.682 107.889L109.921 101.862Z" fill="#B3B3B3"/>
</g>
</g>
<path fill-rule="evenodd" clip-rule="evenodd" d="M88.1033 89.4235V85.3985C88.1033 83.5574 88.0076 81.9819 89.6182 81.0889C90.6954 80.4908 91.3046 79.5715 91.3046 77.272V56.9318C91.3046 55.3371 90.5862 52.1477 86.5206 52.1477C82.5338 52.1477 84.2074 50.553 80.1418 50.553C78.5471 50.553 77.7498 51.3504 76.9524 51.3504C76.1551 51.3504 76.1551 49.7557 72.9657 49.7557C69.6783 49.7557 68.979 52.945 68.979 52.945V34.6062C68.979 29.0248 61.0056 29.0248 61.0056 34.6062V54.5397L57.4511 56.5705C56.255 57.2547 55.6642 58.6548 56.0102 59.9887L59.8989 77.4633C60.3032 79.0285 61.3429 80.6663 62.483 81.4819C63.3545 82.1054 63.8856 83.0949 63.8856 84.1665V89.4235H88.1033Z" fill="#FFDBB9" stroke="black" stroke-width="1.9845" stroke-linecap="round" stroke-linejoin="round"/>
<path d="M60.6962 54.5397V67.2971" stroke="black" stroke-width="2.5515" stroke-linecap="round" stroke-linejoin="round"/>
<path d="M60.6962 54.5397V67.2971" stroke="black" stroke-width="1.9845" stroke-linecap="round" stroke-linejoin="round"/>
<path fill-rule="evenodd" clip-rule="evenodd" d="M89.6486 127.66L88.3608 92.6727H64.2889L60.8734 127.66" fill="#13C1FE"/>
<path d="M89.6486 127.66L88.3608 92.6727H64.2889L60.8734 127.66" stroke="black" stroke-width="1.9845" stroke-linejoin="round"/>
<path fill-rule="evenodd" clip-rule="evenodd" d="M61.8657 85.9861H90.6409V89.5944L87.2021 90.8572L90.6409 92.3003V95.9086H61.8657V85.9861Z" fill="#13C1FE" stroke="black" stroke-width="1.9845" stroke-linecap="round" stroke-linejoin="round"/>
</g>
</g>
</g>
<defs>
<clipPath id="clip0_2_548">
<rect width="164" height="128" fill="white" transform="translate(0.702881 0.65271)"/>
</clipPath>
<clipPath id="clip1_2_548">
<rect width="164" height="128" fill="white" transform="translate(0.702881 0.65271)"/>
</clipPath>
<clipPath id="clip2_2_548">
<rect width="162.729" height="128" fill="white" transform="translate(1.33856 0.65271)"/>
</clipPath>
</defs>
</svg>
