<svg width="43" height="43" viewBox="0 0 43 43" fill="none" xmlns="http://www.w3.org/2000/svg">
<path fill-rule="evenodd" clip-rule="evenodd" d="M23.915 0.456962L19.9978 0.455383L18.9371 0.46094C3.31376 0.627166 0.529431 4.5024 0.470123 9.29034V34.0252L0.478225 34.3429C0.659519 38.9835 3.66095 42.692 18.9371 42.8546L19.9978 42.8601H23.3456L24.4063 42.8546C40.0297 42.6883 42.8146 38.8131 42.8739 34.0252L42.8749 11.7221L22.3554 35.653C21.135 37.0764 18.9686 37.1946 17.5994 35.9128L4.00295 23.1002V14.1824L19.592 28.7768L40.7639 4.0852C38.3782 1.92462 33.502 0.510551 23.915 0.456962Z" fill="url(#paint0_linear_2_2126)"/>
<defs>
<linearGradient id="paint0_linear_2_2126" x1="21.6725" y1="-20.747" x2="-20.7322" y2="21.6577" gradientUnits="userSpaceOnUse">
<stop stop-color="#00B6F3"/>
<stop offset="1" stop-color="#00FF44"/>
</linearGradient>
</defs>
</svg>
