<svg width="601" height="267" viewBox="0 0 601 267" fill="none" xmlns="http://www.w3.org/2000/svg">
<g clip-path="url(#clip0_2_1508)">
<path d="M300.703 610.653C466.388 610.653 600.703 476.338 600.703 310.653C600.703 144.967 466.388 10.6528 300.703 10.6528C135.017 10.6528 0.702881 144.967 0.702881 310.653C0.702881 476.338 135.017 610.653 300.703 610.653Z" fill="#4EC8FC"/>
<mask id="mask0_2_1508" style="mask-type:alpha" maskUnits="userSpaceOnUse" x="0" y="10" width="601" height="601">
<path d="M300.703 610.653C466.388 610.653 600.703 476.338 600.703 310.653C600.703 144.967 466.388 10.6528 300.703 10.6528C135.017 10.6528 0.702881 144.967 0.702881 310.653C0.702881 476.338 135.017 610.653 300.703 610.653Z" fill="#85DAFF"/>
</mask>
<g mask="url(#mask0_2_1508)">
<path fill-rule="evenodd" clip-rule="evenodd" d="M313.747 280.242L283.252 244.497L329.819 240.488L313.747 280.242Z" fill="#013449"/>
<path fill-rule="evenodd" clip-rule="evenodd" d="M283.252 244.494L291.726 208.491L329.819 240.487L283.252 244.494Z" fill="#013449"/>
<path fill-rule="evenodd" clip-rule="evenodd" d="M291.725 208.491L397.872 216.79L329.819 240.487L291.725 208.491Z" fill="#013449"/>
<path fill-rule="evenodd" clip-rule="evenodd" d="M313.746 280.238L397.872 216.787L329.818 240.484L313.746 280.238Z" fill="#013449"/>
<path fill-rule="evenodd" clip-rule="evenodd" d="M313.746 280.238H360.844L397.872 216.787L313.746 280.238Z" fill="#013449"/>
<path fill-rule="evenodd" clip-rule="evenodd" d="M397.873 216.787L378.858 341.5L360.844 280.238L397.873 216.787Z" fill="#013449"/>
<path fill-rule="evenodd" clip-rule="evenodd" d="M397.872 216.789L320.1 172.008L291.725 208.49L397.872 216.789Z" fill="#013449"/>
<path fill-rule="evenodd" clip-rule="evenodd" d="M320.101 172.007L369.135 164.964L371.429 178.632L320.101 172.007Z" fill="#013449"/>
<path fill-rule="evenodd" clip-rule="evenodd" d="M320.101 172.008L371.429 178.633L397.874 216.789L320.101 172.008Z" fill="#013449"/>
<path fill-rule="evenodd" clip-rule="evenodd" d="M371.429 178.629L397.874 187.059V216.785L371.429 178.629Z" fill="#013449"/>
<path fill-rule="evenodd" clip-rule="evenodd" d="M397.868 216.785L406.057 181.092L397.868 187.059V216.785Z" fill="#013449"/>
<path fill-rule="evenodd" clip-rule="evenodd" d="M406.064 181.092L434.466 187.059L397.875 216.785L406.064 181.092Z" fill="#013449"/>
<path fill-rule="evenodd" clip-rule="evenodd" d="M397.868 216.788L470.766 255.563L434.458 187.062L397.868 216.788Z" fill="#013449"/>
<path fill-rule="evenodd" clip-rule="evenodd" d="M470.771 255.563L378.857 341.499L397.873 216.789L470.771 255.563Z" fill="#013449"/>
<path fill-rule="evenodd" clip-rule="evenodd" d="M381.776 389.502L470.771 255.564L378.857 341.5L381.776 389.502Z" fill="#013449"/>
<path fill-rule="evenodd" clip-rule="evenodd" d="M470.771 255.564L479.949 286.519L496.45 255.564H470.771Z" fill="#013449"/>
<path fill-rule="evenodd" clip-rule="evenodd" d="M456.4 311.228L381.78 389.504L470.775 255.564L456.4 311.228Z" fill="#013449"/>
<path fill-rule="evenodd" clip-rule="evenodd" d="M456.4 311.228L479.955 286.519L470.775 255.564L456.4 311.228Z" fill="#013449"/>
<path fill-rule="evenodd" clip-rule="evenodd" d="M205.996 34.5913L207.786 40.8535L226.708 44.2667L205.996 34.5913Z" fill="#013449"/>
<path fill-rule="evenodd" clip-rule="evenodd" d="M205.996 34.5946L250.245 25.6543L226.708 44.2701L205.996 34.5946Z" fill="#013449"/>
<path fill-rule="evenodd" clip-rule="evenodd" d="M226.705 44.268L228.938 58.8729L250.242 25.6523L226.705 44.268Z" fill="#013449"/>
<path fill-rule="evenodd" clip-rule="evenodd" d="M228.934 58.8687L221.328 69.196L289.923 60.3764L228.934 58.8687Z" fill="#013449"/>
<path fill-rule="evenodd" clip-rule="evenodd" d="M221.332 69.1924L225.404 87.7561L247.577 75.7274L221.332 69.1924Z" fill="#013449"/>
<path fill-rule="evenodd" clip-rule="evenodd" d="M225.407 87.7558L238.475 88.6076L247.582 75.7271L225.407 87.7558Z" fill="#013449"/>
<path fill-rule="evenodd" clip-rule="evenodd" d="M247.577 75.7329L289.925 60.3804L221.332 69.1979" fill="#013449"/>
<path fill-rule="evenodd" clip-rule="evenodd" d="M250.239 25.6543L289.922 60.3806L228.935 58.8728L250.239 25.6543Z" fill="#013449"/>
<path fill-rule="evenodd" clip-rule="evenodd" d="M250.241 25.6543L289.924 60.3806L311.325 34.9611L250.241 25.6543Z" fill="#013449"/>
<path fill-rule="evenodd" clip-rule="evenodd" d="M300.166 22.6787L250.241 25.6484L311.323 34.9574L300.166 22.6787Z" fill="#013449"/>
<path fill-rule="evenodd" clip-rule="evenodd" d="M311.327 34.9574L327.614 28.818L300.17 22.6787L311.327 34.9574Z" fill="#013449"/>
<path fill-rule="evenodd" clip-rule="evenodd" d="M81.7576 219.201C81.7576 219.201 95.2839 219.291 97.0324 219.799C95.6128 219.137 86.7326 214.788 86.7326 214.788L81.7576 219.201Z" fill="#013449"/>
<path fill-rule="evenodd" clip-rule="evenodd" d="M104.319 219.119L94.1317 213.751L86.7315 214.784L97.1625 219.844C97.1312 219.827 97.0855 219.811 97.0334 219.796C97.1083 219.832 97.1604 219.855 97.1916 219.867L104.319 225.698L110.645 227.756L113.495 225.698L104.319 219.119Z" fill="#013449"/>
<path fill-rule="evenodd" clip-rule="evenodd" d="M122.754 226.03L116.201 225.695L116.397 229.483L111.611 231.301L120.791 233.271L129.973 231.376V229.483L122.754 226.03Z" fill="#013449"/>
<path fill-rule="evenodd" clip-rule="evenodd" d="M190.126 296.538L169.727 274.384L122.507 252.803L95.9689 263.447L95.2361 286.515L92.8652 324.024L122.965 358.973L128.088 417.386L139.658 460.921L147.301 477.207L172.089 486.984L159.366 467.766L159.662 448.536L172.089 430.325L193.936 393.755V380.989L213.49 373.184L221.908 337.837L229.612 315.764L190.126 296.538Z" fill="#013449"/>
<path fill-rule="evenodd" clip-rule="evenodd" d="M81.0074 257.187L83.1286 241.539L69.9041 234.854L75.4558 220.659L65.2184 220.976L47.9036 229.185V203.335L71.9483 192.041L90.6369 193.138L98.9696 209.234L99.6066 186.164L120.789 168.729L151.345 139.442L172.28 137.993L181.512 120.974L180.194 130.421L199.216 133.686L195.256 109.325L186.006 93.9697L172.798 87.7616L156.033 80.6539L147.906 98.4867L129.971 115.704L111.309 94.507L117.985 82.4595L144.559 77.3948L160.658 64.0686L167.207 58.8956L178.697 63.8687L161.079 73.6275L172.115 76.2889L181.934 83.1821L195.369 73.7316L201.374 66.6843L181.934 47.1772L156.572 48.4038L148.206 60.0993L142.54 52.6292L114.95 63.8687L59.6148 57.3212L8.3344 54.5243L-31.1079 63.6125L-61.8241 82.4595L-67.969 101.309L2.06667 93.9697L3.03671 128.667L-14.072 158.187L-4.19896 192.041L8.3344 213.751L3.3885 186.164L13.6321 209.234L32.2416 236.611L49.2879 239.554L69.9041 250.991L74.5441 260.602L91.2968 269.83L92.8663 263.595L81.0074 257.187Z" fill="#013449"/>
<path fill-rule="evenodd" clip-rule="evenodd" d="M95.2407 286.51L95.9734 263.442L169.733 274.379L95.2407 286.51Z" fill="#013449"/>
<path fill-rule="evenodd" clip-rule="evenodd" d="M95.9666 263.447L122.505 252.803L169.726 274.384L95.9666 263.447Z" fill="#013449"/>
<path fill-rule="evenodd" clip-rule="evenodd" d="M91.2968 269.832L92.8663 263.597L74.544 260.604L91.2968 269.832Z" fill="#013449"/>
<path fill-rule="evenodd" clip-rule="evenodd" d="M92.8663 263.598L81.0074 257.19L74.544 260.605L92.8663 263.598Z" fill="#013449"/>
<path fill-rule="evenodd" clip-rule="evenodd" d="M74.5453 260.599L69.9054 250.988L81.0087 257.184L74.5453 260.599Z" fill="#013449"/>
<path fill-rule="evenodd" clip-rule="evenodd" d="M69.9054 250.996L83.1298 241.541L81.0087 257.192L69.9054 250.996Z" fill="#013449"/>
<path fill-rule="evenodd" clip-rule="evenodd" d="M83.1308 241.535L49.2901 239.552L69.9064 250.99L83.1308 241.535Z" fill="#013449"/>
<path fill-rule="evenodd" clip-rule="evenodd" d="M49.2901 239.551L69.9064 234.85L83.1308 241.533L49.2901 239.551Z" fill="#013449"/>
<path fill-rule="evenodd" clip-rule="evenodd" d="M49.2901 239.557L65.2186 220.978L69.9064 234.856L49.2901 239.557Z" fill="#013449"/>
<path fill-rule="evenodd" clip-rule="evenodd" d="M65.2203 220.974L75.4577 220.658L69.9081 234.852L65.2203 220.974Z" fill="#013449"/>
<path fill-rule="evenodd" clip-rule="evenodd" d="M65.2173 220.978L32.2426 236.612L49.2889 239.557L65.2173 220.978Z" fill="#013449"/>
<path fill-rule="evenodd" clip-rule="evenodd" d="M32.2426 236.608L47.9025 203.333V229.484L32.2426 236.608Z" fill="#013449"/>
<path fill-rule="evenodd" clip-rule="evenodd" d="M32.2422 236.608L13.6326 209.233L47.9021 203.333L32.2422 236.608Z" fill="#013449"/>
<path fill-rule="evenodd" clip-rule="evenodd" d="M47.9003 203.333L3.38519 186.162L13.6288 209.232L47.9003 203.333Z" fill="#013449"/>
<path fill-rule="evenodd" clip-rule="evenodd" d="M3.38519 186.159L85.975 139.438L47.9003 203.33L3.38519 186.159Z" fill="#013449"/>
<path fill-rule="evenodd" clip-rule="evenodd" d="M85.9778 139.438L-14.0725 158.183L3.38802 186.159L85.9778 139.438Z" fill="#013449"/>
<path fill-rule="evenodd" clip-rule="evenodd" d="M-14.0725 158.187L-4.20152 192.041L3.38802 186.164L-14.0725 158.187Z" fill="#013449"/>
<path fill-rule="evenodd" clip-rule="evenodd" d="M3.388 186.162L8.3339 213.749L-4.19946 192.039L3.388 186.162Z" fill="#013449"/>
<path fill-rule="evenodd" clip-rule="evenodd" d="M85.9805 139.437L71.9505 192.036L47.9059 203.329L85.9805 139.437Z" fill="#013449"/>
<path fill-rule="evenodd" clip-rule="evenodd" d="M71.9472 192.036L90.6359 193.133L85.9772 139.437L71.9472 192.036Z" fill="#013449"/>
<path fill-rule="evenodd" clip-rule="evenodd" d="M90.6386 193.136L98.9713 209.232L99.6083 186.162L90.6386 193.136Z" fill="#013449"/>
<path fill-rule="evenodd" clip-rule="evenodd" d="M85.9763 139.438L99.6046 186.159L90.635 193.134L85.9763 139.438Z" fill="#013449"/>
<path fill-rule="evenodd" clip-rule="evenodd" d="M99.6046 186.159L120.787 168.724L85.9763 139.438L99.6046 186.159Z" fill="#013449"/>
<path fill-rule="evenodd" clip-rule="evenodd" d="M85.9778 139.44L3.03623 128.665L-14.0725 158.185L85.9778 139.44Z" fill="#013449"/>
<path fill-rule="evenodd" clip-rule="evenodd" d="M3.03686 128.662L2.06683 93.9644L85.9785 139.437L3.03686 128.662Z" fill="#013449"/>
<path fill-rule="evenodd" clip-rule="evenodd" d="M85.9785 139.441L59.617 57.3174L2.06683 93.9679L85.9785 139.441Z" fill="#013449"/>
<path fill-rule="evenodd" clip-rule="evenodd" d="M85.9763 139.444L129.969 115.703L120.787 168.731L85.9763 139.444Z" fill="#013449"/>
<path fill-rule="evenodd" clip-rule="evenodd" d="M120.794 168.729L151.35 139.442L129.976 115.703L120.794 168.729Z" fill="#013449"/>
<path fill-rule="evenodd" clip-rule="evenodd" d="M151.348 139.444L172.282 137.995L129.974 115.703L151.348 139.444Z" fill="#013449"/>
<path fill-rule="evenodd" clip-rule="evenodd" d="M129.974 115.701L147.909 98.4844L172.282 137.99L129.974 115.701Z" fill="#013449"/>
<path fill-rule="evenodd" clip-rule="evenodd" d="M147.91 98.4802L156.039 80.6475L172.284 137.988L147.91 98.4802Z" fill="#013449"/>
<path fill-rule="evenodd" clip-rule="evenodd" d="M156.035 80.6543L172.8 87.762L172.28 137.993L156.035 80.6543Z" fill="#013449"/>
<path fill-rule="evenodd" clip-rule="evenodd" d="M172.799 87.7598L199.214 133.684L181.51 120.974L172.799 87.7598Z" fill="#013449"/>
<path fill-rule="evenodd" clip-rule="evenodd" d="M172.799 87.7598L186.006 93.9679L199.214 133.684L172.799 87.7598Z" fill="#013449"/>
<path fill-rule="evenodd" clip-rule="evenodd" d="M181.511 120.973L180.195 130.42L199.215 133.683L181.511 120.973Z" fill="#013449"/>
<path fill-rule="evenodd" clip-rule="evenodd" d="M181.51 120.974L172.279 137.992L172.799 87.7598L181.51 120.974Z" fill="#013449"/>
<path fill-rule="evenodd" clip-rule="evenodd" d="M186.009 93.9644L195.26 109.319L199.217 133.681L186.009 93.9644Z" fill="#013449"/>
<path fill-rule="evenodd" clip-rule="evenodd" d="M2.0729 93.9683L-31.1037 63.6112L8.33854 54.5229L2.0729 93.9683Z" fill="#013449"/>
<path fill-rule="evenodd" clip-rule="evenodd" d="M8.33246 54.5229L59.6149 57.3199L2.06683 93.9683L8.33246 54.5229Z" fill="#013449"/>
<path fill-rule="evenodd" clip-rule="evenodd" d="M-31.1079 63.6094L-67.969 101.305L2.06876 93.9666L-31.1079 63.6094Z" fill="#013449"/>
<path fill-rule="evenodd" clip-rule="evenodd" d="M59.6157 57.3174L111.308 94.5032L85.9771 139.441L59.6157 57.3174Z" fill="#013449"/>
<path fill-rule="evenodd" clip-rule="evenodd" d="M111.308 94.5098L129.969 115.706L85.9763 139.445L111.308 94.5098Z" fill="#013449"/>
<path fill-rule="evenodd" clip-rule="evenodd" d="M111.308 94.5032L117.984 82.4557L59.6157 57.3174L111.308 94.5032Z" fill="#013449"/>
<path fill-rule="evenodd" clip-rule="evenodd" d="M59.6157 57.3174L114.949 63.867L117.984 82.4578L59.6157 57.3174Z" fill="#013449"/>
<path fill-rule="evenodd" clip-rule="evenodd" d="M114.951 63.8701L144.56 77.3962L117.986 82.4609L114.951 63.8701Z" fill="#013449"/>
<path fill-rule="evenodd" clip-rule="evenodd" d="M114.951 63.8665L142.541 52.625L144.56 77.3926L114.951 63.8665Z" fill="#013449"/>
<path fill-rule="evenodd" clip-rule="evenodd" d="M144.56 77.3926L148.208 60.0972L142.542 52.625L144.56 77.3926Z" fill="#013449"/>
<path fill-rule="evenodd" clip-rule="evenodd" d="M148.209 60.0991L160.66 64.0664L144.56 77.3946L148.209 60.0991Z" fill="#013449"/>
<path fill-rule="evenodd" clip-rule="evenodd" d="M148.207 60.096L156.573 48.3984L160.657 64.0632L148.207 60.096Z" fill="#013449"/>
<path fill-rule="evenodd" clip-rule="evenodd" d="M160.658 64.0662L167.207 58.8953L156.572 48.4014L160.658 64.0662Z" fill="#013449"/>
<path fill-rule="evenodd" clip-rule="evenodd" d="M167.21 58.8977L181.938 47.1772L156.575 48.4038L167.21 58.8977Z" fill="#013449"/>
<path fill-rule="evenodd" clip-rule="evenodd" d="M167.207 58.8977L178.697 63.8708L181.934 47.1772L167.207 58.8977Z" fill="#013449"/>
<path fill-rule="evenodd" clip-rule="evenodd" d="M178.698 63.8708L201.375 66.6864L181.935 47.1772L178.698 63.8708Z" fill="#013449"/>
<path fill-rule="evenodd" clip-rule="evenodd" d="M178.698 63.8701L195.367 73.7309L201.375 66.6857L178.698 63.8701Z" fill="#013449"/>
<path fill-rule="evenodd" clip-rule="evenodd" d="M178.698 63.8701L181.935 83.1836L195.367 73.7309L178.698 63.8701Z" fill="#013449"/>
<path fill-rule="evenodd" clip-rule="evenodd" d="M178.695 63.8701L172.113 76.2904L181.932 83.1836L178.695 63.8701Z" fill="#013449"/>
<path fill-rule="evenodd" clip-rule="evenodd" d="M178.699 63.8701L161.08 73.6289L172.116 76.2904L178.699 63.8701Z" fill="#013449"/>
<path fill-rule="evenodd" clip-rule="evenodd" d="M81.7576 219.201L86.7326 214.788C86.7326 214.788 98.1898 220.399 97.1615 219.847C96.1332 219.297 81.7576 219.201 81.7576 219.201Z" fill="#013449"/>
<path fill-rule="evenodd" clip-rule="evenodd" d="M86.7315 214.789L94.1317 213.757L97.1604 219.85L86.7315 214.789Z" fill="#013449"/>
<path fill-rule="evenodd" clip-rule="evenodd" d="M94.1363 213.751L104.324 219.119L97.1651 219.844L94.1363 213.751Z" fill="#013449"/>
<path fill-rule="evenodd" clip-rule="evenodd" d="M97.1612 219.844L104.318 225.698V219.12L97.1612 219.844Z" fill="#013449"/>
<path fill-rule="evenodd" clip-rule="evenodd" d="M104.32 225.698L110.643 227.756L104.32 219.12V225.698Z" fill="#013449"/>
<path fill-rule="evenodd" clip-rule="evenodd" d="M104.32 219.12L113.496 225.698L110.646 227.756L104.32 219.12Z" fill="#013449"/>
<path fill-rule="evenodd" clip-rule="evenodd" d="M111.611 231.303L120.791 233.271L116.397 229.483L111.611 231.303Z" fill="#013449"/>
<path fill-rule="evenodd" clip-rule="evenodd" d="M120.789 233.271L116.201 225.695L116.397 229.483L120.789 233.271Z" fill="#013449"/>
<path fill-rule="evenodd" clip-rule="evenodd" d="M116.201 225.695L122.754 226.03L120.791 233.271L116.201 225.695Z" fill="#013449"/>
<path fill-rule="evenodd" clip-rule="evenodd" d="M120.794 233.275L129.976 231.382L122.757 226.034L120.794 233.275Z" fill="#013449"/>
<path fill-rule="evenodd" clip-rule="evenodd" d="M122.754 226.034L129.973 229.486V231.379L122.754 226.034Z" fill="#013449"/>
<path fill-rule="evenodd" clip-rule="evenodd" d="M638.111 250.309L637.229 264.658L642.381 272.309L648.363 284.282L657.483 290.421L655.06 277.667L641.821 260.882L645.197 251.94L660.844 266.595L671.575 255.595V248.833L670.588 242.485L662.76 234.355L658.386 225.798L663.748 220.125L672.035 224.313L693.049 210.73L698.965 190.611L687.439 170.238L690.972 167.287L679.906 154.71L695.82 160.235L707.35 175.621L713.771 170.704L706.554 160.235L706.729 149.267L707.918 148.071L694.571 133.685H643.734H539.016L520.153 208.011L540.317 210.73L555.33 224.313L572.703 265.684L583.767 260.882V241.038L600.836 222.397L613.675 219.007L624.552 240.486L632.828 239.424L638.111 250.309Z" fill="#013449"/>
<path fill-rule="evenodd" clip-rule="evenodd" d="M660.85 181.742L573.349 175.567L613.681 219.005L660.85 181.742Z" fill="#013449"/>
<path fill-rule="evenodd" clip-rule="evenodd" d="M573.345 175.571L539.017 133.685L660.845 181.746L573.345 175.571Z" fill="#013449"/>
<path fill-rule="evenodd" clip-rule="evenodd" d="M573.344 175.571L520.153 208.011L539.016 133.685L573.344 175.571Z" fill="#013449"/>
<path fill-rule="evenodd" clip-rule="evenodd" d="M520.153 208.007L540.317 210.727L573.344 175.567L520.153 208.007Z" fill="#013449"/>
<path fill-rule="evenodd" clip-rule="evenodd" d="M540.322 210.727L555.335 224.309L573.349 175.567L540.322 210.727Z" fill="#013449"/>
<path fill-rule="evenodd" clip-rule="evenodd" d="M555.328 224.311L600.834 222.395L573.342 175.567L555.328 224.311Z" fill="#013449"/>
<path fill-rule="evenodd" clip-rule="evenodd" d="M555.328 224.312L572.701 265.685L583.765 241.037L555.328 224.312Z" fill="#013449"/>
<path fill-rule="evenodd" clip-rule="evenodd" d="M583.769 241.037L600.838 222.397L555.332 224.313L583.769 241.037Z" fill="#013449"/>
<path fill-rule="evenodd" clip-rule="evenodd" d="M583.769 241.04V260.885L572.705 265.687L583.769 241.04Z" fill="#013449"/>
<path fill-rule="evenodd" clip-rule="evenodd" d="M600.841 222.395L613.681 219.005L573.349 175.567L600.841 222.395Z" fill="#013449"/>
<path fill-rule="evenodd" clip-rule="evenodd" d="M687.44 170.238L539.017 133.685L660.845 181.744L687.44 170.238Z" fill="#013449"/>
<path fill-rule="evenodd" clip-rule="evenodd" d="M539.017 133.685H643.734L687.44 170.238L539.017 133.685Z" fill="#013449"/>
<path fill-rule="evenodd" clip-rule="evenodd" d="M413.244 147.147L406.697 125.232L397.942 95.9307L392.524 104.959L378.779 108.051L376.41 106.219L367.946 105.325V96.3035L362.592 100.031L361.881 107.2L348.748 116.944L326.774 126.507L336.325 135.643L333.712 143.754L318.273 142.786L313.841 145.922L312.161 157.714L313.745 166.331L320.912 168.039L333.712 167.054L338.937 160.904L344.799 151.818L348.748 148.246L350.084 143.729L357.959 145.316L365.894 141.945L374.587 150.856L382.973 156.687L383.225 160.904L374.408 162.822L381.192 167.318L386.697 161.558L388.498 155.404L391.816 155.927L388.644 151.983L381.192 148.246L375.059 139.571L378.29 137.794L390.85 147.147L401.529 167.318L405.388 168.039L409.131 153.438L414.435 163.643L419.487 168.039L413.244 147.147Z" fill="#013449"/>
<path fill-rule="evenodd" clip-rule="evenodd" d="M324.684 113.447L326.71 108.303L327.611 104.956L323.647 103.778L315.406 107.199L313.841 114.672L316.518 116.921L324.684 113.447Z" fill="#013449"/>
<path fill-rule="evenodd" clip-rule="evenodd" d="M331.329 106.342L333.123 109.235L329.043 112.067L327.187 120.924L330.197 121.638L335.242 119.51L342.318 118.131L345.767 113.21L338.989 105.04L336.327 99.0197V95.2649L333.404 93.1469C332.853 93.0011 329.57 92.77 329.57 92.77L325.996 96.3082L326.712 102.189L331.329 106.342Z" fill="#013449"/>
<path fill-rule="evenodd" clip-rule="evenodd" d="M359.977 95.2553L363.811 94.4056L367.947 92.296L374.084 99.2413L370.853 102.717L371.268 104.956L383.389 102.182V100.839L385.031 93.9204L389.948 89.8053L385.991 84.7635L385.601 82.354L396.205 72.7035L402.09 72.2828L394.334 79.1677V85.8297L399.502 89.3575L404.669 80.3068L410.389 70.5877L417.921 57.7905L408.381 54.8208H396.549L394.334 55.9807L387.444 57.3823L380.252 63.0551L369.806 73.7843L361.53 78.5159L355.075 82.354L356.717 93.1415L359.977 95.2553Z" fill="#013449"/>
<path fill-rule="evenodd" clip-rule="evenodd" d="M313.841 145.923L312.161 157.714L320.101 153.709L313.841 145.923Z" fill="#013449"/>
<path fill-rule="evenodd" clip-rule="evenodd" d="M320.098 153.711L318.273 142.788L313.841 145.924L320.098 153.711Z" fill="#013449"/>
<path fill-rule="evenodd" clip-rule="evenodd" d="M320.101 153.708L313.745 166.33L312.161 157.712L320.101 153.708Z" fill="#013449"/>
<path fill-rule="evenodd" clip-rule="evenodd" d="M320.101 153.708L320.915 168.04L313.746 166.33L320.101 153.708Z" fill="#013449"/>
<path fill-rule="evenodd" clip-rule="evenodd" d="M320.101 153.708L333.712 167.053L320.915 168.04L320.101 153.708Z" fill="#013449"/>
<path fill-rule="evenodd" clip-rule="evenodd" d="M318.275 142.79L333.715 167.058L320.101 153.713L318.275 142.79Z" fill="#013449"/>
<path fill-rule="evenodd" clip-rule="evenodd" d="M318.275 142.79L333.715 143.758V167.058L318.275 142.79Z" fill="#013449"/>
<path fill-rule="evenodd" clip-rule="evenodd" d="M333.715 143.752L338.937 160.904L333.715 167.052V143.752Z" fill="#013449"/>
<path fill-rule="evenodd" clip-rule="evenodd" d="M338.94 160.904L344.802 151.816L333.715 143.752L338.94 160.904Z" fill="#013449"/>
<path fill-rule="evenodd" clip-rule="evenodd" d="M333.715 143.75L336.327 135.638L344.802 151.813L333.715 143.75Z" fill="#013449"/>
<path fill-rule="evenodd" clip-rule="evenodd" d="M336.325 135.638L348.748 148.244L344.799 151.813L336.325 135.638Z" fill="#013449"/>
<path fill-rule="evenodd" clip-rule="evenodd" d="M348.748 148.244L350.086 143.727L336.325 135.638L348.748 148.244Z" fill="#013449"/>
<path fill-rule="evenodd" clip-rule="evenodd" d="M336.328 135.643L326.777 126.507L348.751 127.928L336.328 135.643Z" fill="#013449"/>
<path fill-rule="evenodd" clip-rule="evenodd" d="M348.748 127.923L350.086 143.728L336.325 135.639L348.748 127.923Z" fill="#013449"/>
<path fill-rule="evenodd" clip-rule="evenodd" d="M326.777 126.507L348.749 116.944V127.927L326.777 126.507Z" fill="#013449"/>
<path fill-rule="evenodd" clip-rule="evenodd" d="M348.75 116.951L361.883 107.207L348.75 127.932V116.951Z" fill="#013449"/>
<path fill-rule="evenodd" clip-rule="evenodd" d="M348.75 127.923L357.961 145.312L350.088 143.728L348.75 127.923Z" fill="#013449"/>
<path fill-rule="evenodd" clip-rule="evenodd" d="M348.75 127.923L365.898 141.941L357.961 145.312L348.75 127.923Z" fill="#013449"/>
<path fill-rule="evenodd" clip-rule="evenodd" d="M361.883 107.207L369.352 127.932H348.75L361.883 107.207Z" fill="#013449"/>
<path fill-rule="evenodd" clip-rule="evenodd" d="M369.35 127.923L365.895 141.941L348.747 127.923H369.35Z" fill="#013449"/>
<path fill-rule="evenodd" clip-rule="evenodd" d="M369.35 127.923L375.06 139.569L365.894 141.941L369.35 127.923Z" fill="#013449"/>
<path fill-rule="evenodd" clip-rule="evenodd" d="M365.894 141.951L374.587 150.862L375.06 139.577L365.894 141.951Z" fill="#013449"/>
<path fill-rule="evenodd" clip-rule="evenodd" d="M375.062 139.577L381.197 148.253L374.59 150.862L375.062 139.577Z" fill="#013449"/>
<path fill-rule="evenodd" clip-rule="evenodd" d="M374.59 150.857L382.974 156.688L381.195 148.247L374.59 150.857Z" fill="#013449"/>
<path fill-rule="evenodd" clip-rule="evenodd" d="M381.198 148.247L388.65 151.981L388.504 155.405L381.198 148.247Z" fill="#013449"/>
<path fill-rule="evenodd" clip-rule="evenodd" d="M388.642 151.987L391.815 155.936L388.496 155.411L388.642 151.987Z" fill="#013449"/>
<path fill-rule="evenodd" clip-rule="evenodd" d="M388.501 155.405L382.976 156.688L381.195 148.247L388.501 155.405Z" fill="#013449"/>
<path fill-rule="evenodd" clip-rule="evenodd" d="M388.5 155.405L386.701 161.559L382.978 156.688L388.5 155.405Z" fill="#013449"/>
<path fill-rule="evenodd" clip-rule="evenodd" d="M382.974 156.685L383.228 160.905L386.701 161.559L382.974 156.685Z" fill="#013449"/>
<path fill-rule="evenodd" clip-rule="evenodd" d="M383.226 160.903L374.408 162.822L386.698 161.557L383.226 160.903Z" fill="#013449"/>
<path fill-rule="evenodd" clip-rule="evenodd" d="M374.408 162.825L381.192 167.321L386.698 161.561L374.408 162.825Z" fill="#013449"/>
<path fill-rule="evenodd" clip-rule="evenodd" d="M361.881 107.198L367.946 105.324V96.3018L361.881 107.198Z" fill="#013449"/>
<path fill-rule="evenodd" clip-rule="evenodd" d="M367.946 96.3018L362.592 100.032L361.881 107.198L367.946 96.3018Z" fill="#013449"/>
<path fill-rule="evenodd" clip-rule="evenodd" d="M367.948 105.322L369.351 127.924L361.881 107.197L367.948 105.322Z" fill="#013449"/>
<path fill-rule="evenodd" clip-rule="evenodd" d="M367.949 105.322L376.411 106.218L369.352 127.924L367.949 105.322Z" fill="#013449"/>
<path fill-rule="evenodd" clip-rule="evenodd" d="M376.41 106.219L378.779 108.05L369.349 127.925L376.41 106.219Z" fill="#013449"/>
<path fill-rule="evenodd" clip-rule="evenodd" d="M369.349 127.923L378.289 137.792L375.059 139.569L369.349 127.923Z" fill="#013449"/>
<path fill-rule="evenodd" clip-rule="evenodd" d="M378.781 108.052L393.796 127.928H369.351L378.781 108.052Z" fill="#013449"/>
<path fill-rule="evenodd" clip-rule="evenodd" d="M369.349 127.923L378.289 137.792L393.795 127.923H369.349Z" fill="#013449"/>
<path fill-rule="evenodd" clip-rule="evenodd" d="M393.8 127.928L392.528 104.96L378.785 108.053L393.8 127.928Z" fill="#013449"/>
<path fill-rule="evenodd" clip-rule="evenodd" d="M392.523 104.959L397.941 95.9307L406.696 125.232L392.523 104.959Z" fill="#013449"/>
<path fill-rule="evenodd" clip-rule="evenodd" d="M393.795 127.928L406.696 125.234L392.523 104.96L393.795 127.928Z" fill="#013449"/>
<path fill-rule="evenodd" clip-rule="evenodd" d="M393.8 127.923L390.855 147.143L378.294 137.792L393.8 127.923Z" fill="#013449"/>
<path fill-rule="evenodd" clip-rule="evenodd" d="M390.849 147.152L406.697 125.238L393.795 127.933L390.849 147.152Z" fill="#013449"/>
<path fill-rule="evenodd" clip-rule="evenodd" d="M390.849 147.152H413.243L406.697 125.238L390.849 147.152Z" fill="#013449"/>
<path fill-rule="evenodd" clip-rule="evenodd" d="M413.247 147.151L409.133 153.442L390.853 147.151H413.247Z" fill="#013449"/>
<path fill-rule="evenodd" clip-rule="evenodd" d="M390.849 147.151L401.53 167.322L409.13 153.442L390.849 147.151Z" fill="#013449"/>
<path fill-rule="evenodd" clip-rule="evenodd" d="M401.53 167.32L405.389 168.041L409.132 153.44L401.53 167.32Z" fill="#013449"/>
<path fill-rule="evenodd" clip-rule="evenodd" d="M409.134 153.442L414.435 163.647L413.245 147.151L409.134 153.442Z" fill="#013449"/>
<path fill-rule="evenodd" clip-rule="evenodd" d="M414.439 163.647L419.488 168.043L413.249 147.151L414.439 163.647Z" fill="#013449"/>
<path fill-rule="evenodd" clip-rule="evenodd" d="M315.406 107.207L313.841 114.679L316.515 116.93L315.406 107.207Z" fill="#013449"/>
<path fill-rule="evenodd" clip-rule="evenodd" d="M315.404 107.207L322.142 109.494L316.514 116.93L315.404 107.207Z" fill="#013449"/>
<path fill-rule="evenodd" clip-rule="evenodd" d="M315.404 107.199L323.645 103.778L322.142 109.486L315.404 107.199Z" fill="#013449"/>
<path fill-rule="evenodd" clip-rule="evenodd" d="M322.149 109.483L324.686 113.444L316.52 116.92L322.149 109.483Z" fill="#013449"/>
<path fill-rule="evenodd" clip-rule="evenodd" d="M324.683 113.457L326.709 108.309L322.145 109.493L324.683 113.457Z" fill="#013449"/>
<path fill-rule="evenodd" clip-rule="evenodd" d="M323.645 103.778L326.706 108.303L322.145 109.484L323.645 103.778Z" fill="#013449"/>
<path fill-rule="evenodd" clip-rule="evenodd" d="M323.648 103.778L327.613 104.957L326.711 108.306L323.648 103.778Z" fill="#013449"/>
<path fill-rule="evenodd" clip-rule="evenodd" d="M329.04 112.065L327.184 120.924L330.193 121.638L329.04 112.065Z" fill="#013449"/>
<path fill-rule="evenodd" clip-rule="evenodd" d="M330.199 121.638L337.766 113.208L329.046 112.065L330.199 121.638Z" fill="#013449"/>
<path fill-rule="evenodd" clip-rule="evenodd" d="M330.195 121.635L335.241 119.504L337.762 113.205L330.195 121.635Z" fill="#013449"/>
<path fill-rule="evenodd" clip-rule="evenodd" d="M335.241 119.504L342.318 118.126L337.762 113.205L335.241 119.504Z" fill="#013449"/>
<path fill-rule="evenodd" clip-rule="evenodd" d="M342.318 118.126L345.765 113.205H337.764L342.318 118.126Z" fill="#013449"/>
<path fill-rule="evenodd" clip-rule="evenodd" d="M345.764 113.206L338.986 105.036L337.76 113.206H345.764Z" fill="#013449"/>
<path fill-rule="evenodd" clip-rule="evenodd" d="M337.766 113.205L333.126 109.229L329.046 112.062L337.766 113.205Z" fill="#013449"/>
<path fill-rule="evenodd" clip-rule="evenodd" d="M333.122 109.23L338.985 105.036L337.759 113.206L333.122 109.23Z" fill="#013449"/>
<path fill-rule="evenodd" clip-rule="evenodd" d="M333.122 109.23L331.328 106.337L338.988 105.036L333.122 109.23Z" fill="#013449"/>
<path fill-rule="evenodd" clip-rule="evenodd" d="M331.33 106.341L326.713 102.188L338.99 105.039L331.33 106.341Z" fill="#013449"/>
<path fill-rule="evenodd" clip-rule="evenodd" d="M338.99 105.036L336.328 99.0151L326.713 102.187L338.99 105.036Z" fill="#013449"/>
<path fill-rule="evenodd" clip-rule="evenodd" d="M326.712 102.183L325.996 96.3018L331.327 96.7599L326.712 102.183Z" fill="#013449"/>
<path fill-rule="evenodd" clip-rule="evenodd" d="M331.33 96.7671L336.328 99.0205L326.713 102.19L331.33 96.7671Z" fill="#013449"/>
<path fill-rule="evenodd" clip-rule="evenodd" d="M331.33 96.7693L333.403 93.1472C332.854 93.0013 329.57 92.77 329.57 92.77L331.33 96.7693Z" fill="#013449"/>
<path fill-rule="evenodd" clip-rule="evenodd" d="M331.327 96.7664L329.568 92.77L325.996 96.3082L331.327 96.7664Z" fill="#013449"/>
<path fill-rule="evenodd" clip-rule="evenodd" d="M333.402 93.144L336.327 95.2634L331.328 96.766L333.402 93.144Z" fill="#013449"/>
<path fill-rule="evenodd" clip-rule="evenodd" d="M336.327 95.2666V99.0241L331.328 96.7692L336.327 95.2666Z" fill="#013449"/>
<path fill-rule="evenodd" clip-rule="evenodd" d="M355.075 82.3545L356.716 93.1421L359.975 95.2559L355.075 82.3545Z" fill="#013449"/>
<path fill-rule="evenodd" clip-rule="evenodd" d="M359.98 95.2617L363.813 94.412L362.847 85.2114L359.98 95.2617Z" fill="#013449"/>
<path fill-rule="evenodd" clip-rule="evenodd" d="M355.075 82.3545L362.843 85.2055L359.977 95.2559L355.075 82.3545Z" fill="#013449"/>
<path fill-rule="evenodd" clip-rule="evenodd" d="M362.843 85.2047L361.528 78.5156L355.075 82.3537L362.843 85.2047Z" fill="#013449"/>
<path fill-rule="evenodd" clip-rule="evenodd" d="M362.847 85.2114L367.949 92.3024L363.813 94.412L362.847 85.2114Z" fill="#013449"/>
<path fill-rule="evenodd" clip-rule="evenodd" d="M367.949 92.3041L373.688 79.3716L362.845 85.2131L367.949 92.3041Z" fill="#013449"/>
<path fill-rule="evenodd" clip-rule="evenodd" d="M361.533 78.5186L373.69 79.3662L362.849 85.2077L361.533 78.5186Z" fill="#013449"/>
<path fill-rule="evenodd" clip-rule="evenodd" d="M361.533 78.5202L369.81 73.7886L373.69 79.3677L361.533 78.5202Z" fill="#013449"/>
<path fill-rule="evenodd" clip-rule="evenodd" d="M369.809 73.7854L380.254 63.0562L373.689 79.3645L369.809 73.7854Z" fill="#013449"/>
<path fill-rule="evenodd" clip-rule="evenodd" d="M380.257 63.0596L385.606 82.3564L373.691 79.3679L380.257 63.0596Z" fill="#013449"/>
<path fill-rule="evenodd" clip-rule="evenodd" d="M385.603 82.3621L367.949 92.3041L373.688 79.3716L385.603 82.3621Z" fill="#013449"/>
<path fill-rule="evenodd" clip-rule="evenodd" d="M367.949 92.2966L385.992 84.764L385.603 82.3545L367.949 92.2966Z" fill="#013449"/>
<path fill-rule="evenodd" clip-rule="evenodd" d="M385.992 84.7637L389.948 89.8055L367.949 92.2962L385.992 84.7637Z" fill="#013449"/>
<path fill-rule="evenodd" clip-rule="evenodd" d="M389.948 89.8027L385.033 93.9178L367.949 92.2935L389.948 89.8027Z" fill="#013449"/>
<path fill-rule="evenodd" clip-rule="evenodd" d="M367.949 92.2979L374.086 99.2451L385.033 93.9221L367.949 92.2979Z" fill="#013449"/>
<path fill-rule="evenodd" clip-rule="evenodd" d="M374.088 99.2413L383.393 100.839L385.036 93.9204L374.088 99.2413Z" fill="#013449"/>
<path fill-rule="evenodd" clip-rule="evenodd" d="M374.082 99.2446L370.849 102.718L383.387 100.842L374.082 99.2446Z" fill="#013449"/>
<path fill-rule="evenodd" clip-rule="evenodd" d="M370.853 102.722L371.269 104.96L383.39 100.843L370.853 102.722Z" fill="#013449"/>
<path fill-rule="evenodd" clip-rule="evenodd" d="M371.269 104.96L383.391 102.186V100.843L371.269 104.96Z" fill="#013449"/>
<path fill-rule="evenodd" clip-rule="evenodd" d="M385.604 82.3564L396.205 72.708L380.254 63.0596L385.604 82.3564Z" fill="#013449"/>
<path fill-rule="evenodd" clip-rule="evenodd" d="M396.205 72.7105L387.444 57.3872L380.254 63.0621L396.205 72.7105Z" fill="#013449"/>
<path fill-rule="evenodd" clip-rule="evenodd" d="M396.203 72.7105L402.087 72.2878L387.441 57.3872L396.203 72.7105Z" fill="#013449"/>
<path fill-rule="evenodd" clip-rule="evenodd" d="M387.441 57.3917L394.331 55.9922L402.087 72.2923L387.441 57.3917Z" fill="#013449"/>
<path fill-rule="evenodd" clip-rule="evenodd" d="M394.333 55.9828L396.547 54.8208L402.089 72.2828L394.333 55.9828Z" fill="#013449"/>
<path fill-rule="evenodd" clip-rule="evenodd" d="M402.089 72.2881L394.333 79.175L404.67 80.3121L402.089 72.2881Z" fill="#013449"/>
<path fill-rule="evenodd" clip-rule="evenodd" d="M394.333 79.1694L399.501 89.3593L404.67 80.3065L394.333 79.1694Z" fill="#013449"/>
<path fill-rule="evenodd" clip-rule="evenodd" d="M394.333 79.1694V85.8315L399.499 89.3593L394.333 79.1694Z" fill="#013449"/>
<path fill-rule="evenodd" clip-rule="evenodd" d="M402.09 72.2841L410.391 70.5889L404.671 80.3081L402.09 72.2841Z" fill="#013449"/>
<path fill-rule="evenodd" clip-rule="evenodd" d="M402.09 72.286L406.24 62.0962L410.391 70.5908L402.09 72.286Z" fill="#013449"/>
<path fill-rule="evenodd" clip-rule="evenodd" d="M406.243 62.0951L417.925 57.7925L410.394 70.5897L406.243 62.0951Z" fill="#013449"/>
<path fill-rule="evenodd" clip-rule="evenodd" d="M406.241 62.093L396.549 54.8208L402.091 72.2828L406.241 62.093Z" fill="#013449"/>
<path fill-rule="evenodd" clip-rule="evenodd" d="M406.243 62.093L417.925 57.7905L408.385 54.8208L406.243 62.093Z" fill="#013449"/>
<path fill-rule="evenodd" clip-rule="evenodd" d="M396.549 54.8208H408.383L406.241 62.093L396.549 54.8208Z" fill="#013449"/>
<path fill-rule="evenodd" clip-rule="evenodd" d="M785.374 68.9673L741.227 57.7903L704.892 58.236L660.848 50.6118L640.398 53.2483L596.697 48.5772L581.772 42.442L555.331 36.5151L493.064 53.2483L454.252 65.0438L417.922 57.7903L399.502 89.3574L397.945 95.9278L419.488 168.038L442.21 170.379L438.72 193.147L460.379 227.245L473.368 250.975L496.451 243.145L512.964 234.352L517.469 218.987L506.961 207.765L492.523 209.135L482.046 191.575L499.19 202.594L520.156 208.008L539.018 133.683C539.018 133.683 606.705 133.683 607.706 133.747L694.572 133.683L707.919 148.067L715.427 145.226L721.214 126.063L728.421 134.476L732.701 132.725L712.732 107.836L693.885 104.481L697.778 91.5045H726.97L726.408 83.77L740.117 87.6372L735.294 97.9708L756.065 117.984L759.747 105.423L751.208 92.8582L773.663 81.1481L766.65 73.5114L785.374 74.8692V68.9673Z" fill="#013449"/>
<path fill-rule="evenodd" clip-rule="evenodd" d="M399.502 89.3596L417.922 57.7925L477.937 127.926L399.502 89.3596Z" fill="#013449"/>
<path fill-rule="evenodd" clip-rule="evenodd" d="M397.945 95.9307L477.937 127.927L419.488 168.041L397.945 95.9307Z" fill="#013449"/>
<path fill-rule="evenodd" clip-rule="evenodd" d="M477.937 127.925L399.502 89.3584L397.945 95.9288L477.937 127.925Z" fill="#013449"/>
<path fill-rule="evenodd" clip-rule="evenodd" d="M419.486 168.037L442.208 170.378L477.935 127.923L419.486 168.037Z" fill="#013449"/>
<path fill-rule="evenodd" clip-rule="evenodd" d="M442.208 170.377L438.717 193.145L482.044 191.573L442.208 170.377Z" fill="#013449"/>
<path fill-rule="evenodd" clip-rule="evenodd" d="M438.717 193.148L460.376 227.245L482.044 191.576L438.717 193.148Z" fill="#013449"/>
<path fill-rule="evenodd" clip-rule="evenodd" d="M460.377 227.245L473.366 250.976L482.044 191.576L460.377 227.245Z" fill="#013449"/>
<path fill-rule="evenodd" clip-rule="evenodd" d="M482.044 191.579L488.944 229.216L473.366 250.977L482.044 191.579Z" fill="#013449"/>
<path fill-rule="evenodd" clip-rule="evenodd" d="M488.942 229.214L496.449 243.146L473.366 250.976L488.942 229.214Z" fill="#013449"/>
<path fill-rule="evenodd" clip-rule="evenodd" d="M488.945 229.216L517.469 218.991L496.451 243.149L488.945 229.216Z" fill="#013449"/>
<path fill-rule="evenodd" clip-rule="evenodd" d="M496.452 243.149L512.965 234.356L517.47 218.991L496.452 243.149Z" fill="#013449"/>
<path fill-rule="evenodd" clip-rule="evenodd" d="M482.051 191.579L492.527 209.139L488.951 229.216L482.051 191.579Z" fill="#013449"/>
<path fill-rule="evenodd" clip-rule="evenodd" d="M492.525 209.136L506.963 207.765L488.948 229.213L492.525 209.136Z" fill="#013449"/>
<path fill-rule="evenodd" clip-rule="evenodd" d="M506.963 207.765L517.471 218.988L488.948 229.213L506.963 207.765Z" fill="#013449"/>
<path fill-rule="evenodd" clip-rule="evenodd" d="M482.046 191.574L477.937 127.923L442.21 170.378L482.046 191.574Z" fill="#013449"/>
<path fill-rule="evenodd" clip-rule="evenodd" d="M482.045 191.574L499.189 202.593L477.936 127.923L482.045 191.574Z" fill="#013449"/>
<path fill-rule="evenodd" clip-rule="evenodd" d="M477.936 127.923L520.155 208.005L499.189 202.593L477.936 127.923Z" fill="#013449"/>
<path fill-rule="evenodd" clip-rule="evenodd" d="M477.936 127.923L539.017 133.679L520.155 208.005L477.936 127.923Z" fill="#013449"/>
<path fill-rule="evenodd" clip-rule="evenodd" d="M417.92 57.791L454.25 65.0445L477.935 127.925L417.92 57.791Z" fill="#013449"/>
<path fill-rule="evenodd" clip-rule="evenodd" d="M454.254 65.044L493.065 53.2485L477.938 127.924L454.254 65.044Z" fill="#013449"/>
<path fill-rule="evenodd" clip-rule="evenodd" d="M493.063 53.2485L544.989 89.3597L477.936 127.926L493.063 53.2485Z" fill="#013449"/>
<path fill-rule="evenodd" clip-rule="evenodd" d="M493.063 53.2511L555.332 36.52L544.989 89.3623L493.063 53.2511Z" fill="#013449"/>
<path fill-rule="evenodd" clip-rule="evenodd" d="M544.989 89.3584L539.017 133.681L477.936 127.925L544.989 89.3584Z" fill="#013449"/>
<path fill-rule="evenodd" clip-rule="evenodd" d="M555.335 36.52L581.775 42.4469L544.993 89.3623L555.335 36.52Z" fill="#013449"/>
<path fill-rule="evenodd" clip-rule="evenodd" d="M544.989 89.3584C544.989 89.3584 608.707 133.813 607.706 133.748C606.704 133.681 539.017 133.681 539.017 133.681L544.989 89.3584Z" fill="#013449"/>
<path fill-rule="evenodd" clip-rule="evenodd" d="M544.993 89.3621L648.408 88.5332L607.71 133.752L544.993 89.3621Z" fill="#013449"/>
<path fill-rule="evenodd" clip-rule="evenodd" d="M581.775 42.4395L596.701 48.5725L544.993 89.3548L581.775 42.4395Z" fill="#013449"/>
<path fill-rule="evenodd" clip-rule="evenodd" d="M596.701 48.5757L640.402 53.2468L544.993 89.358L596.701 48.5757Z" fill="#013449"/>
<path fill-rule="evenodd" clip-rule="evenodd" d="M640.402 53.2485L648.408 88.5308L544.993 89.3597L640.402 53.2485Z" fill="#013449"/>
</g>
<path fill-rule="evenodd" clip-rule="evenodd" d="M297.37 230.653C297.37 234.335 300.703 240.212 307.37 248.285C314.036 240.212 317.37 234.335 317.37 230.653C317.37 225.13 312.892 220.653 307.37 220.653C301.847 220.653 297.37 225.13 297.37 230.653ZM312.37 230.653C312.37 233.414 310.131 235.653 307.37 235.653C304.608 235.653 302.37 233.414 302.37 230.653C302.37 227.891 304.608 225.653 307.37 225.653C310.131 225.653 312.37 227.891 312.37 230.653Z" fill="white"/>
<path fill-rule="evenodd" clip-rule="evenodd" d="M367.37 257.32C367.37 261.002 370.703 266.879 377.37 274.952C384.036 266.879 387.37 261.002 387.37 257.32C387.37 251.797 382.892 247.32 377.37 247.32C371.847 247.32 367.37 251.797 367.37 257.32ZM382.369 257.32C382.369 260.081 380.131 262.32 377.369 262.32C374.608 262.32 372.369 260.081 372.369 257.32C372.369 254.558 374.608 252.32 377.369 252.32C380.131 252.32 382.369 254.558 382.369 257.32Z" fill="white"/>
<path fill-rule="evenodd" clip-rule="evenodd" d="M320.703 160.653C320.703 164.335 324.036 170.212 330.703 178.285C337.37 170.212 340.703 164.335 340.703 160.653C340.703 155.13 336.226 150.653 330.703 150.653C325.18 150.653 320.703 155.13 320.703 160.653ZM335.703 160.653C335.703 163.415 333.464 165.653 330.703 165.653C327.941 165.653 325.703 163.415 325.703 160.653C325.703 157.892 327.941 155.653 330.703 155.653C333.464 155.653 335.703 157.892 335.703 160.653Z" fill="white"/>
<path fill-rule="evenodd" clip-rule="evenodd" d="M367.37 180.653C367.37 184.335 370.703 190.212 377.37 198.285C384.036 190.212 387.37 184.335 387.37 180.653C387.37 175.13 382.892 170.653 377.37 170.653C371.847 170.653 367.37 175.13 367.37 180.653ZM382.369 180.653C382.369 183.415 380.131 185.653 377.369 185.653C374.608 185.653 372.369 183.415 372.369 180.653C372.369 177.892 374.608 175.653 377.369 175.653C380.131 175.653 382.369 177.892 382.369 180.653Z" fill="white"/>
<path fill-rule="evenodd" clip-rule="evenodd" d="M417.37 217.32C417.37 221.001 420.703 226.879 427.37 234.952C434.036 226.879 437.37 221.001 437.37 217.32C437.37 211.797 432.892 207.32 427.37 207.32C421.847 207.32 417.37 211.797 417.37 217.32ZM432.37 217.32C432.37 220.081 430.131 222.32 427.37 222.32C424.608 222.32 422.37 220.081 422.37 217.32C422.37 214.558 424.608 212.32 427.37 212.32C430.131 212.32 432.37 214.558 432.37 217.32Z" fill="white"/>
<path fill-rule="evenodd" clip-rule="evenodd" d="M180.703 50.6528C180.703 54.3347 184.036 60.2121 190.703 68.2851C197.37 60.2121 200.703 54.3347 200.703 50.6528C200.703 45.13 196.226 40.6528 190.703 40.6528C185.18 40.6528 180.703 45.13 180.703 50.6528ZM195.703 50.6525C195.703 53.4139 193.464 55.6525 190.703 55.6525C187.942 55.6525 185.703 53.4139 185.703 50.6525C185.703 47.8911 187.942 45.6525 190.703 45.6525C193.464 45.6525 195.703 47.8911 195.703 50.6525Z" fill="white"/>
<path fill-rule="evenodd" clip-rule="evenodd" d="M150.703 110.653C150.703 114.335 154.036 120.212 160.703 128.285C167.37 120.212 170.703 114.335 170.703 110.653C170.703 105.13 166.226 100.653 160.703 100.653C155.18 100.653 150.703 105.13 150.703 110.653ZM165.703 110.653C165.703 113.414 163.464 115.653 160.703 115.653C157.942 115.653 155.703 113.414 155.703 110.653C155.703 107.891 157.942 105.653 160.703 105.653C163.464 105.653 165.703 107.891 165.703 110.653Z" fill="white"/>
<path fill-rule="evenodd" clip-rule="evenodd" d="M120.703 117.32C120.703 121.002 124.036 126.879 130.703 134.952C137.37 126.879 140.703 121.002 140.703 117.32C140.703 111.797 136.226 107.32 130.703 107.32C125.18 107.32 120.703 111.797 120.703 117.32ZM135.703 117.32C135.703 120.082 133.464 122.32 130.703 122.32C127.942 122.32 125.703 120.082 125.703 117.32C125.703 114.559 127.942 112.32 130.703 112.32C133.464 112.32 135.703 114.559 135.703 117.32Z" fill="white"/>
<path fill-rule="evenodd" clip-rule="evenodd" d="M90.7029 160.653C90.7029 164.335 94.0362 170.212 100.703 178.285C107.37 170.212 110.703 164.335 110.703 160.653C110.703 155.13 106.226 150.653 100.703 150.653C95.18 150.653 90.7029 155.13 90.7029 160.653ZM105.703 160.653C105.703 163.415 103.464 165.653 100.703 165.653C97.9414 165.653 95.7029 163.415 95.7029 160.653C95.7029 157.892 97.9414 155.653 100.703 155.653C103.464 155.653 105.703 157.892 105.703 160.653Z" fill="white"/>
<path fill-rule="evenodd" clip-rule="evenodd" d="M47.3695 147.32C47.3695 151.002 50.7029 156.879 57.3695 164.952C64.0362 156.879 67.3695 151.002 67.3695 147.32C67.3695 141.797 62.8924 137.32 57.3695 137.32C51.8467 137.32 47.3695 141.797 47.3695 147.32ZM62.3695 147.32C62.3695 150.082 60.1309 152.32 57.3695 152.32C54.6081 152.32 52.3695 150.082 52.3695 147.32C52.3695 144.559 54.6081 142.32 57.3695 142.32C60.1309 142.32 62.3695 144.559 62.3695 147.32Z" fill="white"/>
<path fill-rule="evenodd" clip-rule="evenodd" d="M464.036 77.3193C464.036 81.0012 467.37 86.8787 474.036 94.9516C480.703 86.8787 484.036 81.0012 484.036 77.3193C484.036 71.7965 479.559 67.3193 474.036 67.3193C468.513 67.3193 464.036 71.7965 464.036 77.3193ZM479.036 77.3192C479.036 80.0806 476.798 82.3192 474.036 82.3192C471.275 82.3192 469.036 80.0806 469.036 77.3192C469.036 74.5578 471.275 72.3192 474.036 72.3192C476.798 72.3192 479.036 74.5578 479.036 77.3192Z" fill="white"/>
<path fill-rule="evenodd" clip-rule="evenodd" d="M510.703 183.986C510.703 187.668 514.036 193.546 520.703 201.619C527.37 193.546 530.703 187.668 530.703 183.986C530.703 178.463 526.226 173.986 520.703 173.986C515.18 173.986 510.703 178.463 510.703 183.986ZM525.703 183.986C525.703 186.748 523.464 188.986 520.703 188.986C517.942 188.986 515.703 186.748 515.703 183.986C515.703 181.225 517.942 178.986 520.703 178.986C523.464 178.986 525.703 181.225 525.703 183.986Z" fill="white"/>
<path fill-rule="evenodd" clip-rule="evenodd" d="M464.036 193.986C464.036 197.668 467.37 203.546 474.036 211.619C480.703 203.546 484.036 197.668 484.036 193.986C484.036 188.464 479.559 183.986 474.036 183.986C468.513 183.986 464.036 188.464 464.036 193.986ZM479.036 193.986C479.036 196.748 476.798 198.986 474.036 198.986C471.275 198.986 469.036 196.748 469.036 193.986C469.036 191.225 471.275 188.986 474.036 188.986C476.798 188.986 479.036 191.225 479.036 193.986Z" fill="white"/>
<path fill-rule="evenodd" clip-rule="evenodd" d="M500.703 137.32C500.703 141.002 504.036 146.879 510.703 154.952C517.37 146.879 520.703 141.002 520.703 137.32C520.703 131.797 516.226 127.32 510.703 127.32C505.18 127.32 500.703 131.797 500.703 137.32ZM515.703 137.32C515.703 140.081 513.464 142.32 510.703 142.32C507.941 142.32 505.703 140.081 505.703 137.32C505.703 134.558 507.941 132.32 510.703 132.32C513.464 132.32 515.703 134.558 515.703 137.32Z" fill="white"/>
<path fill-rule="evenodd" clip-rule="evenodd" d="M320.703 80.6528C320.703 84.3347 324.036 90.2121 330.703 98.2851C337.37 90.2121 340.703 84.3347 340.703 80.6528C340.703 75.13 336.226 70.6528 330.703 70.6528C325.18 70.6528 320.703 75.13 320.703 80.6528ZM335.703 80.6525C335.703 83.4139 333.464 85.6525 330.703 85.6525C327.941 85.6525 325.703 83.4139 325.703 80.6525C325.703 77.8911 327.941 75.6525 330.703 75.6525C333.464 75.6525 335.703 77.8911 335.703 80.6525Z" fill="white"/>
<path fill-rule="evenodd" clip-rule="evenodd" d="M350.703 103.986C350.703 107.668 354.036 113.546 360.703 121.619C367.37 113.546 370.703 107.668 370.703 103.986C370.703 98.4634 366.226 93.9863 360.703 93.9863C355.18 93.9863 350.703 98.4634 350.703 103.986ZM365.703 103.986C365.703 106.748 363.464 108.986 360.703 108.986C357.941 108.986 355.703 106.748 355.703 103.986C355.703 101.225 357.941 98.986 360.703 98.986C363.464 98.986 365.703 101.225 365.703 103.986Z" fill="white"/>
<path fill-rule="evenodd" clip-rule="evenodd" d="M410.703 73.9863C410.703 77.6682 414.036 83.5456 420.703 91.6186C427.37 83.5456 430.703 77.6682 430.703 73.9863C430.703 68.4634 426.226 63.9863 420.703 63.9863C415.18 63.9863 410.703 68.4634 410.703 73.9863ZM425.703 73.986C425.703 76.7474 423.464 78.986 420.703 78.986C417.941 78.986 415.703 76.7474 415.703 73.986C415.703 71.2246 417.941 68.986 420.703 68.986C423.464 68.986 425.703 71.2246 425.703 73.986Z" fill="white"/>
<path fill-rule="evenodd" clip-rule="evenodd" d="M430.703 147.32C430.703 151.002 434.036 156.879 440.703 164.952C447.37 156.879 450.703 151.002 450.703 147.32C450.703 141.797 446.226 137.32 440.703 137.32C435.18 137.32 430.703 141.797 430.703 147.32ZM445.703 147.32C445.703 150.082 443.464 152.32 440.703 152.32C437.942 152.32 435.703 150.082 435.703 147.32C435.703 144.559 437.942 142.32 440.703 142.32C443.464 142.32 445.703 144.559 445.703 147.32Z" fill="white"/>
<path fill-rule="evenodd" clip-rule="evenodd" d="M454.036 127.32C454.036 131.001 457.37 136.879 464.036 144.952C470.703 136.879 474.036 131.001 474.036 127.32C474.036 121.797 469.559 117.32 464.036 117.32C458.513 117.32 454.036 121.797 454.036 127.32ZM469.036 127.32C469.036 130.081 466.798 132.32 464.036 132.32C461.275 132.32 459.036 130.081 459.036 127.32C459.036 124.558 461.275 122.32 464.036 122.32C466.798 122.32 469.036 124.558 469.036 127.32Z" fill="white"/>
<path fill-rule="evenodd" clip-rule="evenodd" d="M230.703 53.9863C230.703 57.6682 234.036 63.5456 240.703 71.6185C247.37 63.5456 250.703 57.6682 250.703 53.9863C250.703 48.4634 246.226 43.9863 240.703 43.9863C235.18 43.9863 230.703 48.4634 230.703 53.9863ZM245.703 53.9861C245.703 56.7475 243.464 58.9861 240.703 58.9861C237.941 58.9861 235.703 56.7475 235.703 53.9861C235.703 51.2247 237.941 48.9861 240.703 48.9861C243.464 48.9861 245.703 51.2247 245.703 53.9861Z" fill="white"/>
<path fill-rule="evenodd" clip-rule="evenodd" d="M377.37 108.503C377.37 114.026 382.37 122.842 392.37 134.952C402.37 122.842 407.37 114.026 407.37 108.503C407.37 100.219 400.654 93.5029 392.37 93.5029C384.085 93.5029 377.37 100.219 377.37 108.503ZM399.87 108.503C399.87 112.645 396.512 116.003 392.37 116.003C388.227 116.003 384.87 112.645 384.87 108.503C384.87 104.361 388.227 101.003 392.37 101.003C396.512 101.003 399.87 104.361 399.87 108.503Z" fill="white"/>
<path fill-rule="evenodd" clip-rule="evenodd" d="M330.703 202.32C330.703 207.843 335.703 216.659 345.703 228.768C355.703 216.659 360.703 207.843 360.703 202.32C360.703 194.035 353.987 187.32 345.703 187.32C337.419 187.32 330.703 194.035 330.703 202.32ZM353.203 202.32C353.203 206.462 349.845 209.82 345.703 209.82C341.561 209.82 338.203 206.462 338.203 202.32C338.203 198.178 341.561 194.82 345.703 194.82C349.845 194.82 353.203 198.178 353.203 202.32Z" fill="white"/>
<path fill-rule="evenodd" clip-rule="evenodd" d="M380.703 35.6528C380.703 41.1756 385.703 49.9918 395.703 62.1012C405.703 49.9918 410.703 41.1756 410.703 35.6528C410.703 27.3685 403.987 20.6528 395.703 20.6528C387.419 20.6528 380.703 27.3685 380.703 35.6528ZM403.203 35.6532C403.203 39.7953 399.845 43.1532 395.703 43.1532C391.561 43.1532 388.203 39.7953 388.203 35.6532C388.203 31.5111 391.561 28.1532 395.703 28.1532C399.845 28.1532 403.203 31.5111 403.203 35.6532Z" fill="white"/>
<path fill-rule="evenodd" clip-rule="evenodd" d="M260.703 15.6528C260.703 21.1756 265.703 29.9918 275.703 42.1012C285.703 29.9918 290.703 21.1756 290.703 15.6528C290.703 7.36856 283.987 0.652832 275.703 0.652832C267.419 0.652832 260.703 7.36856 260.703 15.6528ZM283.203 15.6528C283.203 19.7949 279.845 23.1528 275.703 23.1528C271.561 23.1528 268.203 19.7949 268.203 15.6528C268.203 11.5107 271.561 8.15283 275.703 8.15283C279.845 8.15283 283.203 11.5107 283.203 15.6528Z" fill="white"/>
<path fill-rule="evenodd" clip-rule="evenodd" d="M80.7029 82.3193C80.7029 87.8422 85.7029 96.6583 95.7029 108.768C105.703 96.6583 110.703 87.8422 110.703 82.3193C110.703 74.0351 103.987 67.3193 95.7029 67.3193C87.4186 67.3193 80.7029 74.0351 80.7029 82.3193ZM103.203 82.3194C103.203 86.4615 99.8449 89.8194 95.7028 89.8194C91.5606 89.8194 88.2028 86.4615 88.2028 82.3194C88.2028 78.1773 91.5606 74.8194 95.7028 74.8194C99.8449 74.8194 103.203 78.1773 103.203 82.3194Z" fill="white"/>
<path fill-rule="evenodd" clip-rule="evenodd" d="M110.703 242.32C110.703 247.843 115.703 256.659 125.703 268.768C135.703 256.659 140.703 247.843 140.703 242.32C140.703 234.035 133.987 227.32 125.703 227.32C117.419 227.32 110.703 234.035 110.703 242.32ZM133.203 242.32C133.203 246.462 129.845 249.82 125.703 249.82C121.561 249.82 118.203 246.462 118.203 242.32C118.203 238.178 121.561 234.82 125.703 234.82C129.845 234.82 133.203 238.178 133.203 242.32Z" fill="white"/>
</g>
<defs>
<clipPath id="clip0_2_1508">
<rect width="600" height="266" fill="white" transform="translate(0.702881 0.652832)"/>
</clipPath>
</defs>
</svg>
