<svg width="46" height="46" viewBox="0 0 46 46" fill="none" xmlns="http://www.w3.org/2000/svg">
<g clip-path="url(#clip0_2_1219)">
<path fill-rule="evenodd" clip-rule="evenodd" d="M27.9005 9.26587C26.3512 9.26587 24.3329 9.57074 22.6598 10.2878C21.0504 10.9775 19.3212 12.2621 19.3212 14.4135C19.3212 14.6093 19.3367 14.7981 19.3663 14.9799L19.3212 14.9854L19.3214 17.3838C18.7163 17.3087 18.1335 17.2733 17.6053 17.2733C16.056 17.2733 14.0377 17.5782 12.3645 18.2952C10.7552 18.9849 9.02594 20.2695 9.02594 22.4209C9.02594 22.6167 9.04153 22.8055 9.07109 22.9873L9.02599 22.9928L9.02617 25.0233C9.02631 25.8848 9.0264 26.5079 9.02599 27.5682L9.02617 29.5989C9.02631 30.4604 9.0264 31.0835 9.02599 32.1438L9.02594 32.2849L9.06018 32.4218C9.47314 34.0728 10.8673 35.1389 12.3716 35.7722C13.9044 36.4176 15.7789 36.7198 17.6056 36.7198C19.4322 36.7198 21.3067 36.4176 22.8395 35.7722C24.1053 35.2393 25.2931 34.3998 25.8838 33.1632C26.5496 33.2472 27.2284 33.288 27.9007 33.288C29.7273 33.288 31.6018 32.9859 33.1346 32.3405C34.6389 31.7072 36.033 30.641 36.4457 28.99L36.4799 28.8533V14.9854L36.4381 14.9803C36.4655 14.7984 36.4799 14.6095 36.4799 14.4135C36.4799 12.2621 34.7506 10.9775 33.1412 10.2878C31.4681 9.57074 29.4498 9.26587 27.9005 9.26587ZM26.1847 30.8953C26.74 30.9646 27.3172 31.0002 27.9007 31.0002C29.5058 31.0002 31.0629 30.7305 32.2468 30.232C33.3853 29.7526 33.9906 29.1505 34.192 28.5516V27.2287C33.9898 27.3516 33.7809 27.4647 33.5679 27.5685C33.4251 27.6381 33.2803 27.7035 33.1346 27.7648C31.6018 28.4102 29.7273 28.7124 27.9007 28.7124C27.3295 28.7124 26.7535 28.6829 26.1847 28.6225V30.8953ZM26.1847 26.3196C26.74 26.389 27.3172 26.4246 27.9007 26.4246C29.5058 26.4246 31.0629 26.1548 32.2468 25.6563C32.3891 25.5964 32.5231 25.5346 32.649 25.4711C33.5304 25.0265 34.0159 24.4999 34.192 23.9759V22.653C34.0442 22.7428 33.8929 22.8274 33.739 22.907C33.5411 23.0092 33.339 23.1031 33.1349 23.189C31.6021 23.8344 29.7276 24.1367 27.901 24.1367C27.3295 24.1367 26.7535 24.1071 26.1847 24.0467V26.3196ZM26.1232 21.736C26.6973 21.8105 27.2958 21.8488 27.901 21.8488C29.506 21.8488 31.0631 21.579 32.2471 21.0805C32.3986 21.0168 32.5407 20.9507 32.6737 20.8829C33.2905 20.568 33.7105 20.2127 33.9642 19.8468C34.0112 19.7789 34.0525 19.7107 34.0883 19.6422C34.1304 19.5618 34.1649 19.481 34.192 19.4003V18.0774C33.8542 18.2826 33.4977 18.4606 33.1349 18.6134C31.6021 19.2588 29.7272 19.5611 27.9005 19.5611C26.7164 19.5611 25.5124 19.434 24.3943 19.169C25.2336 19.7919 25.9199 20.6313 26.1232 21.736ZM32.2401 16.4363C30.9104 17.0062 29.211 17.2733 27.9005 17.2733C26.6114 17.2733 24.9131 16.9692 23.574 16.3756C22.1461 15.7426 21.609 15.0212 21.609 14.4135C21.609 13.7051 22.1675 12.9878 23.561 12.3906C24.8906 11.8208 26.59 11.5537 27.9005 11.5537C29.211 11.5537 30.9104 11.8208 32.2401 12.3906C33.6335 12.9878 34.192 13.7051 34.192 14.4135C34.192 15.1219 33.6335 15.8391 32.2401 16.4363ZM17.6053 27.5685L17.5339 27.5683C15.73 27.5604 13.8844 27.2577 12.3717 26.6209C12.0086 26.468 11.6521 26.29 11.3141 26.0846L11.3139 27.4077C11.5154 28.0065 12.1209 28.6085 13.2594 29.0879C14.4434 29.5864 16.0007 29.8562 17.6057 29.8562C19.2109 29.8562 20.768 29.5864 21.9519 29.0879C23.0904 28.6085 23.6956 28.0064 23.8969 27.4076V26.0847C23.559 26.29 23.2026 26.468 22.8397 26.6209C21.3316 27.2558 19.4927 27.5586 17.694 27.5682L17.6053 27.5685ZM21.9448 24.4437C20.6398 25.003 18.9786 25.2707 17.6785 25.2803L17.6057 25.2806L17.5457 25.2804C16.2642 25.2713 14.5973 24.9675 13.2788 24.383C11.8509 23.75 11.3138 23.0286 11.3138 22.4209C11.3138 21.7125 11.8723 20.9952 13.2657 20.398C14.5954 19.8282 16.2948 19.5611 17.6053 19.5611C18.9158 19.5611 20.6152 19.8282 21.9448 20.398C23.3383 20.9952 23.8968 21.7125 23.8968 22.4209C23.8968 23.1293 23.3383 23.8465 21.9448 24.4437ZM11.3141 30.6604C11.652 30.8658 12.0086 31.0438 12.3716 31.1967C13.9044 31.842 15.7789 32.1442 17.6056 32.1442C19.4322 32.1442 21.3067 31.842 22.8395 31.1966C23.2025 31.0438 23.559 30.8658 23.8969 30.6604V31.9834C23.6955 32.5822 23.0902 33.1843 21.9516 33.6637C20.7678 34.1622 19.2106 34.432 17.6056 34.432C16.0005 34.432 14.4434 34.1622 13.2593 33.6637C12.1209 33.1843 11.5154 32.5823 11.3139 31.9834L11.3141 30.6604Z" fill="#0AB7F3"/>
</g>
<defs>
<clipPath id="clip0_2_1219">
<rect x="0.212891" y="0.452881" width="45.08" height="45.08" rx="4" fill="white"/>
</clipPath>
</defs>
</svg>
