<svg width="165" height="129" viewBox="0 0 165 129" fill="none" xmlns="http://www.w3.org/2000/svg">
<g clip-path="url(#clip0_2_329)">
<path fill-rule="evenodd" clip-rule="evenodd" d="M65.4405 8.65271H60.7029H55.9669C8.59885 8.65271 0.70285 20.0479 0.70285 34.1071V68.6527V103.199C0.70285 117.258 8.59885 128.653 55.9669 128.653H60.7029H65.4405C112.809 128.653 120.703 117.258 120.703 103.199V68.6527V34.1071C120.703 20.0479 112.809 8.65271 65.4405 8.65271Z" fill="#FFFCC7"/>
<path fill-rule="evenodd" clip-rule="evenodd" d="M50.1312 45.0563L49.6062 47.5266C49.3464 48.7486 53.5131 50.6704 58.9132 51.8183C64.315 52.9665 68.9031 52.9055 69.1629 51.6835L69.688 49.2132L50.1312 45.0563Z" fill="#E4A34D"/>
<path fill-rule="evenodd" clip-rule="evenodd" d="M52.2041 49.7294C53.0074 50.0963 53.9683 50.4589 55.042 50.8008L55.998 46.3031L53.0648 45.6797L52.2041 49.7294Z" fill="#FEF068"/>
<path fill-rule="evenodd" clip-rule="evenodd" d="M52.2041 49.7294L53.0648 45.6797L50.1318 45.0562L49.6066 47.5266C49.475 48.1458 50.4812 48.9432 52.2041 49.7294Z" fill="#FDD535"/>
<path fill-rule="evenodd" clip-rule="evenodd" d="M55.0421 50.8013C56.2158 51.1747 57.5224 51.523 58.914 51.8188C59.3158 51.9042 59.7111 51.9797 60.1018 52.0524L61.0936 47.3868L55.9981 46.3037L55.0421 50.8013Z" fill="#FDD535"/>
<path fill-rule="evenodd" clip-rule="evenodd" d="M69.6879 49.2132C69.4282 50.4352 64.8401 50.4962 59.4399 49.3483C54.0382 48.2001 49.8714 46.2783 50.1311 45.0563C50.3909 43.8343 54.9791 43.7733 60.3809 44.9215C65.781 46.0693 69.9477 47.9912 69.6879 49.2132Z" fill="#FDD535"/>
<path fill-rule="evenodd" clip-rule="evenodd" d="M69.3349 48.4107C69.8585 49.8181 64.4659 49.7443 59.5763 48.705C54.6851 47.6653 50.0514 45.4462 50.7795 44.4666C50.4134 44.6178 50.1825 44.8131 50.1307 45.0569C49.8709 46.2788 54.038 48.1991 59.4398 49.3472C64.8399 50.4951 69.4276 50.4357 69.6874 49.2138C69.7392 48.97 69.6095 48.698 69.3349 48.4107Z" fill="#FFF5AB"/>
<path fill-rule="evenodd" clip-rule="evenodd" d="M48.6445 4.86957C49.9077 3.07254 62.3734 10.8138 65.5014 13.0709C68.6294 15.3279 72.8423 20.4664 76.4694 21.8742C80.0964 23.282 93.3145 25.9849 93.3145 25.9849L88.1758 43.6736L85.4339 43.0908C85.4339 43.0908 81.4426 44.8949 81.0244 45.8663C80.6058 46.8394 79.7776 49.7393 77.0538 51.071C74.3303 52.401 71.5734 54.8927 70.6894 55.5533C69.807 56.2144 67.6791 53.7464 70.2822 50.4802C72.887 47.2144 75.1955 44.8408 74.9861 41.8254C74.7784 38.8103 71.7015 32.3194 70.2012 31.8955C68.6995 31.4696 63.3705 31.0805 59.4325 33.6378C55.4926 36.1964 54.349 36.5885 53.9448 37.9881C53.5423 39.388 52.3291 47.0876 49.2431 48.1306C46.1575 49.1719 47.0939 45.7631 47.0483 44.4797C47.0023 43.1979 46.9107 35.6443 47.8652 34.15C48.8197 32.6557 55.7571 24.4739 57.1483 23.921C58.5379 23.3678 60.5816 22.7419 60.5816 22.7419C60.5816 22.7419 55.0826 19.6624 53.3566 19.2955C51.6307 18.9287 44.8099 19.071 43.2808 19.2762C41.7517 19.4813 40.1493 19.0357 39.0388 18.2678C37.9279 17.5015 36.9538 15.5973 37.6554 14.7911C38.3569 13.9849 42.1696 13.5233 42.1696 13.5233C42.1696 13.5233 39.1654 11.1858 41.1474 8.84956C42.0359 7.65793 47.7506 9.72294 51.7294 10.5687C48.6782 9.85299 46.9064 7.20773 48.6445 4.86957Z" fill="#FFDBB9"/>
<path fill-rule="evenodd" clip-rule="evenodd" d="M48.6445 4.86957C49.9077 3.07254 62.3733 10.8138 65.5014 13.0709C68.6294 15.3279 72.8423 20.4664 76.4694 21.8742C80.0964 23.282 93.3145 25.9849 93.3145 25.9849L88.1758 43.6736L85.4339 43.0908C85.4339 43.0908 81.4426 44.8949 81.0244 45.8663C80.6058 46.8394 79.7776 49.7393 77.0538 51.071C74.3303 52.401 71.5734 54.8927 70.6894 55.5533C69.807 56.2144 67.6791 53.7464 70.2822 50.4802C72.887 47.2144 75.1955 44.8408 74.9861 41.8254C74.7784 38.8103 71.7015 32.3194 70.2012 31.8955C68.6995 31.4696 63.3705 31.0805 59.4325 33.6378C55.4926 36.1964 54.349 36.5885 53.9448 37.9881C53.5423 39.388 52.329 47.0876 49.2431 48.1306C46.1575 49.1719 47.0939 45.7631 47.0483 44.4797C47.0023 43.1979 46.9107 35.6443 47.8652 34.15C48.8197 32.6557 55.7571 24.4739 57.1483 23.921C58.5379 23.3678 60.5816 22.7419 60.5816 22.7419C60.5816 22.7419 55.0826 19.6624 53.3566 19.2955C51.6307 18.9287 44.8099 19.071 43.2808 19.2762C41.7517 19.4813 40.1493 19.0357 39.0388 18.2678C37.9279 17.5015 36.9538 15.5973 37.6554 14.7911C38.3569 13.9849 42.1696 13.5233 42.1696 13.5233C42.1696 13.5233 39.1654 11.1858 41.1474 8.84956C42.0359 7.65793 47.7506 9.72294 51.7294 10.5687C48.6782 9.85299 46.9064 7.20773 48.6445 4.86957Z" stroke="black" stroke-width="1.00459" stroke-linecap="round" stroke-linejoin="round"/>
<path fill-rule="evenodd" clip-rule="evenodd" d="M94.3436 49.0096L120.813 55.676L126.414 29.3259L99.9445 22.6595L94.3436 49.0096Z" fill="white"/>
<path d="M117.703 27.1527L99.9445 22.6595L94.3436 49.0096L120.703 55.1527" stroke="#020202" stroke-width="1.00459" stroke-linecap="round" stroke-linejoin="round"/>
<path fill-rule="evenodd" clip-rule="evenodd" d="M95.6404 51.0059L85.759 48.9056L92.0601 19.2617L95.3538 19.9618L95.9506 25.2525L98.6476 20.6619L101.941 21.362L95.6404 51.0059Z" fill="white"/>
<path fill-rule="evenodd" clip-rule="evenodd" d="M95.6404 51.0059L85.759 48.9056L92.0601 19.2617L95.3538 19.9618L95.9506 25.2525L98.6476 20.6619L101.941 21.362L95.6404 51.0059Z" stroke="#020202" stroke-width="1.00459" stroke-linecap="round" stroke-linejoin="round"/>
<path d="M51.73 10.568C55.3929 11.3535 59.6753 11.9866 62.9331 14.7911" stroke="#020202" stroke-width="1.00459" stroke-linecap="round" stroke-linejoin="round"/>
<path d="M42.1693 13.5228C48.3397 13.1441 51.1064 12.51 55.0954 13.6402C59.0844 14.7704 61.2155 16.2355 61.2155 16.2355" stroke="#020202" stroke-width="1.00459" stroke-linecap="round" stroke-linejoin="round"/>
<path fill-rule="evenodd" clip-rule="evenodd" d="M38.7029 89.6527H75.7029V62.6527H38.7029V89.6527Z" fill="#666E34"/>
<path fill-rule="evenodd" clip-rule="evenodd" d="M36.7029 91.6527H76.7029V88.6527H36.7029V91.6527Z" fill="#A8C75F"/>
<path fill-rule="evenodd" clip-rule="evenodd" d="M36.7029 86.6527H76.7029V83.6527H36.7029V86.6527Z" fill="#A8C75F"/>
<path fill-rule="evenodd" clip-rule="evenodd" d="M36.7029 80.6527H76.7029V77.6527H36.7029V80.6527Z" fill="#A8C75F"/>
<path fill-rule="evenodd" clip-rule="evenodd" d="M36.7029 75.6527H76.7029V72.6527H36.7029V75.6527Z" fill="#A8C75F"/>
<path fill-rule="evenodd" clip-rule="evenodd" d="M36.7029 70.6527H76.7029V67.6527H36.7029V70.6527Z" fill="#A8C75F"/>
<path fill-rule="evenodd" clip-rule="evenodd" d="M36.7029 65.6527H76.7029V62.6527H36.7029V65.6527Z" fill="#A8C75F"/>
<path fill-rule="evenodd" clip-rule="evenodd" d="M65.7029 65.6527H77.7029V62.6527H65.7029V65.6527Z" fill="#899845"/>
<path fill-rule="evenodd" clip-rule="evenodd" d="M65.7029 70.6527H77.7029V67.6527H65.7029V70.6527Z" fill="#899845"/>
<path fill-rule="evenodd" clip-rule="evenodd" d="M65.7029 75.6527H77.7029V72.6527H65.7029V75.6527Z" fill="#899845"/>
<path fill-rule="evenodd" clip-rule="evenodd" d="M65.7029 80.6527H77.7029V77.6527H65.7029V80.6527Z" fill="#899845"/>
<path fill-rule="evenodd" clip-rule="evenodd" d="M65.7029 86.6527H77.7029V83.6527H65.7029V86.6527Z" fill="#899845"/>
<path fill-rule="evenodd" clip-rule="evenodd" d="M65.7029 91.6527H77.7029V88.6527H65.7029V91.6527Z" fill="#899845"/>
<path fill-rule="evenodd" clip-rule="evenodd" d="M46.7029 91.6527H56.7029V62.6527H46.7029V91.6527Z" fill="#EBEED8"/>
<path fill-rule="evenodd" clip-rule="evenodd" d="M63.7029 124.653H80.7029V94.6527H63.7029V124.653Z" fill="#C56639"/>
<path fill-rule="evenodd" clip-rule="evenodd" d="M61.7029 101.653H81.7029V98.6527H61.7029V101.653Z" fill="#FDD535"/>
<path fill-rule="evenodd" clip-rule="evenodd" d="M65.7029 101.653H68.7029V98.6527H65.7029V101.653Z" fill="#FEF068"/>
<path fill-rule="evenodd" clip-rule="evenodd" d="M73.7029 101.653H81.7029V98.6527H73.7029V101.653Z" fill="#E4A34D"/>
<path fill-rule="evenodd" clip-rule="evenodd" d="M61.7029 96.6527H81.7029V93.6527H61.7029V96.6527Z" fill="#FDD535"/>
<path fill-rule="evenodd" clip-rule="evenodd" d="M65.7029 96.6527H68.7029V93.6527H65.7029V96.6527Z" fill="#FEF068"/>
<path fill-rule="evenodd" clip-rule="evenodd" d="M73.7029 96.6527H81.7029V93.6527H73.7029V96.6527Z" fill="#E4A34D"/>
<path fill-rule="evenodd" clip-rule="evenodd" d="M61.7029 106.653H81.7029V103.653H61.7029V106.653Z" fill="#FDD535"/>
<path fill-rule="evenodd" clip-rule="evenodd" d="M65.7029 106.653H68.7029V103.653H65.7029V106.653Z" fill="#FEF068"/>
<path fill-rule="evenodd" clip-rule="evenodd" d="M73.7029 106.653H81.7029V103.653H73.7029V106.653Z" fill="#E4A34D"/>
<path fill-rule="evenodd" clip-rule="evenodd" d="M61.7029 111.653H81.7029V108.653H61.7029V111.653Z" fill="#FDD535"/>
<path fill-rule="evenodd" clip-rule="evenodd" d="M65.7029 111.653H68.7029V108.653H65.7029V111.653Z" fill="#FEF068"/>
<path fill-rule="evenodd" clip-rule="evenodd" d="M73.7029 111.653H81.7029V108.653H73.7029V111.653Z" fill="#E4A34D"/>
<path fill-rule="evenodd" clip-rule="evenodd" d="M61.7029 116.653H81.7029V113.653H61.7029V116.653Z" fill="#FDD535"/>
<path fill-rule="evenodd" clip-rule="evenodd" d="M65.7029 116.653H68.7029V113.653H65.7029V116.653Z" fill="#FEF068"/>
<path fill-rule="evenodd" clip-rule="evenodd" d="M73.7029 116.653H81.7029V113.653H73.7029V116.653Z" fill="#E4A34D"/>
<path fill-rule="evenodd" clip-rule="evenodd" d="M61.7029 121.653H81.7029V118.653H61.7029V121.653Z" fill="#FDD535"/>
<path fill-rule="evenodd" clip-rule="evenodd" d="M65.7029 121.653H68.7029V118.653H65.7029V121.653Z" fill="#FEF068"/>
<path fill-rule="evenodd" clip-rule="evenodd" d="M73.7029 121.653H81.7029V118.653H73.7029V121.653Z" fill="#E4A34D"/>
<path fill-rule="evenodd" clip-rule="evenodd" d="M61.7029 126.653H81.7029V123.653H61.7029V126.653Z" fill="#FDD535"/>
<path fill-rule="evenodd" clip-rule="evenodd" d="M65.7029 126.653H68.7029V123.653H65.7029V126.653Z" fill="#FEF068"/>
<path fill-rule="evenodd" clip-rule="evenodd" d="M73.7029 126.653H81.7029V123.653H73.7029V126.653Z" fill="#E4A34D"/>
<path fill-rule="evenodd" clip-rule="evenodd" d="M78.7029 95.6527H115.703V68.6527H78.7029V95.6527Z" fill="#666E34"/>
<path fill-rule="evenodd" clip-rule="evenodd" d="M77.7029 96.6527H117.703V93.6527H77.7029V96.6527Z" fill="#A8C75F"/>
<path fill-rule="evenodd" clip-rule="evenodd" d="M77.7029 91.6527H117.703V88.6527H77.7029V91.6527Z" fill="#A8C75F"/>
<path fill-rule="evenodd" clip-rule="evenodd" d="M77.7029 86.6527H117.703V83.6527H77.7029V86.6527Z" fill="#A8C75F"/>
<path fill-rule="evenodd" clip-rule="evenodd" d="M77.7029 81.6527H117.703V78.6527H77.7029V81.6527Z" fill="#A8C75F"/>
<path fill-rule="evenodd" clip-rule="evenodd" d="M77.7029 76.6527H117.703V73.6527H77.7029V76.6527Z" fill="#A8C75F"/>
<path fill-rule="evenodd" clip-rule="evenodd" d="M77.7029 71.6527H117.703V68.6527H77.7029V71.6527Z" fill="#A8C75F"/>
<path fill-rule="evenodd" clip-rule="evenodd" d="M93.7029 111.653H130.703V84.6527H93.7029V111.653Z" fill="#666E34"/>
<path fill-rule="evenodd" clip-rule="evenodd" d="M92.7029 112.653H132.703V109.653H92.7029V112.653Z" fill="#A8C75F"/>
<path fill-rule="evenodd" clip-rule="evenodd" d="M92.7029 107.653H132.703V104.653H92.7029V107.653Z" fill="#A8C75F"/>
<path fill-rule="evenodd" clip-rule="evenodd" d="M92.7029 102.653H132.703V99.6527H92.7029V102.653Z" fill="#A8C75F"/>
<path fill-rule="evenodd" clip-rule="evenodd" d="M92.7029 97.6527H132.703V94.6527H92.7029V97.6527Z" fill="#A8C75F"/>
<path fill-rule="evenodd" clip-rule="evenodd" d="M92.7029 92.6527H132.703V89.6527H92.7029V92.6527Z" fill="#A8C75F"/>
<path fill-rule="evenodd" clip-rule="evenodd" d="M92.7029 87.6527H132.703V84.6527H92.7029V87.6527Z" fill="#A8C75F"/>
<path fill-rule="evenodd" clip-rule="evenodd" d="M108.703 112.653H131.703V109.653H108.703V112.653Z" fill="#899845"/>
<path fill-rule="evenodd" clip-rule="evenodd" d="M108.703 107.653H131.703V104.653H108.703V107.653Z" fill="#899845"/>
<path fill-rule="evenodd" clip-rule="evenodd" d="M108.703 102.653H131.703V99.6527H108.703V102.653Z" fill="#899845"/>
<path fill-rule="evenodd" clip-rule="evenodd" d="M108.703 97.6527H131.703V94.6527H108.703V97.6527Z" fill="#899845"/>
<path fill-rule="evenodd" clip-rule="evenodd" d="M108.703 92.6527H131.703V89.6527H108.703V92.6527Z" fill="#899845"/>
<path fill-rule="evenodd" clip-rule="evenodd" d="M108.703 87.6527H131.703V84.6527H108.703V87.6527Z" fill="#899845"/>
<path fill-rule="evenodd" clip-rule="evenodd" d="M11.7029 116.653H48.7029V89.6527H11.7029V116.653Z" fill="#666E34"/>
<path fill-rule="evenodd" clip-rule="evenodd" d="M10.7029 117.653H50.7029V114.653H10.7029V117.653Z" fill="#A8C75F"/>
<path fill-rule="evenodd" clip-rule="evenodd" d="M10.7029 112.653H50.7029V109.653H10.7029V112.653Z" fill="#A8C75F"/>
<path fill-rule="evenodd" clip-rule="evenodd" d="M10.7029 107.653H50.7029V104.653H10.7029V107.653Z" fill="#A8C75F"/>
<path fill-rule="evenodd" clip-rule="evenodd" d="M10.7029 102.653H50.7029V99.6527H10.7029V102.653Z" fill="#A8C75F"/>
<path fill-rule="evenodd" clip-rule="evenodd" d="M10.7029 97.6527H50.7029V94.6527H10.7029V97.6527Z" fill="#A8C75F"/>
<path fill-rule="evenodd" clip-rule="evenodd" d="M10.7029 92.6527H50.7029V89.6527H10.7029V92.6527Z" fill="#A8C75F"/>
<path fill-rule="evenodd" clip-rule="evenodd" d="M30.7029 92.6527H50.7029V89.6527H30.7029V92.6527Z" fill="#899845"/>
<path fill-rule="evenodd" clip-rule="evenodd" d="M30.7029 97.6527H50.7029V94.6527H30.7029V97.6527Z" fill="#899845"/>
<path fill-rule="evenodd" clip-rule="evenodd" d="M30.7029 102.653H50.7029V99.6527H30.7029V102.653Z" fill="#899845"/>
<path fill-rule="evenodd" clip-rule="evenodd" d="M30.7029 107.653H50.7029V104.653H30.7029V107.653Z" fill="#899845"/>
<path fill-rule="evenodd" clip-rule="evenodd" d="M30.7029 112.653H50.7029V109.653H30.7029V112.653Z" fill="#899845"/>
<path fill-rule="evenodd" clip-rule="evenodd" d="M30.7029 117.653H50.7029V114.653H30.7029V117.653Z" fill="#899845"/>
<path fill-rule="evenodd" clip-rule="evenodd" d="M50.7029 104.653H67.7029V79.6527H50.7029V104.653Z" fill="#C56639"/>
<path fill-rule="evenodd" clip-rule="evenodd" d="M48.7029 81.6527H68.7029V78.6527H48.7029V81.6527Z" fill="#FDD535"/>
<path fill-rule="evenodd" clip-rule="evenodd" d="M51.7029 81.6527H54.7029V78.6527H51.7029V81.6527Z" fill="#FEF068"/>
<path fill-rule="evenodd" clip-rule="evenodd" d="M60.7029 81.6527H68.7029V78.6527H60.7029V81.6527Z" fill="#E4A34D"/>
<path fill-rule="evenodd" clip-rule="evenodd" d="M48.7029 86.6527H68.7029V83.6527H48.7029V86.6527Z" fill="#FDD535"/>
<path fill-rule="evenodd" clip-rule="evenodd" d="M51.7029 86.6527H54.7029V83.6527H51.7029V86.6527Z" fill="#FEF068"/>
<path fill-rule="evenodd" clip-rule="evenodd" d="M60.7029 86.6527H68.7029V83.6527H60.7029V86.6527Z" fill="#E4A34D"/>
<path fill-rule="evenodd" clip-rule="evenodd" d="M48.7029 91.6527H68.7029V88.6527H48.7029V91.6527Z" fill="#FDD535"/>
<path fill-rule="evenodd" clip-rule="evenodd" d="M51.7029 91.6527H54.7029V88.6527H51.7029V91.6527Z" fill="#FEF068"/>
<path fill-rule="evenodd" clip-rule="evenodd" d="M60.7029 91.6527H68.7029V88.6527H60.7029V91.6527Z" fill="#E4A34D"/>
<path fill-rule="evenodd" clip-rule="evenodd" d="M48.7029 96.6527H68.7029V93.6527H48.7029V96.6527Z" fill="#FDD535"/>
<path fill-rule="evenodd" clip-rule="evenodd" d="M51.7029 96.6527H54.7029V93.6527H51.7029V96.6527Z" fill="#FEF068"/>
<path fill-rule="evenodd" clip-rule="evenodd" d="M60.7029 96.6527H68.7029V93.6527H60.7029V96.6527Z" fill="#E4A34D"/>
<path fill-rule="evenodd" clip-rule="evenodd" d="M48.7029 101.653H68.7029V98.6527H48.7029V101.653Z" fill="#FDD535"/>
<path fill-rule="evenodd" clip-rule="evenodd" d="M51.7029 101.653H54.7029V98.6527H51.7029V101.653Z" fill="#FEF068"/>
<path fill-rule="evenodd" clip-rule="evenodd" d="M60.7029 101.653H68.7029V98.6527H60.7029V101.653Z" fill="#E4A34D"/>
<path fill-rule="evenodd" clip-rule="evenodd" d="M48.7029 106.653H68.7029V103.653H48.7029V106.653Z" fill="#FDD535"/>
<path fill-rule="evenodd" clip-rule="evenodd" d="M51.7029 106.653H54.7029V103.653H51.7029V106.653Z" fill="#FEF068"/>
<path fill-rule="evenodd" clip-rule="evenodd" d="M60.7029 106.653H68.7029V103.653H60.7029V106.653Z" fill="#E4A34D"/>
<path fill-rule="evenodd" clip-rule="evenodd" d="M80.7029 126.653H97.7029V96.6527H80.7029V126.653Z" fill="#C56639"/>
<path fill-rule="evenodd" clip-rule="evenodd" d="M78.7029 102.653H98.7029V99.6527H78.7029V102.653Z" fill="#FDD535"/>
<path fill-rule="evenodd" clip-rule="evenodd" d="M82.7029 102.653H85.7029V99.6527H82.7029V102.653Z" fill="#FEF068"/>
<path fill-rule="evenodd" clip-rule="evenodd" d="M90.7029 102.653H98.7029V99.6527H90.7029V102.653Z" fill="#E4A34D"/>
<path fill-rule="evenodd" clip-rule="evenodd" d="M78.7029 97.6527H98.7029V94.6527H78.7029V97.6527Z" fill="#FDD535"/>
<path fill-rule="evenodd" clip-rule="evenodd" d="M82.7029 97.6527H85.7029V94.6527H82.7029V97.6527Z" fill="#FEF068"/>
<path fill-rule="evenodd" clip-rule="evenodd" d="M90.7029 97.6527H98.7029V94.6527H90.7029V97.6527Z" fill="#E4A34D"/>
<path fill-rule="evenodd" clip-rule="evenodd" d="M78.7029 107.653H98.7029V104.653H78.7029V107.653Z" fill="#FDD535"/>
<path fill-rule="evenodd" clip-rule="evenodd" d="M82.7029 107.653H85.7029V104.653H82.7029V107.653Z" fill="#FEF068"/>
<path fill-rule="evenodd" clip-rule="evenodd" d="M90.7029 107.653H98.7029V104.653H90.7029V107.653Z" fill="#E4A34D"/>
<path fill-rule="evenodd" clip-rule="evenodd" d="M78.7029 112.653H98.7029V109.653H78.7029V112.653Z" fill="#FDD535"/>
<path fill-rule="evenodd" clip-rule="evenodd" d="M82.7029 112.653H85.7029V109.653H82.7029V112.653Z" fill="#FEF068"/>
<path fill-rule="evenodd" clip-rule="evenodd" d="M90.7029 112.653H98.7029V109.653H90.7029V112.653Z" fill="#E4A34D"/>
<path fill-rule="evenodd" clip-rule="evenodd" d="M78.7029 117.653H98.7029V114.653H78.7029V117.653Z" fill="#FDD535"/>
<path fill-rule="evenodd" clip-rule="evenodd" d="M82.7029 117.653H85.7029V114.653H82.7029V117.653Z" fill="#FEF068"/>
<path fill-rule="evenodd" clip-rule="evenodd" d="M90.7029 117.653H98.7029V114.653H90.7029V117.653Z" fill="#E4A34D"/>
<path fill-rule="evenodd" clip-rule="evenodd" d="M78.7029 122.653H98.7029V119.653H78.7029V122.653Z" fill="#FDD535"/>
<path fill-rule="evenodd" clip-rule="evenodd" d="M82.7029 122.653H85.7029V119.653H82.7029V122.653Z" fill="#FEF068"/>
<path fill-rule="evenodd" clip-rule="evenodd" d="M90.7029 122.653H98.7029V119.653H90.7029V122.653Z" fill="#E4A34D"/>
<path fill-rule="evenodd" clip-rule="evenodd" d="M78.7029 127.653H98.7029V124.653H78.7029V127.653Z" fill="#FDD535"/>
<path fill-rule="evenodd" clip-rule="evenodd" d="M82.7029 127.653H85.7029V124.653H82.7029V127.653Z" fill="#FEF068"/>
<path fill-rule="evenodd" clip-rule="evenodd" d="M90.7029 127.653H98.7029V124.653H90.7029V127.653Z" fill="#E4A34D"/>
<path fill-rule="evenodd" clip-rule="evenodd" d="M33.7029 126.653H50.7029V106.653H33.7029V126.653Z" fill="#C56639"/>
<path fill-rule="evenodd" clip-rule="evenodd" d="M31.7029 107.653H51.7029V104.653H31.7029V107.653Z" fill="#FDD535"/>
<path fill-rule="evenodd" clip-rule="evenodd" d="M35.7029 107.653H38.7029V104.653H35.7029V107.653Z" fill="#FEF068"/>
<path fill-rule="evenodd" clip-rule="evenodd" d="M43.7029 107.653H51.7029V104.653H43.7029V107.653Z" fill="#E4A34D"/>
<path fill-rule="evenodd" clip-rule="evenodd" d="M31.7029 112.653H51.7029V109.653H31.7029V112.653Z" fill="#FDD535"/>
<path fill-rule="evenodd" clip-rule="evenodd" d="M35.7029 112.653H38.7029V109.653H35.7029V112.653Z" fill="#FEF068"/>
<path fill-rule="evenodd" clip-rule="evenodd" d="M43.7029 112.653H51.7029V109.653H43.7029V112.653Z" fill="#E4A34D"/>
<path fill-rule="evenodd" clip-rule="evenodd" d="M31.7029 117.653H51.7029V114.653H31.7029V117.653Z" fill="#FDD535"/>
<path fill-rule="evenodd" clip-rule="evenodd" d="M35.7029 117.653H38.7029V114.653H35.7029V117.653Z" fill="#FEF068"/>
<path fill-rule="evenodd" clip-rule="evenodd" d="M43.7029 117.653H51.7029V114.653H43.7029V117.653Z" fill="#E4A34D"/>
<path fill-rule="evenodd" clip-rule="evenodd" d="M31.7029 122.653H51.7029V119.653H31.7029V122.653Z" fill="#FDD535"/>
<path fill-rule="evenodd" clip-rule="evenodd" d="M35.7029 122.653H38.7029V119.653H35.7029V122.653Z" fill="#FEF068"/>
<path fill-rule="evenodd" clip-rule="evenodd" d="M43.7029 122.653H51.7029V119.653H43.7029V122.653Z" fill="#E4A34D"/>
<path fill-rule="evenodd" clip-rule="evenodd" d="M31.7029 127.653H51.7029V124.653H31.7029V127.653Z" fill="#FDD535"/>
<path fill-rule="evenodd" clip-rule="evenodd" d="M35.7029 127.653H38.7029V124.653H35.7029V127.653Z" fill="#FEF068"/>
<path fill-rule="evenodd" clip-rule="evenodd" d="M43.7029 127.653H51.7029V124.653H43.7029V127.653Z" fill="#E4A34D"/>
<path fill-rule="evenodd" clip-rule="evenodd" d="M51.7029 126.653H68.7029V106.653H51.7029V126.653Z" fill="#C56639"/>
<path fill-rule="evenodd" clip-rule="evenodd" d="M50.7029 107.653H70.7029V104.653H50.7029V107.653Z" fill="#FDD535"/>
<path fill-rule="evenodd" clip-rule="evenodd" d="M53.7029 107.653H56.7029V104.653H53.7029V107.653Z" fill="#FEF068"/>
<path fill-rule="evenodd" clip-rule="evenodd" d="M61.7029 107.653H69.7029V104.653H61.7029V107.653Z" fill="#E4A34D"/>
<path fill-rule="evenodd" clip-rule="evenodd" d="M50.7029 112.653H70.7029V109.653H50.7029V112.653Z" fill="#FDD535"/>
<path fill-rule="evenodd" clip-rule="evenodd" d="M53.7029 112.653H56.7029V109.653H53.7029V112.653Z" fill="#FEF068"/>
<path fill-rule="evenodd" clip-rule="evenodd" d="M61.7029 112.653H69.7029V109.653H61.7029V112.653Z" fill="#E4A34D"/>
<path fill-rule="evenodd" clip-rule="evenodd" d="M50.7029 117.653H70.7029V114.653H50.7029V117.653Z" fill="#FDD535"/>
<path fill-rule="evenodd" clip-rule="evenodd" d="M53.7029 117.653H56.7029V114.653H53.7029V117.653Z" fill="#FEF068"/>
<path fill-rule="evenodd" clip-rule="evenodd" d="M61.7029 117.653H69.7029V114.653H61.7029V117.653Z" fill="#E4A34D"/>
<path fill-rule="evenodd" clip-rule="evenodd" d="M50.7029 122.653H70.7029V119.653H50.7029V122.653Z" fill="#FDD535"/>
<path fill-rule="evenodd" clip-rule="evenodd" d="M53.7029 122.653H56.7029V119.653H53.7029V122.653Z" fill="#FEF068"/>
<path fill-rule="evenodd" clip-rule="evenodd" d="M61.7029 122.653H69.7029V119.653H61.7029V122.653Z" fill="#E4A34D"/>
<path fill-rule="evenodd" clip-rule="evenodd" d="M50.7029 127.653H70.7029V124.653H50.7029V127.653Z" fill="#FDD535"/>
<path fill-rule="evenodd" clip-rule="evenodd" d="M53.7029 127.653H56.7029V124.653H53.7029V127.653Z" fill="#FEF068"/>
<path fill-rule="evenodd" clip-rule="evenodd" d="M61.7029 127.653H69.7029V124.653H61.7029V127.653Z" fill="#E4A34D"/>
<path fill-rule="evenodd" clip-rule="evenodd" d="M70.7029 116.653H87.7029V106.653H70.7029V116.653Z" fill="#C56639"/>
<path fill-rule="evenodd" clip-rule="evenodd" d="M68.7029 107.653H88.7029V104.653H68.7029V107.653Z" fill="#FDD535"/>
<path fill-rule="evenodd" clip-rule="evenodd" d="M72.7029 107.653H75.7029V104.653H72.7029V107.653Z" fill="#FEF068"/>
<path fill-rule="evenodd" clip-rule="evenodd" d="M80.7029 107.653H88.7029V104.653H80.7029V107.653Z" fill="#E4A34D"/>
<path fill-rule="evenodd" clip-rule="evenodd" d="M68.7029 112.653H88.7029V109.653H68.7029V112.653Z" fill="#FDD535"/>
<path fill-rule="evenodd" clip-rule="evenodd" d="M72.7029 112.653H75.7029V109.653H72.7029V112.653Z" fill="#FEF068"/>
<path fill-rule="evenodd" clip-rule="evenodd" d="M80.7029 112.653H88.7029V109.653H80.7029V112.653Z" fill="#E4A34D"/>
<path fill-rule="evenodd" clip-rule="evenodd" d="M68.7029 117.653H88.7029V114.653H68.7029V117.653Z" fill="#FDD535"/>
<path fill-rule="evenodd" clip-rule="evenodd" d="M72.7029 117.653H75.7029V114.653H72.7029V117.653Z" fill="#FEF068"/>
<path fill-rule="evenodd" clip-rule="evenodd" d="M80.7029 117.653H88.7029V114.653H80.7029V117.653Z" fill="#E4A34D"/>
<path fill-rule="evenodd" clip-rule="evenodd" d="M98.7029 126.653H115.703V111.653H98.7029V126.653Z" fill="#C56639"/>
<path fill-rule="evenodd" clip-rule="evenodd" d="M97.7029 112.653H117.703V109.653H97.7029V112.653Z" fill="#FDD535"/>
<path fill-rule="evenodd" clip-rule="evenodd" d="M100.703 112.653H103.703V109.653H100.703V112.653Z" fill="#FEF068"/>
<path fill-rule="evenodd" clip-rule="evenodd" d="M108.703 112.653H116.703V109.653H108.703V112.653Z" fill="#E4A34D"/>
<path fill-rule="evenodd" clip-rule="evenodd" d="M97.7029 117.653H117.703V114.653H97.7029V117.653Z" fill="#FDD535"/>
<path fill-rule="evenodd" clip-rule="evenodd" d="M100.703 117.653H103.703V114.653H100.703V117.653Z" fill="#FEF068"/>
<path fill-rule="evenodd" clip-rule="evenodd" d="M108.703 117.653H116.703V114.653H108.703V117.653Z" fill="#E4A34D"/>
<path fill-rule="evenodd" clip-rule="evenodd" d="M97.7029 122.653H117.703V119.653H97.7029V122.653Z" fill="#FDD535"/>
<path fill-rule="evenodd" clip-rule="evenodd" d="M100.703 122.653H103.703V119.653H100.703V122.653Z" fill="#FEF068"/>
<path fill-rule="evenodd" clip-rule="evenodd" d="M108.703 122.653H116.703V119.653H108.703V122.653Z" fill="#E4A34D"/>
<path fill-rule="evenodd" clip-rule="evenodd" d="M97.7029 127.653H117.703V124.653H97.7029V127.653Z" fill="#FDD535"/>
<path fill-rule="evenodd" clip-rule="evenodd" d="M100.703 127.653H103.703V124.653H100.703V127.653Z" fill="#FEF068"/>
<path fill-rule="evenodd" clip-rule="evenodd" d="M108.703 127.653H116.703V124.653H108.703V127.653Z" fill="#E4A34D"/>
</g>
<defs>
<clipPath id="clip0_2_329">
<rect width="164" height="128" fill="white" transform="translate(0.70285 0.65271)"/>
</clipPath>
</defs>
</svg>
