<svg width="165" height="129" viewBox="0 0 165 129" fill="none" xmlns="http://www.w3.org/2000/svg">
<g clip-path="url(#clip0_2_670)">
<path fill-rule="evenodd" clip-rule="evenodd" d="M60.0457 18.6528H55.7029H51.3615C7.94085 18.6528 0.70285 29.0984 0.70285 41.986V73.6528V105.32C0.70285 118.207 7.94085 128.653 51.3615 128.653H55.7029H60.0457C103.466 128.653 110.703 118.207 110.703 105.32V73.6528V41.986C110.703 29.0984 103.466 18.6528 60.0457 18.6528Z" fill="#C9FFB5"/>
<path fill-rule="evenodd" clip-rule="evenodd" d="M7.57907 105.019H10.6778V116.653H67.212L60.3889 105.019L38.5791 63.6528H12.7112V73.7112H9.67456V82.6779H7.69533L7.57907 105.019Z" fill="#C56639"/>
<mask id="mask0_2_670" style="mask-type:luminance" maskUnits="userSpaceOnUse" x="1" y="41" width="70" height="87">
<path fill-rule="evenodd" clip-rule="evenodd" d="M21.6463 41.7192C21.6463 109.168 70.7029 126.264 70.7029 126.264C70.7029 126.264 13.013 134.57 3.08857 111.782C-0.387702 95.2607 -1.90076 58.6582 21.6463 41.7192Z" fill="white"/>
</mask>
<g mask="url(#mask0_2_670)">
<path fill-rule="evenodd" clip-rule="evenodd" d="M15.9881 98.1419H20.4771V96.3459H15.9881V98.1419Z" fill="#E4A34D"/>
<path fill-rule="evenodd" clip-rule="evenodd" d="M6.70285 88.6528C6.70285 89.2051 7.15057 89.6528 7.70285 89.6528H29.7029V81.6528H7.70285C7.15057 81.6528 6.70285 82.1005 6.70285 82.6528V88.6528Z" fill="#FDD535"/>
<path fill-rule="evenodd" clip-rule="evenodd" d="M9.70285 89.6528H18.7029V81.6528H9.70285V89.6528Z" fill="#FEF068"/>
<path fill-rule="evenodd" clip-rule="evenodd" d="M22.7029 89.6528H31.7029V81.6528H22.7029V89.6528Z" fill="#E4A34D"/>
<path fill-rule="evenodd" clip-rule="evenodd" d="M6.70285 106.653C6.70285 107.205 7.15057 107.653 7.70285 107.653H29.7029V99.6528H7.70285C7.15057 99.6528 6.70285 100.101 6.70285 100.653V106.653Z" fill="#FDD535"/>
<path fill-rule="evenodd" clip-rule="evenodd" d="M9.70285 107.653H18.7029V99.6528H9.70285V107.653Z" fill="#FEF068"/>
<path fill-rule="evenodd" clip-rule="evenodd" d="M22.7029 107.653H44.7029V99.6528H22.7029V107.653Z" fill="#E4A34D"/>
<path fill-rule="evenodd" clip-rule="evenodd" d="M9.70285 115.653C9.70285 116.205 10.1506 116.653 10.7029 116.653H32.7029V108.653H10.7029C10.1506 108.653 9.70285 109.101 9.70285 109.653V115.653Z" fill="#FDD535"/>
<path fill-rule="evenodd" clip-rule="evenodd" d="M12.7029 116.653H21.7029V108.653H12.7029V116.653Z" fill="#FEF068"/>
<path fill-rule="evenodd" clip-rule="evenodd" d="M25.7029 116.653H55.7029V108.653H25.7029V116.653Z" fill="#E4A34D"/>
<path fill-rule="evenodd" clip-rule="evenodd" d="M8.70285 79.6528C8.70285 80.2051 9.15057 80.6528 9.70285 80.6528H31.7029V72.6528H9.70285C9.15057 72.6528 8.70285 73.1005 8.70285 73.6528V79.6528Z" fill="#FDD535"/>
<path fill-rule="evenodd" clip-rule="evenodd" d="M11.7029 80.6528H20.7029V72.6528H11.7029V80.6528Z" fill="#FEF068"/>
<path fill-rule="evenodd" clip-rule="evenodd" d="M23.7029 80.6528H33.7029V72.6528H23.7029V80.6528Z" fill="#E4A34D"/>
<path fill-rule="evenodd" clip-rule="evenodd" d="M11.7029 70.6528C11.7029 71.2051 12.1506 71.6528 12.7029 71.6528H34.7029V63.6528H12.7029C12.1506 63.6528 11.7029 64.1005 11.7029 64.6528V70.6528Z" fill="#FDD535"/>
<path fill-rule="evenodd" clip-rule="evenodd" d="M14.7029 71.6528H22.7029V63.6528H14.7029V71.6528Z" fill="#FEF068"/>
<path fill-rule="evenodd" clip-rule="evenodd" d="M23.7029 71.6528H36.7029V63.6528H23.7029V71.6528Z" fill="#E4A34D"/>
<path fill-rule="evenodd" clip-rule="evenodd" d="M6.70285 97.6528C6.70285 98.2051 7.15057 98.6528 7.70285 98.6528H35.7029V90.6528H7.70285C7.15057 90.6528 6.70285 91.1005 6.70285 91.6528V97.6528Z" fill="#FDD535"/>
<path fill-rule="evenodd" clip-rule="evenodd" d="M9.70285 98.6528H18.7029V90.6528H9.70285V98.6528Z" fill="#FEF068"/>
<path fill-rule="evenodd" clip-rule="evenodd" d="M22.7029 98.6528H39.7029V90.6528H22.7029V98.6528Z" fill="#E4A34D"/>
</g>
<path fill-rule="evenodd" clip-rule="evenodd" d="M71.2029 8.65283C71.2029 8.65283 56.1473 28.1982 25.7029 36.1261C25.7029 103.058 71.2029 119.653 71.2029 119.653C71.2029 119.653 116.703 103.058 116.703 36.1261C86.2584 28.1982 71.2029 8.65283 71.2029 8.65283Z" fill="#43760B"/>
<path fill-rule="evenodd" clip-rule="evenodd" d="M25.7029 35.6528C56.4818 28.1982 71.2029 8.65283 71.2029 8.65283V119.653C71.2029 119.653 25.7029 103.058 25.7029 35.6528Z" fill="#7ED321"/>
<path fill-rule="evenodd" clip-rule="evenodd" d="M71.2029 21.1528C71.2029 21.1528 59.6217 36.4722 36.2029 42.6859C36.2029 95.1457 71.2029 108.153 71.2029 108.153C71.2029 108.153 106.203 95.1457 106.203 42.6859C82.784 36.4722 71.2029 21.1528 71.2029 21.1528Z" fill="#E9E9E9"/>
<path fill-rule="evenodd" clip-rule="evenodd" d="M71.2029 108.153C71.2029 108.153 35.7029 94.1457 35.7029 41.6528C58.7917 35.4722 71.2029 21.1528 71.2029 21.1528V108.153Z" fill="white"/>
<path fill-rule="evenodd" clip-rule="evenodd" d="M71.2029 17.6528C70.0989 17.6528 69.2029 16.7568 69.2029 15.6528C69.2029 14.5488 70.0989 13.6528 71.2029 13.6528C72.3069 13.6528 73.2029 14.5488 73.2029 15.6528C73.2029 16.7568 72.3069 17.6528 71.2029 17.6528Z" fill="black"/>
<path fill-rule="evenodd" clip-rule="evenodd" d="M73.2029 113.653C73.2029 114.757 72.3069 115.653 71.2029 115.653C70.0989 115.653 69.2029 114.757 69.2029 113.653C69.2029 112.549 70.0989 111.653 71.2029 111.653C72.3069 111.653 73.2029 112.549 73.2029 113.653Z" fill="black"/>
<path fill-rule="evenodd" clip-rule="evenodd" d="M32.7029 39.6528C32.7029 40.7568 31.8069 41.6528 30.7029 41.6528C29.5989 41.6528 28.7029 40.7568 28.7029 39.6528C28.7029 38.5488 29.5989 37.6528 30.7029 37.6528C31.8069 37.6528 32.7029 38.5488 32.7029 39.6528Z" fill="black"/>
<path fill-rule="evenodd" clip-rule="evenodd" d="M113.703 39.6528C113.703 40.7568 112.807 41.6528 111.703 41.6528C110.599 41.6528 109.703 40.7568 109.703 39.6528C109.703 38.5488 110.599 37.6528 111.703 37.6528C112.807 37.6528 113.703 38.5488 113.703 39.6528Z" fill="black"/>
<path fill-rule="evenodd" clip-rule="evenodd" d="M53.5027 69.8301V73.8801C53.5027 75.8835 60.6792 77.5089 69.5325 77.5089C78.3885 77.5089 85.5651 75.8835 85.5651 73.8801V69.8301H53.5027Z" fill="#E4A34D"/>
<path fill-rule="evenodd" clip-rule="evenodd" d="M58.3123 76.4691C59.6947 76.7769 61.3227 77.0253 63.1209 77.2035V69.8298H58.3123V76.4691Z" fill="#FEF068"/>
<path fill-rule="evenodd" clip-rule="evenodd" d="M58.3124 76.4691V69.8298H53.5037V73.8798C53.5037 74.895 55.3478 75.8103 58.3124 76.4691Z" fill="#FDD535"/>
<path fill-rule="evenodd" clip-rule="evenodd" d="M63.1216 77.2045C65.0872 77.3989 67.2526 77.5096 69.534 77.5096C70.1929 77.5096 70.8381 77.4961 71.4753 77.4799V69.8308H63.1216V77.2045Z" fill="#FDD535"/>
<path fill-rule="evenodd" clip-rule="evenodd" d="M85.5651 69.8302C85.5651 71.8336 78.3885 73.459 69.5352 73.459C60.6792 73.459 53.5027 71.8336 53.5027 69.8302C53.5027 67.8268 60.6792 66.2014 69.5352 66.2014C78.3885 66.2014 85.5651 67.8268 85.5651 69.8302Z" fill="#FDD535"/>
<path fill-rule="evenodd" clip-rule="evenodd" d="M84.7439 68.6892C86.0345 70.7223 77.5511 72.4044 69.5348 72.4044C61.5158 72.4044 53.5075 70.4685 54.3229 68.6892C53.7991 69.0483 53.5022 69.4317 53.5022 69.8313C53.5022 71.8347 60.6788 73.4574 69.5348 73.4574C78.3881 73.4574 85.5647 71.8347 85.5647 69.8313C85.5647 69.4317 85.2704 69.0483 84.7439 68.6892Z" fill="#FFF5AB"/>
<path fill-rule="evenodd" clip-rule="evenodd" d="M53.5027 62.8301V66.8801C53.5027 68.8835 60.6792 70.5089 69.5325 70.5089C78.3885 70.5089 85.5651 68.8835 85.5651 66.8801V62.8301H53.5027Z" fill="#E4A34D"/>
<path fill-rule="evenodd" clip-rule="evenodd" d="M58.3123 69.4691C59.6947 69.7769 61.3227 70.0253 63.1209 70.2035V62.8298H58.3123V69.4691Z" fill="#FEF068"/>
<path fill-rule="evenodd" clip-rule="evenodd" d="M58.3124 69.4691V62.8298H53.5037V66.8798C53.5037 67.895 55.3478 68.8103 58.3124 69.4691Z" fill="#FDD535"/>
<path fill-rule="evenodd" clip-rule="evenodd" d="M63.1216 70.2045C65.0872 70.3989 67.2526 70.5096 69.534 70.5096C70.1929 70.5096 70.8381 70.4961 71.4753 70.4799V62.8308H63.1216V70.2045Z" fill="#FDD535"/>
<path fill-rule="evenodd" clip-rule="evenodd" d="M85.5651 62.8302C85.5651 64.8336 78.3885 66.459 69.5352 66.459C60.6792 66.459 53.5027 64.8336 53.5027 62.8302C53.5027 60.8268 60.6792 59.2014 69.5352 59.2014C78.3885 59.2014 85.5651 60.8268 85.5651 62.8302Z" fill="#FDD535"/>
<path fill-rule="evenodd" clip-rule="evenodd" d="M84.7439 61.6892C86.0345 63.7223 77.5511 65.4044 69.5348 65.4044C61.5158 65.4044 53.5075 63.4685 54.3229 61.6892C53.7991 62.0483 53.5022 62.4317 53.5022 62.8313C53.5022 64.8347 60.6788 66.4574 69.5348 66.4574C78.3881 66.4574 85.5647 64.8347 85.5647 62.8313C85.5647 62.4317 85.2704 62.0483 84.7439 61.6892Z" fill="#FFF5AB"/>
<path fill-rule="evenodd" clip-rule="evenodd" d="M68.8542 48.7871L66.7081 52.2217C65.6465 53.9207 70.8712 59.1021 78.3792 63.7936C85.8896 68.4866 92.837 70.9112 93.8986 69.2122L96.0448 65.7776L68.8542 48.7871Z" fill="#E4A34D"/>
<path fill-rule="evenodd" clip-rule="evenodd" d="M69.4147 56.9661C70.424 57.9597 71.6731 59.0331 73.1037 60.1371L77.011 53.8839L72.9331 51.3357L69.4147 56.9661Z" fill="#FEF068"/>
<path fill-rule="evenodd" clip-rule="evenodd" d="M69.4149 56.9661L72.9332 51.3357L68.8551 48.7874L66.7091 52.222C66.1711 53.083 67.2498 54.8364 69.4149 56.9661Z" fill="#FDD535"/>
<path fill-rule="evenodd" clip-rule="evenodd" d="M73.1038 60.1382C74.6677 61.3447 76.4453 62.586 78.3801 63.7951C78.9388 64.1442 79.4933 64.4747 80.0423 64.7986L84.0956 58.3118L77.0111 53.885L73.1038 60.1382Z" fill="#FDD535"/>
<path fill-rule="evenodd" clip-rule="evenodd" d="M96.0449 65.7776C94.9833 67.4766 88.0358 65.052 80.5277 60.3605C73.0174 55.6675 67.7927 50.4861 68.8543 48.7871C69.9159 47.0881 76.8634 49.5127 84.3737 54.2057C91.8817 58.8972 97.1066 64.0787 96.0449 65.7776Z" fill="#FDD535"/>
<path fill-rule="evenodd" clip-rule="evenodd" d="M95.9529 64.375C95.97 66.7831 87.8843 63.714 81.0861 59.4661C74.2856 55.2166 68.5201 49.3312 70.1545 48.2544C69.52 48.2813 69.065 48.4491 68.8532 48.788C67.7916 50.4869 73.0178 55.6661 80.5281 60.3591C88.0361 65.0506 94.9821 67.4775 96.0437 65.7785C96.2555 65.4396 96.2091 64.9585 95.9529 64.375Z" fill="#FFF5AB"/>
</g>
<defs>
<clipPath id="clip0_2_670">
<rect width="164" height="128" fill="white" transform="translate(0.70285 0.652832)"/>
</clipPath>
</defs>
</svg>
