<svg width="165" height="129" viewBox="0 0 165 129" fill="none" xmlns="http://www.w3.org/2000/svg">
<g clip-path="url(#clip0_2_1193)">
<g clip-path="url(#clip1_2_1193)">
<path fill-rule="evenodd" clip-rule="evenodd" d="M60.0175 18.9316H55.701H51.386C8.2285 18.9316 1.03436 29.3139 1.03436 42.1234V73.5983V105.073C1.03436 117.882 8.2285 128.265 51.386 128.265H55.701H60.0175C103.175 128.265 110.367 117.882 110.367 105.073V73.5983V42.1234C110.367 29.3139 103.175 18.9316 60.0175 18.9316Z" fill="#B5FFF2"/>
<path fill-rule="evenodd" clip-rule="evenodd" d="M119.313 93.4771H15.9435V33.7685C15.9435 31.6126 17.6911 29.865 19.847 29.865H115.409C117.565 29.865 119.313 31.6126 119.313 33.7685V93.4771Z" fill="#123F5B"/>
<path fill-rule="evenodd" clip-rule="evenodd" d="M14.9495 93.4771H119.313V100.489C119.313 102.105 118.003 103.416 116.386 103.416H17.8772C16.2602 103.416 14.9495 102.105 14.9495 100.489V93.4771Z" fill="url(#paint0_linear_2_1193)"/>
<path fill-rule="evenodd" clip-rule="evenodd" d="M82.5374 114.35H52.7192L55.4147 103.417H79.696L82.5374 114.35Z" fill="#2498BF"/>
<path fill-rule="evenodd" clip-rule="evenodd" d="M88.5011 114.636C88.5011 116.674 86.849 118.326 84.8112 118.326H49.4516C47.4137 118.326 45.7617 116.674 45.7617 114.636C45.7617 114.187 46.5203 114.352 46.969 114.352H87.2978C87.7438 114.352 88.5011 114.19 88.5011 114.636Z" fill="#86CFE8"/>
<path fill-rule="evenodd" clip-rule="evenodd" d="M19.9192 87.5135C19.9192 88.6115 20.8092 89.5014 21.9071 89.5014H113.349C114.447 89.5014 115.337 88.6115 115.337 87.5135V35.8287C115.337 34.7308 114.447 33.8408 113.349 33.8408H21.9071C20.8092 33.8408 19.9192 34.7308 19.9192 35.8287V87.5135Z" fill="url(#paint1_linear_2_1193)"/>
<path fill-rule="evenodd" clip-rule="evenodd" d="M77.5677 59.2504L68.3554 70.0691C67.7782 70.747 66.7537 70.8033 66.1062 70.1928L59.6763 64.0912V59.8444L67.0485 66.7946L76.6643 55.502C75.5581 54.4235 73.2048 53.7195 68.4128 53.7195H67.6283H66.8435C58.9966 53.7195 57.6889 55.6072 57.6889 57.9362V63.6589V69.3816C57.6889 71.7106 58.9966 73.5983 66.8435 73.5983H67.6283H68.4128C76.2597 73.5983 77.5677 71.7106 77.5677 69.3816V63.6589V59.2504Z" fill="white"/>
<path fill-rule="evenodd" clip-rule="evenodd" d="M8.98817 112.943C7.53608 112.943 6.35904 111.761 6.35904 110.301L5.50708 55.7074C5.50708 54.2165 7.76068 52.7256 10.4532 52.7256L36.4082 52.8241C39.1006 52.8241 39.798 53.9959 39.798 56.7013V110.374C39.798 111.834 38.1199 113.356 36.6678 113.356L8.98817 112.943Z" fill="#123F5B"/>
<path fill-rule="evenodd" clip-rule="evenodd" d="M7.62827 113.356C6.18224 113.356 5.01013 112.183 5.01013 110.735V57.5846C5.01013 54.901 6.18967 53.7195 8.87095 53.7195H34.9423C37.6237 53.7195 38.8041 54.901 38.8041 57.5846V110.735C38.8041 112.183 37.631 113.356 36.185 113.356H7.62827Z" fill="#2498BF"/>
<path fill-rule="evenodd" clip-rule="evenodd" d="M6.99799 107.392C6.99799 108.491 7.88799 109.38 8.98586 109.38H34.8283C35.9262 109.38 36.8162 108.491 36.8162 107.392V57.6954C36.8162 56.5975 35.9262 55.7075 34.8283 55.7075H8.98586C7.88799 55.7075 6.99799 56.5975 6.99799 57.6954V107.392Z" fill="white"/>
<path d="M10.4768 60.6771C11.3002 60.6771 11.9677 60.0096 11.9677 59.1862C11.9677 58.3628 11.3002 57.6953 10.4768 57.6953C9.6534 57.6953 8.9859 58.3628 8.9859 59.1862C8.9859 60.0096 9.6534 60.6771 10.4768 60.6771Z" fill="#2498BF"/>
<path fill-rule="evenodd" clip-rule="evenodd" d="M31.8465 77.1414L22.6341 87.9602C22.0569 88.638 21.0325 88.6944 20.3849 88.0839L13.9549 81.9822V77.7354L21.3273 84.6855L30.9432 73.393C29.837 72.3144 27.4837 71.6104 22.6915 71.6104H21.907H21.1221C13.2752 71.6104 11.9675 73.498 11.9675 75.827V81.5498V87.2726C11.9675 89.6016 13.2752 91.4893 21.1221 91.4893H21.907H22.6915C30.5384 91.4893 31.8465 89.6016 31.8465 87.2726V81.5498V77.1414Z" fill="url(#paint2_linear_2_1193)"/>
</g>
</g>
<defs>
<linearGradient id="paint0_linear_2_1193" x1="84.9476" y1="100.083" x2="119.313" y2="100.083" gradientUnits="userSpaceOnUse">
<stop stop-color="white"/>
<stop offset="1" stop-color="#A0E7FF"/>
</linearGradient>
<linearGradient id="paint1_linear_2_1193" x1="67.6283" y1="6.01052" x2="19.1776" y2="89.0689" gradientUnits="userSpaceOnUse">
<stop stop-color="#00B6F3"/>
<stop offset="1" stop-color="#00FF44"/>
</linearGradient>
<linearGradient id="paint2_linear_2_1193" x1="21.907" y1="61.6709" x2="41.7859" y2="81.5498" gradientUnits="userSpaceOnUse">
<stop stop-color="#00B6F3"/>
<stop offset="1" stop-color="#00FF44"/>
</linearGradient>
<clipPath id="clip0_2_1193">
<rect width="164" height="128" fill="white" transform="translate(0.702881 0.652832)"/>
</clipPath>
<clipPath id="clip1_2_1193">
<rect width="164" height="127.224" fill="white" transform="translate(0.702881 1.04077)"/>
</clipPath>
</defs>
</svg>
