<svg width="165" height="129" viewBox="0 0 165 129" fill="none" xmlns="http://www.w3.org/2000/svg">
<g clip-path="url(#clip0_2_844)">
<g clip-path="url(#clip1_2_844)">
<g clip-path="url(#clip2_2_844)">
<path fill-rule="evenodd" clip-rule="evenodd" d="M60.0561 18.9316H55.7396H51.4246C8.26707 18.9316 1.07294 29.3139 1.07294 42.1234V73.5983V105.073C1.07294 117.882 8.26707 128.265 51.4246 128.265H55.7396H60.0561C103.214 128.265 110.406 117.882 110.406 105.073V73.5983V42.1234C110.406 29.3139 103.214 18.9316 60.0561 18.9316Z" fill="#D0F3FF"/>
<path fill-rule="evenodd" clip-rule="evenodd" d="M31.1522 35.3308L28.985 36.2508L26.8184 37.1704C5.1493 46.3684 3.78679 53.2014 6.56233 59.7401L13.3823 75.8069L20.2022 91.8736C22.9777 98.4123 28.8394 102.179 50.5085 92.9809L52.6751 92.0613L54.8424 91.1413C76.5115 81.9434 77.8733 75.1106 75.0978 68.5719L68.2778 52.5052L61.4578 36.4384C58.6824 29.8996 52.8213 26.1329 31.1522 35.3308Z" fill="#A34A5E"/>
<path fill-rule="evenodd" clip-rule="evenodd" d="M35.5543 75.1288C35.5543 75.1288 33.7745 75.0061 32.6264 76.3715C31.4784 77.7371 28.7239 85.493 28.7239 85.493C28.7239 85.493 37.8808 84.6799 39.7607 83.0037C41.6407 81.3274 39.7455 76.8627 39.7455 76.8627L35.5543 75.1288Z" fill="#E5B829"/>
<mask id="mask0_2_844" style="mask-type:luminance" maskUnits="userSpaceOnUse" x="28" y="75" width="13" height="11">
<path fill-rule="evenodd" clip-rule="evenodd" d="M35.5543 75.1288C35.5543 75.1288 33.7745 75.0061 32.6264 76.3715C31.4784 77.7371 28.7239 85.493 28.7239 85.493C28.7239 85.493 37.8808 84.6799 39.7607 83.0037C41.6407 81.3274 39.7455 76.8627 39.7455 76.8627L35.5543 75.1288Z" fill="white"/>
</mask>
<g mask="url(#mask0_2_844)">
<path fill-rule="evenodd" clip-rule="evenodd" d="M39.0811 76.3152C39.0811 76.3152 35.8375 76.8137 34.6895 78.1793C33.5415 79.5448 31.5514 86.0491 31.5514 86.0491C31.5514 86.0491 40.7083 85.2361 42.5882 83.5598C44.4681 81.8836 42.573 77.4188 42.573 77.4188L39.0811 76.3152Z" fill="#E4A232"/>
</g>
<path fill-rule="evenodd" clip-rule="evenodd" d="M39.7345 76.8367C39.7345 76.8367 44.8428 68.5208 47.9634 60.6097C51.0839 52.6984 53.2568 42.5548 51.3692 41.1605C49.4816 39.7662 42.9671 50.8744 40.2627 57.7308C37.5582 64.5872 35.5432 75.1029 35.5432 75.1029L39.7345 76.8367Z" fill="#5D768C"/>
<mask id="mask1_2_844" style="mask-type:luminance" maskUnits="userSpaceOnUse" x="35" y="41" width="18" height="36">
<path fill-rule="evenodd" clip-rule="evenodd" d="M39.7345 76.8367C39.7345 76.8367 44.8428 68.5208 47.9634 60.6097C51.0839 52.6984 53.2568 42.5548 51.3692 41.1605C49.4816 39.7662 42.9671 50.8744 40.2627 57.7308C37.5582 64.5872 35.5432 75.1029 35.5432 75.1029L39.7345 76.8367Z" fill="white"/>
</mask>
<g mask="url(#mask1_2_844)">
<path fill-rule="evenodd" clip-rule="evenodd" d="M37.2208 64.8101L45.3664 67.7195L41.8009 75.6001L33.5764 72.5045L37.2208 64.8101Z" fill="#BFC8D1"/>
<path fill-rule="evenodd" clip-rule="evenodd" d="M46.6435 65.6404L38.261 62.1729L37.2208 64.81L45.4453 67.9055L46.6435 65.6404ZM42.1668 75.4446L33.7844 71.977L32.7442 74.6141L40.9688 77.7096L42.1668 75.4446Z" fill="#D2D9DF"/>
<g style="mix-blend-mode:hard-light">
<path fill-rule="evenodd" clip-rule="evenodd" d="M39.7344 76.8368C44.4163 69.9938 44.8427 68.5209 47.9632 60.6096C51.0838 52.6983 53.9672 43.2109 51.3691 41.1604C49.9414 44.9197 46.0117 52.9597 43.3073 59.816C40.6028 66.6724 37.3014 76.1925 37.3014 76.1925C37.3014 76.1925 39.0854 77.7853 39.7344 76.8368Z" fill="#636363"/>
</g>
</g>
<path fill-rule="evenodd" clip-rule="evenodd" d="M73.0026 57.6953H70.6482H68.2945C44.7541 57.6953 40.83 63.4528 40.83 70.5562V88.0105V105.465C40.83 112.568 44.7541 118.326 68.2945 118.326H70.6482H73.0026C96.5431 118.326 100.467 112.568 100.467 105.465V88.0105V70.5562C100.467 63.4528 96.5431 57.6953 73.0026 57.6953Z" fill="#66709F"/>
<path fill-rule="evenodd" clip-rule="evenodd" d="M54.3481 70.3781C54.3481 68.7313 55.6832 67.3962 57.33 67.3962H77.2923L86.9494 78.9261V105.643C86.9494 107.29 85.6144 108.625 83.9675 108.625H57.33C55.6832 108.625 54.3481 107.29 54.3481 105.643V70.3781Z" fill="#02C1FF"/>
<path d="M82.9737 81.9473H59.1192V84.3725H82.9737V81.9473Z" fill="white"/>
<path d="M82.9737 87.6062H59.1192V90.0314H82.9737V87.6062Z" fill="white"/>
<path d="M82.9737 93.2651H59.1192V95.6904H82.9737V93.2651Z" fill="white"/>
<path d="M71.0465 98.9238H59.1192V101.349H71.0465V98.9238Z" fill="white"/>
<path fill-rule="evenodd" clip-rule="evenodd" d="M77.4076 67.3962V78.7211H86.9494L77.4076 67.3962Z" fill="#40DAFF"/>
<g style="mix-blend-mode:hard-light">
<path fill-rule="evenodd" clip-rule="evenodd" d="M86.9407 87.2021L77.4076 78.7139H86.9494L86.9407 87.2021Z" fill="#3D6A7E"/>
</g>
</g>
</g>
</g>
<defs>
<clipPath id="clip0_2_844">
<rect width="164" height="128" fill="white" transform="translate(0.702881 0.652832)"/>
</clipPath>
<clipPath id="clip1_2_844">
<rect width="164" height="128" fill="white" transform="translate(0.702881 0.652832)"/>
</clipPath>
<clipPath id="clip2_2_844">
<rect width="164" height="127.224" fill="white" transform="translate(0.702881 1.04077)"/>
</clipPath>
</defs>
</svg>
