<svg width="221" height="51" viewBox="0 0 221 51" fill="none" xmlns="http://www.w3.org/2000/svg">
<g clip-path="url(#clip0_2_655)">
<path d="M169.293 25.6191C169.293 20.9283 165.787 17.1338 160.835 17.1338C155.981 17.1338 152.525 20.7824 152.525 25.7959C152.525 30.8345 156.079 34.5082 161.179 34.5082C164.414 34.5082 167.135 33.043 168.827 30.0649L165.395 28.4515C164.587 29.9405 162.82 30.9086 161.179 30.9086C159.096 30.9086 156.693 29.3203 156.546 27.1117H169.17C169.25 26.6183 169.291 26.1191 169.293 25.6191ZM156.619 24.185C156.914 21.9512 158.434 20.4873 160.86 20.4873C163.262 20.4873 164.733 21.9214 164.929 24.185H156.619Z" fill="black"/>
<path d="M122.039 17.1304C117.064 17.1304 113.534 20.7551 113.534 25.8677C113.534 30.9302 117.064 34.5048 122.089 34.5048C127.139 34.5048 130.668 30.9302 130.668 25.9419C130.668 20.8041 127.041 17.1304 122.039 17.1304ZM122.089 30.7067C119.588 30.7067 118.045 28.8208 118.045 25.8917C118.045 22.9135 119.613 20.8782 122.089 20.8782C124.59 20.8782 126.158 22.8883 126.158 25.8917C126.158 28.8459 124.614 30.7067 122.089 30.7067Z" fill="black"/>
<path d="M104.32 17.1351C102.282 17.1351 100.746 17.8401 99.2105 19.5886H98.7065C97.6748 18.0098 95.9917 17.1351 94.1031 17.1351C93.1602 17.1257 92.2286 17.3433 91.385 17.7698C90.5413 18.1964 89.8099 18.8197 89.2507 19.5886H88.7467L88.722 19.5647V17.4756H84.5034V34.1402H89.0618V25.5641C89.0618 22.795 90.2139 21.1673 92.2052 21.1673C94.0524 21.1673 95.2516 22.5524 95.2516 24.6654V34.1402H99.8337V25.5641C99.8337 22.8154 100.986 21.1673 103.002 21.1673C104.824 21.1673 106 22.5524 106 24.6904V34.1402H110.583V24.1312C110.583 19.7834 108.279 17.1351 104.32 17.1351Z" fill="black"/>
<path d="M179.43 28.3607H179.104C179.104 28.0644 177.116 22.7868 175.813 19.5169L174.998 17.4722H170.406L176.921 34.1952L174.354 40.5675H178.915L188.297 17.4781H183.703L182.953 19.2265L180.412 25.5928C179.695 27.3712 179.401 28.1958 179.43 28.3607Z" fill="black"/>
<path d="M143.31 17.135C141.271 17.135 139.52 18.0337 138.344 19.6376H137.864L137.816 19.6137V17.4757H133.596V34.1401H138.154V25.6131C138.154 22.893 139.452 21.1912 141.585 21.1912C143.577 21.1912 145.04 22.697 145.04 25.0777V34.139H149.599V24.0834C149.599 20.0021 146.96 17.135 143.31 17.135Z" fill="black"/>
<path d="M44.8319 2.68164C32.2116 2.68164 22.0703 13.0186 22.0703 25.6527C22.0703 38.391 32.3114 48.6238 44.8289 48.6238C57.3463 48.6238 67.5966 38.2868 67.5966 25.6527C67.5966 13.0186 57.3494 2.68164 44.8319 2.68164ZM44.8319 34.2148C40.1765 34.2148 36.3498 30.3511 36.3498 25.6527C36.3498 20.9544 40.1765 17.0906 44.8319 17.0906C49.4874 17.0906 53.3155 20.9544 53.3155 25.6527C53.2112 30.3511 49.4874 34.2148 44.8319 34.2148Z" fill="#8B3FFD"/>
<path d="M22.0704 9.35571V42.7679H14.0058L3.66031 9.35571H22.0704Z" fill="#8B3FFD"/>
</g>
<defs>
<clipPath id="clip0_2_655">
<rect width="220" height="49.5" fill="white" transform="translate(0.70285 0.902832)"/>
</clipPath>
</defs>
</svg>
